<?xml version="1.0" encoding="us-ascii" standalone="no"?><svg xmlns="http://www.w3.org/2000/svg" xmlns:xlink="http://www.w3.org/1999/xlink" contentStyleType="text/css" height="576px" preserveAspectRatio="none" style="width:1683px;height:576px;background:#FFFFFF;" version="1.1" viewBox="0 0 1683 576" width="1683px" zoomAndPan="magnify"><defs/><g><!--class DatabaseMetadataAdapter--><g id="elem_DatabaseMetadataAdapter"><rect codeLine="3" fill="#F1F1F1" height="65.6094" id="DatabaseMetadataAdapter" rx="2.5" ry="2.5" style="stroke:#181818;stroke-width:0.5;" width="362" x="1314.26" y="15.5"/><ellipse cx="1405.51" cy="31.5" fill="#A9DCDF" rx="11" ry="11" style="stroke:#181818;stroke-width:1.0;"/><path d="M1407.6975,33.2656 L1403.5569,33.2656 L1403.135,34.2969 L1403.5569,34.2969 Q1404.1663,34.2969 1404.4319,34.5313 Q1404.6975,34.7656 1404.6975,35.1563 Q1404.6975,35.5313 1404.4319,35.7656 Q1404.1663,36 1403.5569,36 L1401.26,36 Q1400.6506,36 1400.4006,35.7656 Q1400.135,35.5313 1400.135,35.1406 Q1400.135,34.7656 1400.4163,34.5313 Q1400.6819,34.2813 1401.3069,34.2969 L1403.9788,27.6406 L1402.8694,27.6406 Q1402.26,27.6406 1401.9944,27.4063 Q1401.7288,27.1719 1401.7288,26.7813 Q1401.7288,26.4063 1401.9944,26.1719 Q1402.26,25.9375 1402.8694,25.9375 L1406.5413,25.9375 L1409.9319,34.2969 Q1410.5256,34.2969 1410.7131,34.4375 Q1411.1038,34.7031 1411.1038,35.1563 Q1411.1038,35.5313 1410.8381,35.7656 Q1410.5881,36 1409.9788,36 L1407.6819,36 Q1407.0725,36 1406.8069,35.7656 Q1406.5413,35.5313 1406.5413,35.1406 Q1406.5413,34.7656 1406.8069,34.5313 Q1407.0725,34.2969 1407.6819,34.2969 L1408.1038,34.2969 L1407.6975,33.2656 Z M1406.9788,31.5625 L1405.6194,28.1875 L1404.2444,31.5625 L1406.9788,31.5625 Z " fill="#000000"/><text fill="#000000" font-family="sans-serif" font-size="14" font-style="italic" lengthAdjust="spacing" textLength="171" x="1426.01" y="37.2285">DatabaseMetadataAdapter</text><line style="stroke:#181818;stroke-width:0.5;" x1="1315.26" x2="1675.26" y1="47.5" y2="47.5"/><line style="stroke:#181818;stroke-width:0.5;" x1="1315.26" x2="1675.26" y1="55.5" y2="55.5"/><text fill="#000000" font-family="sans-serif" font-size="14" lengthAdjust="spacing" textLength="350" x="1320.26" y="74.0332">getStructure(dataSampleSize=0): list[DatabaseSchema]</text></g><!--class MySQLDatabaseMetadataAdapter--><g id="elem_MySQLDatabaseMetadataAdapter"><rect codeLine="7" fill="#F1F1F1" height="65.6094" id="MySQLDatabaseMetadataAdapter" rx="2.5" ry="2.5" style="stroke:#181818;stroke-width:0.5;" width="271" x="1359.76" y="202.5"/><ellipse cx="1385.11" cy="218.5" fill="#ADD1B2" rx="11" ry="11" style="stroke:#181818;stroke-width:1.0;"/><path d="M1387.8756,214.375 Q1388.0319,214.1563 1388.2194,214.0469 Q1388.4069,213.9375 1388.6256,213.9375 Q1389.0006,213.9375 1389.235,214.2031 Q1389.4694,214.4531 1389.4694,215.0625 L1389.4694,216.5156 Q1389.4694,217.125 1389.235,217.3906 Q1389.0006,217.6563 1388.6256,217.6563 Q1388.2819,217.6563 1388.0788,217.4531 Q1387.8756,217.2656 1387.7663,216.75 Q1387.7194,216.3906 1387.5319,216.2031 Q1387.2038,215.8281 1386.5944,215.6094 Q1385.985,215.3906 1385.36,215.3906 Q1384.5944,215.3906 1383.9538,215.7188 Q1383.3288,216.0469 1382.8288,216.7969 Q1382.3444,217.5469 1382.3444,218.5781 L1382.3444,219.6719 Q1382.3444,220.9063 1383.235,221.7344 Q1384.1256,222.5469 1385.7194,222.5469 Q1386.6569,222.5469 1387.3131,222.2969 Q1387.7038,222.1406 1388.1256,221.7031 Q1388.3913,221.4375 1388.5319,221.3594 Q1388.6881,221.2813 1388.8913,221.2813 Q1389.2194,221.2813 1389.4694,221.5469 Q1389.735,221.7969 1389.735,222.1406 Q1389.735,222.4844 1389.3913,222.8906 Q1388.8913,223.4688 1388.0944,223.7969 Q1387.0163,224.25 1385.7194,224.25 Q1384.2038,224.25 1383.0006,223.625 Q1382.0163,223.125 1381.3288,222.0625 Q1380.6413,220.9844 1380.6413,219.7031 L1380.6413,218.5469 Q1380.6413,217.2188 1381.2506,216.0781 Q1381.8756,214.9219 1382.9694,214.3125 Q1384.0631,213.6875 1385.2975,213.6875 Q1386.0319,213.6875 1386.6725,213.8594 Q1387.3288,214.0156 1387.8756,214.375 Z " fill="#000000"/><text fill="#000000" font-family="sans-serif" font-size="14" lengthAdjust="spacing" textLength="216" x="1401.41" y="224.2285">MySQLDatabaseMetadataAdapter</text><line style="stroke:#181818;stroke-width:0.5;" x1="1360.76" x2="1629.76" y1="234.5" y2="234.5"/><line style="stroke:#181818;stroke-width:0.5;" x1="1360.76" x2="1629.76" y1="242.5" y2="242.5"/><text fill="#000000" font-family="sans-serif" font-size="14" lengthAdjust="spacing" textLength="259" x="1365.76" y="261.0332">__init__(host, port, username, password)</text></g><!--class FieldDataTypes--><g id="elem_FieldDataTypes"><rect codeLine="11" fill="#F1F1F1" height="188.875" id="FieldDataTypes" rx="2.5" ry="2.5" style="stroke:#181818;stroke-width:0.5;" width="132" x="841.26" y="381"/><ellipse cx="856.26" cy="397" fill="#EB937F" rx="11" ry="11" style="stroke:#181818;stroke-width:1.0;"/><path d="M855.1194,397.7969 L855.1194,400.2969 L859.4475,400.2969 L859.4475,399.375 Q859.4475,398.7656 859.6819,398.5 Q859.9319,398.2344 860.3069,398.2344 Q860.6819,398.2344 860.9163,398.5 Q861.1506,398.7656 861.1506,399.375 L861.1506,402 L853.1506,402 Q852.5256,402 852.26,401.7656 Q852.01,401.5313 852.01,401.1406 Q852.01,400.7656 852.2756,400.5313 Q852.5413,400.2969 853.1506,400.2969 L853.4163,400.2969 L853.4163,393.6406 L853.1506,393.6406 Q852.5256,393.6406 852.26,393.4063 Q852.01,393.1719 852.01,392.7813 Q852.01,392.4063 852.26,392.1719 Q852.5256,391.9375 853.1506,391.9375 L860.7756,391.9375 L860.7756,394.5313 Q860.7756,395.1406 860.5413,395.4063 Q860.3225,395.6563 859.9319,395.6563 Q859.5569,395.6563 859.3225,395.4063 Q859.0881,395.1406 859.0881,394.5313 L859.0881,393.6406 L855.1194,393.6406 L855.1194,396.0938 L856.6038,396.0938 Q856.6038,395.4375 856.7288,395.25 Q856.9944,394.8438 857.4631,394.8438 Q857.8381,394.8438 858.0725,395.1094 Q858.3069,395.3594 858.3069,395.9688 L858.3069,397.9375 Q858.3069,398.4844 858.1819,398.6719 Q857.9163,399.0625 857.4631,399.0625 Q856.9944,399.0625 856.7288,398.6563 Q856.6038,398.4688 856.6038,397.7969 L855.1194,397.7969 Z " fill="#000000"/><text fill="#000000" font-family="sans-serif" font-size="14" lengthAdjust="spacing" textLength="100" x="870.26" y="402.7285">FieldDataTypes</text><line style="stroke:#181818;stroke-width:0.5;" x1="842.26" x2="972.26" y1="413" y2="413"/><text fill="#000000" font-family="sans-serif" font-size="14" lengthAdjust="spacing" textLength="51" x="847.26" y="431.5332">STRING</text><text fill="#000000" font-family="sans-serif" font-size="14" lengthAdjust="spacing" textLength="60" x="847.26" y="449.1426">INTEGER</text><text fill="#000000" font-family="sans-serif" font-size="14" lengthAdjust="spacing" textLength="60" x="847.26" y="466.752">DECIMAL</text><text fill="#000000" font-family="sans-serif" font-size="14" lengthAdjust="spacing" textLength="66" x="847.26" y="484.3613">BOOLEAN</text><text fill="#000000" font-family="sans-serif" font-size="14" lengthAdjust="spacing" textLength="49" x="847.26" y="501.9707">BINARY</text><text fill="#000000" font-family="sans-serif" font-size="14" lengthAdjust="spacing" textLength="32" x="847.26" y="519.5801">TIME</text><text fill="#000000" font-family="sans-serif" font-size="14" lengthAdjust="spacing" textLength="37" x="847.26" y="537.1895">DATE</text><text fill="#000000" font-family="sans-serif" font-size="14" lengthAdjust="spacing" textLength="69" x="847.26" y="554.7988">DATETIME</text><line style="stroke:#181818;stroke-width:0.5;" x1="842.26" x2="972.26" y1="561.875" y2="561.875"/></g><!--class DatabaseField--><g id="elem_DatabaseField"><rect codeLine="22" fill="#F1F1F1" height="171.2656" id="DatabaseField" rx="2.5" ry="2.5" style="stroke:#181818;stroke-width:0.5;" width="374" x="720.26" y="150"/><ellipse cx="857.01" cy="166" fill="#ADD1B2" rx="11" ry="11" style="stroke:#181818;stroke-width:1.0;"/><path d="M859.7756,161.875 Q859.9319,161.6563 860.1194,161.5469 Q860.3069,161.4375 860.5256,161.4375 Q860.9006,161.4375 861.135,161.7031 Q861.3694,161.9531 861.3694,162.5625 L861.3694,164.0156 Q861.3694,164.625 861.135,164.8906 Q860.9006,165.1563 860.5256,165.1563 Q860.1819,165.1563 859.9788,164.9531 Q859.7756,164.7656 859.6663,164.25 Q859.6194,163.8906 859.4319,163.7031 Q859.1038,163.3281 858.4944,163.1094 Q857.885,162.8906 857.26,162.8906 Q856.4944,162.8906 855.8538,163.2188 Q855.2288,163.5469 854.7288,164.2969 Q854.2444,165.0469 854.2444,166.0781 L854.2444,167.1719 Q854.2444,168.4063 855.135,169.2344 Q856.0256,170.0469 857.6194,170.0469 Q858.5569,170.0469 859.2131,169.7969 Q859.6038,169.6406 860.0256,169.2031 Q860.2913,168.9375 860.4319,168.8594 Q860.5881,168.7813 860.7913,168.7813 Q861.1194,168.7813 861.3694,169.0469 Q861.635,169.2969 861.635,169.6406 Q861.635,169.9844 861.2913,170.3906 Q860.7913,170.9688 859.9944,171.2969 Q858.9163,171.75 857.6194,171.75 Q856.1038,171.75 854.9006,171.125 Q853.9163,170.625 853.2288,169.5625 Q852.5413,168.4844 852.5413,167.2031 L852.5413,166.0469 Q852.5413,164.7188 853.1506,163.5781 Q853.7756,162.4219 854.8694,161.8125 Q855.9631,161.1875 857.1975,161.1875 Q857.9319,161.1875 858.5725,161.3594 Q859.2288,161.5156 859.7756,161.875 Z " fill="#000000"/><text fill="#000000" font-family="sans-serif" font-size="14" lengthAdjust="spacing" textLength="92" x="877.51" y="171.7285">DatabaseField</text><line style="stroke:#181818;stroke-width:0.5;" x1="721.26" x2="1093.26" y1="182" y2="182"/><text fill="#000000" font-family="sans-serif" font-size="14" lengthAdjust="spacing" textLength="59" x="726.26" y="200.5332">name: str</text><text fill="#000000" font-family="sans-serif" font-size="14" lengthAdjust="spacing" textLength="98" x="726.26" y="218.1426">type: FieldType</text><text fill="#000000" font-family="sans-serif" font-size="14" lengthAdjust="spacing" textLength="132" x="726.26" y="235.752">dataSample: list[Any]</text><text fill="#000000" font-family="sans-serif" font-size="14" lengthAdjust="spacing" textLength="159" x="726.26" y="253.3613">tags: dict[ControlTag, int]</text><line style="stroke:#181818;stroke-width:0.5;" x1="721.26" x2="1093.26" y1="260.4375" y2="260.4375"/><text fill="#000000" font-family="sans-serif" font-size="14" lengthAdjust="spacing" textLength="362" x="726.26" y="278.9707">__init__(name: str, type: FieldDataTypes): DatabaseField</text><text fill="#000000" font-family="sans-serif" font-size="14" lengthAdjust="spacing" textLength="90" x="726.26" y="296.5801">getName(): str</text><text fill="#000000" font-family="sans-serif" font-size="14" lengthAdjust="spacing" textLength="286" x="726.26" y="314.1895">updateTags(tags: dict[ControlTag, int]): None</text></g><!--class ControlTag--><g id="elem_ControlTag"><rect codeLine="62" fill="#F1F1F1" height="83.2188" id="ControlTag" rx="2.5" ry="2.5" style="stroke:#181818;stroke-width:0.5;" width="210" x="255.26" y="434"/><ellipse cx="320.51" cy="450" fill="#ADD1B2" rx="11" ry="11" style="stroke:#181818;stroke-width:1.0;"/><path d="M323.2756,445.875 Q323.4319,445.6563 323.6194,445.5469 Q323.8069,445.4375 324.0256,445.4375 Q324.4006,445.4375 324.635,445.7031 Q324.8694,445.9531 324.8694,446.5625 L324.8694,448.0156 Q324.8694,448.625 324.635,448.8906 Q324.4006,449.1563 324.0256,449.1563 Q323.6819,449.1563 323.4788,448.9531 Q323.2756,448.7656 323.1663,448.25 Q323.1194,447.8906 322.9319,447.7031 Q322.6038,447.3281 321.9944,447.1094 Q321.385,446.8906 320.76,446.8906 Q319.9944,446.8906 319.3538,447.2188 Q318.7288,447.5469 318.2288,448.2969 Q317.7444,449.0469 317.7444,450.0781 L317.7444,451.1719 Q317.7444,452.4063 318.635,453.2344 Q319.5256,454.0469 321.1194,454.0469 Q322.0569,454.0469 322.7131,453.7969 Q323.1038,453.6406 323.5256,453.2031 Q323.7913,452.9375 323.9319,452.8594 Q324.0881,452.7813 324.2913,452.7813 Q324.6194,452.7813 324.8694,453.0469 Q325.135,453.2969 325.135,453.6406 Q325.135,453.9844 324.7913,454.3906 Q324.2913,454.9688 323.4944,455.2969 Q322.4163,455.75 321.1194,455.75 Q319.6038,455.75 318.4006,455.125 Q317.4163,454.625 316.7288,453.5625 Q316.0413,452.4844 316.0413,451.2031 L316.0413,450.0469 Q316.0413,448.7188 316.6506,447.5781 Q317.2756,446.4219 318.3694,445.8125 Q319.4631,445.1875 320.6975,445.1875 Q321.4319,445.1875 322.0725,445.3594 Q322.7288,445.5156 323.2756,445.875 Z " fill="#000000"/><text fill="#000000" font-family="sans-serif" font-size="14" lengthAdjust="spacing" textLength="71" x="341.01" y="455.7285">ControlTag</text><line style="stroke:#181818;stroke-width:0.5;" x1="256.26" x2="464.26" y1="466" y2="466"/><text fill="#000000" font-family="sans-serif" font-size="14" lengthAdjust="spacing" textLength="59" x="261.26" y="484.5332">name: str</text><line style="stroke:#181818;stroke-width:0.5;" x1="256.26" x2="464.26" y1="491.6094" y2="491.6094"/><text fill="#000000" font-family="sans-serif" font-size="14" lengthAdjust="spacing" textLength="198" x="261.26" y="510.1426">__init__(name: str): ControlTag</text></g><!--class DatabaseTable--><g id="elem_DatabaseTable"><rect codeLine="36" fill="#F1F1F1" height="171.2656" id="DatabaseTable" rx="2.5" ry="2.5" style="stroke:#181818;stroke-width:0.5;" width="294" x="391.26" y="150"/><ellipse cx="485.51" cy="166" fill="#ADD1B2" rx="11" ry="11" style="stroke:#181818;stroke-width:1.0;"/><path d="M488.2756,161.875 Q488.4319,161.6563 488.6194,161.5469 Q488.8069,161.4375 489.0256,161.4375 Q489.4006,161.4375 489.635,161.7031 Q489.8694,161.9531 489.8694,162.5625 L489.8694,164.0156 Q489.8694,164.625 489.635,164.8906 Q489.4006,165.1563 489.0256,165.1563 Q488.6819,165.1563 488.4788,164.9531 Q488.2756,164.7656 488.1663,164.25 Q488.1194,163.8906 487.9319,163.7031 Q487.6038,163.3281 486.9944,163.1094 Q486.385,162.8906 485.76,162.8906 Q484.9944,162.8906 484.3538,163.2188 Q483.7288,163.5469 483.2288,164.2969 Q482.7444,165.0469 482.7444,166.0781 L482.7444,167.1719 Q482.7444,168.4063 483.635,169.2344 Q484.5256,170.0469 486.1194,170.0469 Q487.0569,170.0469 487.7131,169.7969 Q488.1038,169.6406 488.5256,169.2031 Q488.7913,168.9375 488.9319,168.8594 Q489.0881,168.7813 489.2913,168.7813 Q489.6194,168.7813 489.8694,169.0469 Q490.135,169.2969 490.135,169.6406 Q490.135,169.9844 489.7913,170.3906 Q489.2913,170.9688 488.4944,171.2969 Q487.4163,171.75 486.1194,171.75 Q484.6038,171.75 483.4006,171.125 Q482.4163,170.625 481.7288,169.5625 Q481.0413,168.4844 481.0413,167.2031 L481.0413,166.0469 Q481.0413,164.7188 481.6506,163.5781 Q482.2756,162.4219 483.3694,161.8125 Q484.4631,161.1875 485.6975,161.1875 Q486.4319,161.1875 487.0725,161.3594 Q487.7288,161.5156 488.2756,161.875 Z " fill="#000000"/><text fill="#000000" font-family="sans-serif" font-size="14" lengthAdjust="spacing" textLength="97" x="506.01" y="171.7285">DatabaseTable</text><line style="stroke:#181818;stroke-width:0.5;" x1="392.26" x2="684.26" y1="182" y2="182"/><text fill="#000000" font-family="sans-serif" font-size="14" lengthAdjust="spacing" textLength="59" x="397.26" y="200.5332">name: str</text><text fill="#000000" font-family="sans-serif" font-size="14" lengthAdjust="spacing" textLength="158" x="397.26" y="218.1426">fields: list[DatabaseField]</text><line style="stroke:#181818;stroke-width:0.5;" x1="392.26" x2="684.26" y1="225.2188" y2="225.2188"/><text fill="#000000" font-family="sans-serif" font-size="14" lengthAdjust="spacing" textLength="282" x="397.26" y="243.752">__init__(name, fields=None): DatabaseTable</text><text fill="#000000" font-family="sans-serif" font-size="14" lengthAdjust="spacing" textLength="232" x="397.26" y="261.3613">addField(field: DatabaseField): None</text><text fill="#000000" font-family="sans-serif" font-size="14" lengthAdjust="spacing" textLength="90" x="397.26" y="278.9707">getName(): str</text><text fill="#000000" font-family="sans-serif" font-size="14" lengthAdjust="spacing" textLength="193" x="397.26" y="296.5801">getFields(): list[DatabaseField]</text><text fill="#000000" font-family="sans-serif" font-size="14" lengthAdjust="spacing" textLength="188" x="397.26" y="314.1895">getLastField(): DatabaseField</text></g><!--class DatabaseSchema--><g id="elem_DatabaseSchema"><rect codeLine="49" fill="#F1F1F1" height="171.2656" id="DatabaseSchema" rx="2.5" ry="2.5" style="stroke:#181818;stroke-width:0.5;" width="283" x="72.76" y="150"/><ellipse cx="154.01" cy="166" fill="#ADD1B2" rx="11" ry="11" style="stroke:#181818;stroke-width:1.0;"/><path d="M156.7756,161.875 Q156.9319,161.6563 157.1194,161.5469 Q157.3069,161.4375 157.5256,161.4375 Q157.9006,161.4375 158.135,161.7031 Q158.3694,161.9531 158.3694,162.5625 L158.3694,164.0156 Q158.3694,164.625 158.135,164.8906 Q157.9006,165.1563 157.5256,165.1563 Q157.1819,165.1563 156.9788,164.9531 Q156.7756,164.7656 156.6663,164.25 Q156.6194,163.8906 156.4319,163.7031 Q156.1038,163.3281 155.4944,163.1094 Q154.885,162.8906 154.26,162.8906 Q153.4944,162.8906 152.8538,163.2188 Q152.2288,163.5469 151.7288,164.2969 Q151.2444,165.0469 151.2444,166.0781 L151.2444,167.1719 Q151.2444,168.4063 152.135,169.2344 Q153.0256,170.0469 154.6194,170.0469 Q155.5569,170.0469 156.2131,169.7969 Q156.6038,169.6406 157.0256,169.2031 Q157.2913,168.9375 157.4319,168.8594 Q157.5881,168.7813 157.7913,168.7813 Q158.1194,168.7813 158.3694,169.0469 Q158.635,169.2969 158.635,169.6406 Q158.635,169.9844 158.2913,170.3906 Q157.7913,170.9688 156.9944,171.2969 Q155.9163,171.75 154.6194,171.75 Q153.1038,171.75 151.9006,171.125 Q150.9163,170.625 150.2288,169.5625 Q149.5413,168.4844 149.5413,167.2031 L149.5413,166.0469 Q149.5413,164.7188 150.1506,163.5781 Q150.7756,162.4219 151.8694,161.8125 Q152.9631,161.1875 154.1975,161.1875 Q154.9319,161.1875 155.5725,161.3594 Q156.2288,161.5156 156.7756,161.875 Z " fill="#000000"/><text fill="#000000" font-family="sans-serif" font-size="14" lengthAdjust="spacing" textLength="112" x="174.51" y="171.7285">DatabaseSchema</text><line style="stroke:#181818;stroke-width:0.5;" x1="73.76" x2="354.76" y1="182" y2="182"/><text fill="#000000" font-family="sans-serif" font-size="14" lengthAdjust="spacing" textLength="59" x="78.76" y="200.5332">name: str</text><text fill="#000000" font-family="sans-serif" font-size="14" lengthAdjust="spacing" textLength="168" x="78.76" y="218.1426">tables: list[DatabaseTable]</text><line style="stroke:#181818;stroke-width:0.5;" x1="73.76" x2="354.76" y1="225.2188" y2="225.2188"/><text fill="#000000" font-family="sans-serif" font-size="14" lengthAdjust="spacing" textLength="247" x="78.76" y="243.752">addTable(table: DatabaseTable): None</text><text fill="#000000" font-family="sans-serif" font-size="14" lengthAdjust="spacing" textLength="90" x="78.76" y="261.3613">getName(): str</text><text fill="#000000" font-family="sans-serif" font-size="14" lengthAdjust="spacing" textLength="203" x="78.76" y="278.9707">getTables(): list[DatabaseTable]</text><text fill="#000000" font-family="sans-serif" font-size="14" lengthAdjust="spacing" textLength="198" x="78.76" y="296.5801">getLastTable(): DatabaseTable</text><text fill="#000000" font-family="sans-serif" font-size="14" lengthAdjust="spacing" textLength="271" x="78.76" y="314.1895">getOrAddTable(name: str): DatabaseTable</text></g><!--class Control--><g id="elem_Control"><rect codeLine="68" fill="#F1F1F1" height="83.2188" id="Control" rx="2.5" ry="2.5" style="stroke:#181818;stroke-width:0.5;" width="354" x="499.26" y="7"/><ellipse cx="649.01" cy="23" fill="#A9DCDF" rx="11" ry="11" style="stroke:#181818;stroke-width:1.0;"/><path d="M651.1975,24.7656 L647.0569,24.7656 L646.635,25.7969 L647.0569,25.7969 Q647.6663,25.7969 647.9319,26.0313 Q648.1975,26.2656 648.1975,26.6563 Q648.1975,27.0313 647.9319,27.2656 Q647.6663,27.5 647.0569,27.5 L644.76,27.5 Q644.1506,27.5 643.9006,27.2656 Q643.635,27.0313 643.635,26.6406 Q643.635,26.2656 643.9163,26.0313 Q644.1819,25.7813 644.8069,25.7969 L647.4788,19.1406 L646.3694,19.1406 Q645.76,19.1406 645.4944,18.9063 Q645.2288,18.6719 645.2288,18.2813 Q645.2288,17.9063 645.4944,17.6719 Q645.76,17.4375 646.3694,17.4375 L650.0413,17.4375 L653.4319,25.7969 Q654.0256,25.7969 654.2131,25.9375 Q654.6038,26.2031 654.6038,26.6563 Q654.6038,27.0313 654.3381,27.2656 Q654.0881,27.5 653.4788,27.5 L651.1819,27.5 Q650.5725,27.5 650.3069,27.2656 Q650.0413,27.0313 650.0413,26.6406 Q650.0413,26.2656 650.3069,26.0313 Q650.5725,25.7969 651.1819,25.7969 L651.6038,25.7969 L651.1975,24.7656 Z M650.4788,23.0625 L649.1194,19.6875 L647.7444,23.0625 L650.4788,23.0625 Z " fill="#000000"/><text fill="#000000" font-family="sans-serif" font-size="14" font-style="italic" lengthAdjust="spacing" textLength="46" x="669.51" y="28.7285">Control</text><line style="stroke:#181818;stroke-width:0.5;" x1="500.26" x2="852.26" y1="39" y2="39"/><line style="stroke:#181818;stroke-width:0.5;" x1="500.26" x2="852.26" y1="47" y2="47"/><text fill="#000000" font-family="sans-serif" font-size="14" lengthAdjust="spacing" textLength="342" x="505.26" y="65.5332">__init__(name: str, affectedTags: dict[ControlTag, int])</text><text fill="#000000" font-family="sans-serif" font-size="14" lengthAdjust="spacing" textLength="245" x="505.26" y="83.1426">executeOn(field: DatabaseField): None</text></g><!--reverse link DatabaseMetadataAdapter to MySQLDatabaseMetadataAdapter--><g id="link_DatabaseMetadataAdapter_MySQLDatabaseMetadataAdapter"><path d="M1495.26,99.72 C1495.26,133.58 1495.26,168.51 1495.26,202.33 " fill="none" id="DatabaseMetadataAdapter-backto-MySQLDatabaseMetadataAdapter" style="stroke:#181818;stroke-width:1.0;"/><polygon fill="none" points="1495.26,81.72,1489.26,99.72,1501.26,99.72,1495.26,81.72" style="stroke:#181818;stroke-width:1.0;"/></g><!--link DatabaseField to ControlTag--><g id="link_DatabaseField_ControlTag"><path codeLine="33" d="M720.16,317.91 C630.28,357.01 532.0418,399.7562 459.0918,431.4962 " fill="none" id="DatabaseField-to-ControlTag" style="stroke:#181818;stroke-width:1.0;"/><polygon fill="#181818" points="453.59,433.89,463.4386,433.9672,458.1748,431.8952,460.2468,426.6314,453.59,433.89" style="stroke:#181818;stroke-width:1.0;"/><text fill="#000000" font-family="sans-serif" font-size="13" lengthAdjust="spacing" textLength="5" x="463.6337" y="423.1795">*</text></g><!--link DatabaseField to FieldDataTypes--><g id="link_DatabaseField_FieldDataTypes"><path codeLine="34" d="M907.26,321.08 C907.26,340.45 907.26,355.16 907.26,374.89 " fill="none" id="DatabaseField-to-FieldDataTypes" style="stroke:#181818;stroke-width:1.0;"/><polygon fill="#181818" points="907.26,380.89,911.26,371.89,907.26,375.89,903.26,371.89,907.26,380.89" style="stroke:#181818;stroke-width:1.0;"/></g><!--link DatabaseTable to DatabaseField--><g id="link_DatabaseTable_DatabaseField"><path codeLine="47" d="M685.28,235.5 C696.84,235.5 702.4,235.5 713.97,235.5 " fill="none" id="DatabaseTable-to-DatabaseField" style="stroke:#181818;stroke-width:1.0;"/><polygon fill="#181818" points="719.97,235.5,710.97,231.5,714.97,235.5,710.97,239.5,719.97,235.5" style="stroke:#181818;stroke-width:1.0;"/><text fill="#000000" font-family="sans-serif" font-size="13" lengthAdjust="spacing" textLength="5" x="707.5563" y="232.6843">*</text></g><!--link DatabaseSchema to DatabaseTable--><g id="link_DatabaseSchema_DatabaseTable"><path codeLine="60" d="M356.01,235.5 C367.75,235.5 373.5,235.5 385.25,235.5 " fill="none" id="DatabaseSchema-to-DatabaseTable" style="stroke:#181818;stroke-width:1.0;"/><polygon fill="#181818" points="391.25,235.5,382.25,231.5,386.25,235.5,382.25,239.5,391.25,235.5" style="stroke:#181818;stroke-width:1.0;"/><text fill="#000000" font-family="sans-serif" font-size="13" lengthAdjust="spacing" textLength="5" x="378.0737" y="232.56">*</text></g><!--link Control to ControlTag--><g id="link_Control_ControlTag"><path codeLine="73" d="M499.05,53.45 C336.04,61.27 111.36,84.09 55.26,150 C6,207.87 15.39,256.3 55.26,321 C98.64,391.4 179.5669,428.9231 249.4669,450.0631 " fill="none" id="Control-to-ControlTag" style="stroke:#181818;stroke-width:1.0;stroke-dasharray:7.0,7.0;"/><polygon fill="#181818" points="255.21,451.8,247.7533,445.3659,250.4241,450.3526,245.4374,453.0234,255.21,451.8" style="stroke:#181818;stroke-width:1.0;"/><text fill="#000000" font-family="sans-serif" font-size="13" lengthAdjust="spacing" textLength="5" x="242.3118" y="446.972">*</text></g><!--link Control to DatabaseField--><g id="link_Control_DatabaseField"><path codeLine="74" d="M726.95,90.1 C749,107.76 771.0162,125.3901 797.0462,146.2301 " fill="none" id="Control-to-DatabaseField" style="stroke:#181818;stroke-width:1.0;stroke-dasharray:7.0,7.0;"/><polygon fill="#181818" points="801.73,149.98,797.2042,141.2326,797.8268,146.8551,792.2043,147.4777,801.73,149.98" style="stroke:#181818;stroke-width:1.0;"/></g><!--SRC=[XLHDQ-Cm4BtxLuYUd9AMFGTQS5kt61A7ZNqf9GJ5cgG6HpQIp3PRzh-lD9BZZpXf3c4alPdtvcbakfLAq4oHhA1IaXUgw9PAM82YJCS1evK2yUqH_Tk3IfIeCrKByCrfGWzL0Kd-5nv-JMQaoANwQ2easISSwDhxvtcszEAO_9vVg4_WIm5dF_1lDZdFrMRZVvPIJKbL2lrVIn2S7a2lDSkVKh29uGHU7yXh3WKp9TDZ1T8MIT9L5BzX6CLf-1QkC7u9dwD5CCVuQRcSXq5iuoWELkyOfj4YjDWWRGFSFJNPw4TcIsZ4pOXs6LTAAvbPOKOKxhLMEWy3VbnRDDtB6M5vfZwUIwv4MQHqFoKvLsklRyc9PTgbEFMkRwSdhRdFMAVvarPUNMane4caVuLR9yGb1zDshogvktiaDxStf4qO0VIL3PrBwRQ0CUTs9aqEfWnhZNanTVW78xJJFPP7E6KCitq43lnfEhnWazv2cFGduu8SQ4wb1Vfd5z3n3ZKHPrqVDJ37FghHkJ8rXkvWOUUERXUNFY87XlpSBiBEstKCdNOjoQZZ6h4KGQFZfFyCsx76DZpqniASD-si3Nsvy48qNsS-DHdjVmFTuVV51qPtEyWKiFJA2y5a-8AiLh3aLsTCAt3fvFx-xFrqZ_gpyHy0]--></g></svg>