<?xml version="1.0" encoding="us-ascii" standalone="no"?><svg xmlns="http://www.w3.org/2000/svg" xmlns:xlink="http://www.w3.org/1999/xlink" contentStyleType="text/css" height="1731px" preserveAspectRatio="none" style="width:2872px;height:1731px;background:#FFFFFF;" version="1.1" viewBox="0 0 2872 1731" width="2872px" zoomAndPan="magnify"><defs/><g><!--class DatabaseMetadataAdapter--><g id="elem_DatabaseMetadataAdapter"><rect codeLine="3" fill="#F1F1F1" height="188.875" id="DatabaseMetadataAdapter" rx="2.5" ry="2.5" style="stroke:#181818;stroke-width:0.5;" width="525" x="208.5" y="7"/><ellipse cx="381.25" cy="23" fill="#A9DCDF" rx="11" ry="11" style="stroke:#181818;stroke-width:1.0;"/><path d="M383.4375,24.7656 L379.2969,24.7656 L378.875,25.7969 L379.2969,25.7969 Q379.9063,25.7969 380.1719,26.0313 Q380.4375,26.2656 380.4375,26.6563 Q380.4375,27.0313 380.1719,27.2656 Q379.9063,27.5 379.2969,27.5 L377,27.5 Q376.3906,27.5 376.1406,27.2656 Q375.875,27.0313 375.875,26.6406 Q375.875,26.2656 376.1563,26.0313 Q376.4219,25.7813 377.0469,25.7969 L379.7188,19.1406 L378.6094,19.1406 Q378,19.1406 377.7344,18.9063 Q377.4688,18.6719 377.4688,18.2813 Q377.4688,17.9063 377.7344,17.6719 Q378,17.4375 378.6094,17.4375 L382.2813,17.4375 L385.6719,25.7969 Q386.2656,25.7969 386.4531,25.9375 Q386.8438,26.2031 386.8438,26.6563 Q386.8438,27.0313 386.5781,27.2656 Q386.3281,27.5 385.7188,27.5 L383.4219,27.5 Q382.8125,27.5 382.5469,27.2656 Q382.2813,27.0313 382.2813,26.6406 Q382.2813,26.2656 382.5469,26.0313 Q382.8125,25.7969 383.4219,25.7969 L383.8438,25.7969 L383.4375,24.7656 Z M382.7188,23.0625 L381.3594,19.6875 L379.9844,23.0625 L382.7188,23.0625 Z " fill="#000000"/><text fill="#000000" font-family="sans-serif" font-size="14" font-style="italic" lengthAdjust="spacing" textLength="171" x="401.75" y="28.7285">DatabaseMetadataAdapter</text><line style="stroke:#181818;stroke-width:0.5;" x1="209.5" x2="732.5" y1="39" y2="39"/><text fill="#000000" font-family="sans-serif" font-size="14" lengthAdjust="spacing" textLength="34" x="214.5" y="57.5332">id: int</text><text fill="#000000" font-family="sans-serif" font-size="14" lengthAdjust="spacing" textLength="142" x="214.5" y="75.1426">scans: list[ScanResult]</text><text fill="#000000" font-family="sans-serif" font-size="14" lengthAdjust="spacing" textLength="162" x="214.5" y="92.752">createdBy: Optional[User]</text><line style="stroke:#181818;stroke-width:0.5;" x1="209.5" x2="732.5" y1="99.8281" y2="99.8281"/><text fill="#000000" font-family="sans-serif" font-size="14" lengthAdjust="spacing" textLength="202" x="214.5" y="118.3613">__init__(createdBy: User=None)</text><text fill="#000000" font-family="sans-serif" font-size="14" lengthAdjust="spacing" textLength="295" x="214.5" y="135.9707">scanStructure(dataSampleSize=0): ScanResult</text><text fill="#000000" font-family="sans-serif" font-size="14" lengthAdjust="spacing" textLength="513" x="214.5" y="153.5801">fetchSamples(dataSampleSize: int, structure:list[DatabaseSchema], cursor): None</text><text fill="#000000" font-family="sans-serif" font-size="14" lengthAdjust="spacing" textLength="193" x="214.5" y="171.1895">def getLastScan(): ScanResult</text><text fill="#000000" font-family="sans-serif" font-size="14" lengthAdjust="spacing" textLength="332" x="214.5" y="188.7988">runControlsOnLastScan(controls: list[Control]): None</text></g><!--class ScanResult--><g id="elem_ScanResult"><rect codeLine="92" fill="#F1F1F1" height="188.875" id="ScanResult" rx="2.5" ry="2.5" style="stroke:#181818;stroke-width:0.5;" width="389" x="56.5" y="256"/><ellipse cx="210.75" cy="272" fill="#ADD1B2" rx="11" ry="11" style="stroke:#181818;stroke-width:1.0;"/><path d="M213.5156,267.875 Q213.6719,267.6563 213.8594,267.5469 Q214.0469,267.4375 214.2656,267.4375 Q214.6406,267.4375 214.875,267.7031 Q215.1094,267.9531 215.1094,268.5625 L215.1094,270.0156 Q215.1094,270.625 214.875,270.8906 Q214.6406,271.1563 214.2656,271.1563 Q213.9219,271.1563 213.7188,270.9531 Q213.5156,270.7656 213.4063,270.25 Q213.3594,269.8906 213.1719,269.7031 Q212.8438,269.3281 212.2344,269.1094 Q211.625,268.8906 211,268.8906 Q210.2344,268.8906 209.5938,269.2188 Q208.9688,269.5469 208.4688,270.2969 Q207.9844,271.0469 207.9844,272.0781 L207.9844,273.1719 Q207.9844,274.4063 208.875,275.2344 Q209.7656,276.0469 211.3594,276.0469 Q212.2969,276.0469 212.9531,275.7969 Q213.3438,275.6406 213.7656,275.2031 Q214.0313,274.9375 214.1719,274.8594 Q214.3281,274.7813 214.5313,274.7813 Q214.8594,274.7813 215.1094,275.0469 Q215.375,275.2969 215.375,275.6406 Q215.375,275.9844 215.0313,276.3906 Q214.5313,276.9688 213.7344,277.2969 Q212.6563,277.75 211.3594,277.75 Q209.8438,277.75 208.6406,277.125 Q207.6563,276.625 206.9688,275.5625 Q206.2813,274.4844 206.2813,273.2031 L206.2813,272.0469 Q206.2813,270.7188 206.8906,269.5781 Q207.5156,268.4219 208.6094,267.8125 Q209.7031,267.1875 210.9375,267.1875 Q211.6719,267.1875 212.3125,267.3594 Q212.9688,267.5156 213.5156,267.875 Z " fill="#000000"/><text fill="#000000" font-family="sans-serif" font-size="14" lengthAdjust="spacing" textLength="72" x="231.25" y="277.7285">ScanResult</text><line style="stroke:#181818;stroke-width:0.5;" x1="57.5" x2="444.5" y1="288" y2="288"/><text fill="#000000" font-family="sans-serif" font-size="14" lengthAdjust="spacing" textLength="34" x="62.5" y="306.5332">id: int</text><text fill="#000000" font-family="sans-serif" font-size="14" lengthAdjust="spacing" textLength="59" x="62.5" y="324.1426">name: str</text><text fill="#000000" font-family="sans-serif" font-size="14" lengthAdjust="spacing" textLength="143" x="62.5" y="341.752">executed_on: datetime</text><text fill="#000000" font-family="sans-serif" font-size="14" lengthAdjust="spacing" textLength="201" x="62.5" y="359.3613">schemas: list[DatabaseSchema]</text><text fill="#000000" font-family="sans-serif" font-size="14" lengthAdjust="spacing" textLength="237" x="62.5" y="376.9707">database: DatabaseMetadataAdapter</text><text fill="#000000" font-family="sans-serif" font-size="14" lengthAdjust="spacing" textLength="178" x="62.5" y="394.5801">requestedBy: Optional[User]</text><line style="stroke:#181818;stroke-width:0.5;" x1="57.5" x2="444.5" y1="401.6563" y2="401.6563"/><text fill="#000000" font-family="sans-serif" font-size="14" lengthAdjust="spacing" textLength="377" x="62.5" y="420.1895">__init__(database: DatabaseMetadataAdapter): ScanResult</text><text fill="#000000" font-family="sans-serif" font-size="14" lengthAdjust="spacing" textLength="367" x="62.5" y="437.7988">run(controls: list[Control], requestedBy: User=None): None</text></g><!--class MySQLDatabaseMetadataAdapter--><g id="elem_MySQLDatabaseMetadataAdapter"><rect codeLine="16" fill="#F1F1F1" height="171.2656" id="MySQLDatabaseMetadataAdapter" rx="2.5" ry="2.5" style="stroke:#181818;stroke-width:0.5;" width="421" x="480.5" y="265"/><ellipse cx="578.75" cy="281" fill="#ADD1B2" rx="11" ry="11" style="stroke:#181818;stroke-width:1.0;"/><path d="M581.5156,276.875 Q581.6719,276.6563 581.8594,276.5469 Q582.0469,276.4375 582.2656,276.4375 Q582.6406,276.4375 582.875,276.7031 Q583.1094,276.9531 583.1094,277.5625 L583.1094,279.0156 Q583.1094,279.625 582.875,279.8906 Q582.6406,280.1563 582.2656,280.1563 Q581.9219,280.1563 581.7188,279.9531 Q581.5156,279.7656 581.4063,279.25 Q581.3594,278.8906 581.1719,278.7031 Q580.8438,278.3281 580.2344,278.1094 Q579.625,277.8906 579,277.8906 Q578.2344,277.8906 577.5938,278.2188 Q576.9688,278.5469 576.4688,279.2969 Q575.9844,280.0469 575.9844,281.0781 L575.9844,282.1719 Q575.9844,283.4063 576.875,284.2344 Q577.7656,285.0469 579.3594,285.0469 Q580.2969,285.0469 580.9531,284.7969 Q581.3438,284.6406 581.7656,284.2031 Q582.0313,283.9375 582.1719,283.8594 Q582.3281,283.7813 582.5313,283.7813 Q582.8594,283.7813 583.1094,284.0469 Q583.375,284.2969 583.375,284.6406 Q583.375,284.9844 583.0313,285.3906 Q582.5313,285.9688 581.7344,286.2969 Q580.6563,286.75 579.3594,286.75 Q577.8438,286.75 576.6406,286.125 Q575.6563,285.625 574.9688,284.5625 Q574.2813,283.4844 574.2813,282.2031 L574.2813,281.0469 Q574.2813,279.7188 574.8906,278.5781 Q575.5156,277.4219 576.6094,276.8125 Q577.7031,276.1875 578.9375,276.1875 Q579.6719,276.1875 580.3125,276.3594 Q580.9688,276.5156 581.5156,276.875 Z " fill="#000000"/><text fill="#000000" font-family="sans-serif" font-size="14" lengthAdjust="spacing" textLength="216" x="599.25" y="286.7285">MySQLDatabaseMetadataAdapter</text><line style="stroke:#181818;stroke-width:0.5;" x1="481.5" x2="900.5" y1="297" y2="297"/><text fill="#000000" font-family="sans-serif" font-size="14" lengthAdjust="spacing" textLength="51" x="486.5" y="315.5332">host: str</text><text fill="#000000" font-family="sans-serif" font-size="14" lengthAdjust="spacing" textLength="48" x="486.5" y="333.1426">port: int</text><text fill="#000000" font-family="sans-serif" font-size="14" lengthAdjust="spacing" textLength="87" x="486.5" y="350.752">username: str</text><text fill="#000000" font-family="sans-serif" font-size="14" lengthAdjust="spacing" textLength="84" x="486.5" y="368.3613">password: str</text><text fill="#000000" font-family="sans-serif" font-size="14" lengthAdjust="spacing" textLength="4" x="486.5" y="385.9707">&#160;</text><text fill="#000000" font-family="sans-serif" font-size="14" lengthAdjust="spacing" textLength="343" x="486.5" y="403.5801">mysqlTypesToStandarTypes: dict[str, FieldDataTypes]</text><line style="stroke:#181818;stroke-width:0.5;" x1="481.5" x2="900.5" y1="410.6563" y2="410.6563"/><text fill="#000000" font-family="sans-serif" font-size="14" lengthAdjust="spacing" textLength="409" x="486.5" y="429.1895">__init__(host, port, username, password, createdBy: User=None)</text></g><!--class FieldDataTypes--><g id="elem_FieldDataTypes"><rect codeLine="26" fill="#F1F1F1" height="188.875" id="FieldDataTypes" rx="2.5" ry="2.5" style="stroke:#181818;stroke-width:0.5;" width="132" x="7" y="1322"/><ellipse cx="22" cy="1338" fill="#EB937F" rx="11" ry="11" style="stroke:#181818;stroke-width:1.0;"/><path d="M20.8594,1338.7969 L20.8594,1341.2969 L25.1875,1341.2969 L25.1875,1340.375 Q25.1875,1339.7656 25.4219,1339.5 Q25.6719,1339.2344 26.0469,1339.2344 Q26.4219,1339.2344 26.6563,1339.5 Q26.8906,1339.7656 26.8906,1340.375 L26.8906,1343 L18.8906,1343 Q18.2656,1343 18,1342.7656 Q17.75,1342.5313 17.75,1342.1406 Q17.75,1341.7656 18.0156,1341.5313 Q18.2813,1341.2969 18.8906,1341.2969 L19.1563,1341.2969 L19.1563,1334.6406 L18.8906,1334.6406 Q18.2656,1334.6406 18,1334.4063 Q17.75,1334.1719 17.75,1333.7813 Q17.75,1333.4063 18,1333.1719 Q18.2656,1332.9375 18.8906,1332.9375 L26.5156,1332.9375 L26.5156,1335.5313 Q26.5156,1336.1406 26.2813,1336.4063 Q26.0625,1336.6563 25.6719,1336.6563 Q25.2969,1336.6563 25.0625,1336.4063 Q24.8281,1336.1406 24.8281,1335.5313 L24.8281,1334.6406 L20.8594,1334.6406 L20.8594,1337.0938 L22.3438,1337.0938 Q22.3438,1336.4375 22.4688,1336.25 Q22.7344,1335.8438 23.2031,1335.8438 Q23.5781,1335.8438 23.8125,1336.1094 Q24.0469,1336.3594 24.0469,1336.9688 L24.0469,1338.9375 Q24.0469,1339.4844 23.9219,1339.6719 Q23.6563,1340.0625 23.2031,1340.0625 Q22.7344,1340.0625 22.4688,1339.6563 Q22.3438,1339.4688 22.3438,1338.7969 L20.8594,1338.7969 Z " fill="#000000"/><text fill="#000000" font-family="sans-serif" font-size="14" lengthAdjust="spacing" textLength="100" x="36" y="1343.7285">FieldDataTypes</text><line style="stroke:#181818;stroke-width:0.5;" x1="8" x2="138" y1="1354" y2="1354"/><text fill="#000000" font-family="sans-serif" font-size="14" lengthAdjust="spacing" textLength="51" x="13" y="1372.5332">STRING</text><text fill="#000000" font-family="sans-serif" font-size="14" lengthAdjust="spacing" textLength="60" x="13" y="1390.1426">INTEGER</text><text fill="#000000" font-family="sans-serif" font-size="14" lengthAdjust="spacing" textLength="60" x="13" y="1407.752">DECIMAL</text><text fill="#000000" font-family="sans-serif" font-size="14" lengthAdjust="spacing" textLength="66" x="13" y="1425.3613">BOOLEAN</text><text fill="#000000" font-family="sans-serif" font-size="14" lengthAdjust="spacing" textLength="49" x="13" y="1442.9707">BINARY</text><text fill="#000000" font-family="sans-serif" font-size="14" lengthAdjust="spacing" textLength="32" x="13" y="1460.5801">TIME</text><text fill="#000000" font-family="sans-serif" font-size="14" lengthAdjust="spacing" textLength="37" x="13" y="1478.1895">DATE</text><text fill="#000000" font-family="sans-serif" font-size="14" lengthAdjust="spacing" textLength="69" x="13" y="1495.7988">DATETIME</text><line style="stroke:#181818;stroke-width:0.5;" x1="8" x2="138" y1="1502.875" y2="1502.875"/></g><!--class FieldTag--><g id="elem_FieldTag"><rect codeLine="37" fill="#F1F1F1" height="136.0469" id="FieldTag" rx="2.5" ry="2.5" style="stroke:#181818;stroke-width:0.5;" width="510" x="174" y="1348.5"/><ellipse cx="396.75" cy="1364.5" fill="#ADD1B2" rx="11" ry="11" style="stroke:#181818;stroke-width:1.0;"/><path d="M399.5156,1360.375 Q399.6719,1360.1563 399.8594,1360.0469 Q400.0469,1359.9375 400.2656,1359.9375 Q400.6406,1359.9375 400.875,1360.2031 Q401.1094,1360.4531 401.1094,1361.0625 L401.1094,1362.5156 Q401.1094,1363.125 400.875,1363.3906 Q400.6406,1363.6563 400.2656,1363.6563 Q399.9219,1363.6563 399.7188,1363.4531 Q399.5156,1363.2656 399.4063,1362.75 Q399.3594,1362.3906 399.1719,1362.2031 Q398.8438,1361.8281 398.2344,1361.6094 Q397.625,1361.3906 397,1361.3906 Q396.2344,1361.3906 395.5938,1361.7188 Q394.9688,1362.0469 394.4688,1362.7969 Q393.9844,1363.5469 393.9844,1364.5781 L393.9844,1365.6719 Q393.9844,1366.9063 394.875,1367.7344 Q395.7656,1368.5469 397.3594,1368.5469 Q398.2969,1368.5469 398.9531,1368.2969 Q399.3438,1368.1406 399.7656,1367.7031 Q400.0313,1367.4375 400.1719,1367.3594 Q400.3281,1367.2813 400.5313,1367.2813 Q400.8594,1367.2813 401.1094,1367.5469 Q401.375,1367.7969 401.375,1368.1406 Q401.375,1368.4844 401.0313,1368.8906 Q400.5313,1369.4688 399.7344,1369.7969 Q398.6563,1370.25 397.3594,1370.25 Q395.8438,1370.25 394.6406,1369.625 Q393.6563,1369.125 392.9688,1368.0625 Q392.2813,1366.9844 392.2813,1365.7031 L392.2813,1364.5469 Q392.2813,1363.2188 392.8906,1362.0781 Q393.5156,1360.9219 394.6094,1360.3125 Q395.7031,1359.6875 396.9375,1359.6875 Q397.6719,1359.6875 398.3125,1359.8594 Q398.9688,1360.0156 399.5156,1360.375 Z " fill="#000000"/><text fill="#000000" font-family="sans-serif" font-size="14" lengthAdjust="spacing" textLength="56" x="417.25" y="1370.2285">FieldTag</text><line style="stroke:#181818;stroke-width:0.5;" x1="175" x2="683" y1="1380.5" y2="1380.5"/><text fill="#000000" font-family="sans-serif" font-size="14" lengthAdjust="spacing" textLength="35" x="180" y="1399.0332">id: str</text><text fill="#000000" font-family="sans-serif" font-size="14" lengthAdjust="spacing" textLength="126" x="180" y="1416.6426">field: DatabaseField</text><text fill="#000000" font-family="sans-serif" font-size="14" lengthAdjust="spacing" textLength="115" x="180" y="1434.252">tag: DataTypeTag</text><text fill="#000000" font-family="sans-serif" font-size="14" lengthAdjust="spacing" textLength="117" x="180" y="1451.8613">certanty_score: int</text><line style="stroke:#181818;stroke-width:0.5;" x1="175" x2="683" y1="1458.9375" y2="1458.9375"/><text fill="#000000" font-family="sans-serif" font-size="14" lengthAdjust="spacing" textLength="498" x="180" y="1477.4707">__init__(field: DatabaseField, tag: DataTypeTag, certanty_score: int): FieldTag</text></g><!--class DataTypeTag--><g id="elem_DataTypeTag"><rect codeLine="105" fill="#F1F1F1" height="153.6563" id="DataTypeTag" rx="2.5" ry="2.5" style="stroke:#181818;stroke-width:0.5;" width="518" x="441" y="1571"/><ellipse cx="652.25" cy="1587" fill="#ADD1B2" rx="11" ry="11" style="stroke:#181818;stroke-width:1.0;"/><path d="M655.0156,1582.875 Q655.1719,1582.6563 655.3594,1582.5469 Q655.5469,1582.4375 655.7656,1582.4375 Q656.1406,1582.4375 656.375,1582.7031 Q656.6094,1582.9531 656.6094,1583.5625 L656.6094,1585.0156 Q656.6094,1585.625 656.375,1585.8906 Q656.1406,1586.1563 655.7656,1586.1563 Q655.4219,1586.1563 655.2188,1585.9531 Q655.0156,1585.7656 654.9063,1585.25 Q654.8594,1584.8906 654.6719,1584.7031 Q654.3438,1584.3281 653.7344,1584.1094 Q653.125,1583.8906 652.5,1583.8906 Q651.7344,1583.8906 651.0938,1584.2188 Q650.4688,1584.5469 649.9688,1585.2969 Q649.4844,1586.0469 649.4844,1587.0781 L649.4844,1588.1719 Q649.4844,1589.4063 650.375,1590.2344 Q651.2656,1591.0469 652.8594,1591.0469 Q653.7969,1591.0469 654.4531,1590.7969 Q654.8438,1590.6406 655.2656,1590.2031 Q655.5313,1589.9375 655.6719,1589.8594 Q655.8281,1589.7813 656.0313,1589.7813 Q656.3594,1589.7813 656.6094,1590.0469 Q656.875,1590.2969 656.875,1590.6406 Q656.875,1590.9844 656.5313,1591.3906 Q656.0313,1591.9688 655.2344,1592.2969 Q654.1563,1592.75 652.8594,1592.75 Q651.3438,1592.75 650.1406,1592.125 Q649.1563,1591.625 648.4688,1590.5625 Q647.7813,1589.4844 647.7813,1588.2031 L647.7813,1587.0469 Q647.7813,1585.7188 648.3906,1584.5781 Q649.0156,1583.4219 650.1094,1582.8125 Q651.2031,1582.1875 652.4375,1582.1875 Q653.1719,1582.1875 653.8125,1582.3594 Q654.4688,1582.5156 655.0156,1582.875 Z " fill="#000000"/><text fill="#000000" font-family="sans-serif" font-size="14" lengthAdjust="spacing" textLength="87" x="672.75" y="1592.7285">DataTypeTag</text><line style="stroke:#181818;stroke-width:0.5;" x1="442" x2="958" y1="1603" y2="1603"/><text fill="#000000" font-family="sans-serif" font-size="14" lengthAdjust="spacing" textLength="30" x="447" y="1621.5332">id: id</text><text fill="#000000" font-family="sans-serif" font-size="14" lengthAdjust="spacing" textLength="59" x="447" y="1639.1426">name: str</text><text fill="#000000" font-family="sans-serif" font-size="14" lengthAdjust="spacing" textLength="154" x="447" y="1656.752">description: Optional[str]</text><text fill="#000000" font-family="sans-serif" font-size="14" lengthAdjust="spacing" textLength="162" x="447" y="1674.3613">createdBy: Optional[User]</text><text fill="#000000" font-family="sans-serif" font-size="14" lengthAdjust="spacing" textLength="130" x="447" y="1691.9707">created_at: datetime</text><line style="stroke:#181818;stroke-width:0.5;" x1="442" x2="958" y1="1699.0469" y2="1699.0469"/><text fill="#000000" font-family="sans-serif" font-size="14" lengthAdjust="spacing" textLength="506" x="447" y="1717.5801">__init__(name: str, description: str=None, createdBy: User=None): DataTypeTag</text></g><!--class DatabaseField--><g id="elem_DatabaseField"><rect codeLine="47" fill="#F1F1F1" height="241.7031" id="DatabaseField" rx="2.5" ry="2.5" style="stroke:#181818;stroke-width:0.5;" width="374" x="64" y="1020"/><ellipse cx="200.75" cy="1036" fill="#ADD1B2" rx="11" ry="11" style="stroke:#181818;stroke-width:1.0;"/><path d="M203.5156,1031.875 Q203.6719,1031.6563 203.8594,1031.5469 Q204.0469,1031.4375 204.2656,1031.4375 Q204.6406,1031.4375 204.875,1031.7031 Q205.1094,1031.9531 205.1094,1032.5625 L205.1094,1034.0156 Q205.1094,1034.625 204.875,1034.8906 Q204.6406,1035.1563 204.2656,1035.1563 Q203.9219,1035.1563 203.7188,1034.9531 Q203.5156,1034.7656 203.4063,1034.25 Q203.3594,1033.8906 203.1719,1033.7031 Q202.8438,1033.3281 202.2344,1033.1094 Q201.625,1032.8906 201,1032.8906 Q200.2344,1032.8906 199.5938,1033.2188 Q198.9688,1033.5469 198.4688,1034.2969 Q197.9844,1035.0469 197.9844,1036.0781 L197.9844,1037.1719 Q197.9844,1038.4063 198.875,1039.2344 Q199.7656,1040.0469 201.3594,1040.0469 Q202.2969,1040.0469 202.9531,1039.7969 Q203.3438,1039.6406 203.7656,1039.2031 Q204.0313,1038.9375 204.1719,1038.8594 Q204.3281,1038.7813 204.5313,1038.7813 Q204.8594,1038.7813 205.1094,1039.0469 Q205.375,1039.2969 205.375,1039.6406 Q205.375,1039.9844 205.0313,1040.3906 Q204.5313,1040.9688 203.7344,1041.2969 Q202.6563,1041.75 201.3594,1041.75 Q199.8438,1041.75 198.6406,1041.125 Q197.6563,1040.625 196.9688,1039.5625 Q196.2813,1038.4844 196.2813,1037.2031 L196.2813,1036.0469 Q196.2813,1034.7188 196.8906,1033.5781 Q197.5156,1032.4219 198.6094,1031.8125 Q199.7031,1031.1875 200.9375,1031.1875 Q201.6719,1031.1875 202.3125,1031.3594 Q202.9688,1031.5156 203.5156,1031.875 Z " fill="#000000"/><text fill="#000000" font-family="sans-serif" font-size="14" lengthAdjust="spacing" textLength="92" x="221.25" y="1041.7285">DatabaseField</text><line style="stroke:#181818;stroke-width:0.5;" x1="65" x2="437" y1="1052" y2="1052"/><text fill="#000000" font-family="sans-serif" font-size="14" lengthAdjust="spacing" textLength="34" x="70" y="1070.5332">id: int</text><text fill="#000000" font-family="sans-serif" font-size="14" lengthAdjust="spacing" textLength="59" x="70" y="1088.1426">name: str</text><text fill="#000000" font-family="sans-serif" font-size="14" lengthAdjust="spacing" textLength="135" x="70" y="1105.752">type: FieldDataTypes</text><text fill="#000000" font-family="sans-serif" font-size="14" lengthAdjust="spacing" textLength="116" x="70" y="1123.3613">tags: list[FieldTag]</text><text fill="#000000" font-family="sans-serif" font-size="14" lengthAdjust="spacing" textLength="132" x="70" y="1140.9707">dataSample: list[Any]</text><line style="stroke:#181818;stroke-width:0.5;" x1="65" x2="437" y1="1148.0469" y2="1148.0469"/><text fill="#000000" font-family="sans-serif" font-size="14" lengthAdjust="spacing" textLength="362" x="70" y="1166.5801">__init__(name: str, type: FieldDataTypes): DatabaseField</text><text fill="#000000" font-family="sans-serif" font-size="14" lengthAdjust="spacing" textLength="90" x="70" y="1184.1895">getName(): str</text><text fill="#000000" font-family="sans-serif" font-size="14" lengthAdjust="spacing" textLength="275" x="70" y="1201.7988">getOrAddTag(tag: DataTypeTag): FieldTag</text><text fill="#000000" font-family="sans-serif" font-size="14" lengthAdjust="spacing" textLength="301" x="70" y="1219.4082">updateTag(tag: DataTypeTag, score: int): None</text><text fill="#000000" font-family="sans-serif" font-size="14" lengthAdjust="spacing" textLength="201" x="70" y="1237.0176">run(controls: list[Control]): None</text><text fill="#000000" font-family="sans-serif" font-size="14" lengthAdjust="spacing" textLength="252" x="70" y="1254.627">getDataSampleWithoutNones(): list[Any]</text></g><!--class DatabaseTable--><g id="elem_DatabaseTable"><rect codeLine="65" fill="#F1F1F1" height="188.875" id="DatabaseTable" rx="2.5" ry="2.5" style="stroke:#181818;stroke-width:0.5;" width="294" x="104" y="771"/><ellipse cx="198.25" cy="787" fill="#ADD1B2" rx="11" ry="11" style="stroke:#181818;stroke-width:1.0;"/><path d="M201.0156,782.875 Q201.1719,782.6563 201.3594,782.5469 Q201.5469,782.4375 201.7656,782.4375 Q202.1406,782.4375 202.375,782.7031 Q202.6094,782.9531 202.6094,783.5625 L202.6094,785.0156 Q202.6094,785.625 202.375,785.8906 Q202.1406,786.1563 201.7656,786.1563 Q201.4219,786.1563 201.2188,785.9531 Q201.0156,785.7656 200.9063,785.25 Q200.8594,784.8906 200.6719,784.7031 Q200.3438,784.3281 199.7344,784.1094 Q199.125,783.8906 198.5,783.8906 Q197.7344,783.8906 197.0938,784.2188 Q196.4688,784.5469 195.9688,785.2969 Q195.4844,786.0469 195.4844,787.0781 L195.4844,788.1719 Q195.4844,789.4063 196.375,790.2344 Q197.2656,791.0469 198.8594,791.0469 Q199.7969,791.0469 200.4531,790.7969 Q200.8438,790.6406 201.2656,790.2031 Q201.5313,789.9375 201.6719,789.8594 Q201.8281,789.7813 202.0313,789.7813 Q202.3594,789.7813 202.6094,790.0469 Q202.875,790.2969 202.875,790.6406 Q202.875,790.9844 202.5313,791.3906 Q202.0313,791.9688 201.2344,792.2969 Q200.1563,792.75 198.8594,792.75 Q197.3438,792.75 196.1406,792.125 Q195.1563,791.625 194.4688,790.5625 Q193.7813,789.4844 193.7813,788.2031 L193.7813,787.0469 Q193.7813,785.7188 194.3906,784.5781 Q195.0156,783.4219 196.1094,782.8125 Q197.2031,782.1875 198.4375,782.1875 Q199.1719,782.1875 199.8125,782.3594 Q200.4688,782.5156 201.0156,782.875 Z " fill="#000000"/><text fill="#000000" font-family="sans-serif" font-size="14" lengthAdjust="spacing" textLength="97" x="218.75" y="792.7285">DatabaseTable</text><line style="stroke:#181818;stroke-width:0.5;" x1="105" x2="397" y1="803" y2="803"/><text fill="#000000" font-family="sans-serif" font-size="14" lengthAdjust="spacing" textLength="35" x="110" y="821.5332">id: str</text><text fill="#000000" font-family="sans-serif" font-size="14" lengthAdjust="spacing" textLength="59" x="110" y="839.1426">name: str</text><text fill="#000000" font-family="sans-serif" font-size="14" lengthAdjust="spacing" textLength="158" x="110" y="856.752">fields: list[DatabaseField]</text><line style="stroke:#181818;stroke-width:0.5;" x1="105" x2="397" y1="863.8281" y2="863.8281"/><text fill="#000000" font-family="sans-serif" font-size="14" lengthAdjust="spacing" textLength="282" x="110" y="882.3613">__init__(name, fields=None): DatabaseTable</text><text fill="#000000" font-family="sans-serif" font-size="14" lengthAdjust="spacing" textLength="232" x="110" y="899.9707">addField(field: DatabaseField): None</text><text fill="#000000" font-family="sans-serif" font-size="14" lengthAdjust="spacing" textLength="90" x="110" y="917.5801">getName(): str</text><text fill="#000000" font-family="sans-serif" font-size="14" lengthAdjust="spacing" textLength="193" x="110" y="935.1895">getFields(): list[DatabaseField]</text><text fill="#000000" font-family="sans-serif" font-size="14" lengthAdjust="spacing" textLength="201" x="110" y="952.7988">run(controls: list[Control]): None</text></g><!--class DatabaseSchema--><g id="elem_DatabaseSchema"><rect codeLine="78" fill="#F1F1F1" height="206.4844" id="DatabaseSchema" rx="2.5" ry="2.5" style="stroke:#181818;stroke-width:0.5;" width="314" x="94" y="505"/><ellipse cx="190.75" cy="521" fill="#ADD1B2" rx="11" ry="11" style="stroke:#181818;stroke-width:1.0;"/><path d="M193.5156,516.875 Q193.6719,516.6563 193.8594,516.5469 Q194.0469,516.4375 194.2656,516.4375 Q194.6406,516.4375 194.875,516.7031 Q195.1094,516.9531 195.1094,517.5625 L195.1094,519.0156 Q195.1094,519.625 194.875,519.8906 Q194.6406,520.1563 194.2656,520.1563 Q193.9219,520.1563 193.7188,519.9531 Q193.5156,519.7656 193.4063,519.25 Q193.3594,518.8906 193.1719,518.7031 Q192.8438,518.3281 192.2344,518.1094 Q191.625,517.8906 191,517.8906 Q190.2344,517.8906 189.5938,518.2188 Q188.9688,518.5469 188.4688,519.2969 Q187.9844,520.0469 187.9844,521.0781 L187.9844,522.1719 Q187.9844,523.4063 188.875,524.2344 Q189.7656,525.0469 191.3594,525.0469 Q192.2969,525.0469 192.9531,524.7969 Q193.3438,524.6406 193.7656,524.2031 Q194.0313,523.9375 194.1719,523.8594 Q194.3281,523.7813 194.5313,523.7813 Q194.8594,523.7813 195.1094,524.0469 Q195.375,524.2969 195.375,524.6406 Q195.375,524.9844 195.0313,525.3906 Q194.5313,525.9688 193.7344,526.2969 Q192.6563,526.75 191.3594,526.75 Q189.8438,526.75 188.6406,526.125 Q187.6563,525.625 186.9688,524.5625 Q186.2813,523.4844 186.2813,522.2031 L186.2813,521.0469 Q186.2813,519.7188 186.8906,518.5781 Q187.5156,517.4219 188.6094,516.8125 Q189.7031,516.1875 190.9375,516.1875 Q191.6719,516.1875 192.3125,516.3594 Q192.9688,516.5156 193.5156,516.875 Z " fill="#000000"/><text fill="#000000" font-family="sans-serif" font-size="14" lengthAdjust="spacing" textLength="112" x="211.25" y="526.7285">DatabaseSchema</text><line style="stroke:#181818;stroke-width:0.5;" x1="95" x2="407" y1="537" y2="537"/><text fill="#000000" font-family="sans-serif" font-size="14" lengthAdjust="spacing" textLength="34" x="100" y="555.5332">id: int</text><text fill="#000000" font-family="sans-serif" font-size="14" lengthAdjust="spacing" textLength="59" x="100" y="573.1426">name: str</text><text fill="#000000" font-family="sans-serif" font-size="14" lengthAdjust="spacing" textLength="168" x="100" y="590.752">tables: list[DatabaseTable]</text><line style="stroke:#181818;stroke-width:0.5;" x1="95" x2="407" y1="597.8281" y2="597.8281"/><text fill="#000000" font-family="sans-serif" font-size="14" lengthAdjust="spacing" textLength="302" x="100" y="616.3613">__init__(name, tables=None): DatabaseSchema</text><text fill="#000000" font-family="sans-serif" font-size="14" lengthAdjust="spacing" textLength="90" x="100" y="633.9707">getName(): str</text><text fill="#000000" font-family="sans-serif" font-size="14" lengthAdjust="spacing" textLength="247" x="100" y="651.5801">addTable(table: DatabaseTable): None</text><text fill="#000000" font-family="sans-serif" font-size="14" lengthAdjust="spacing" textLength="203" x="100" y="669.1895">getTables(): list[DatabaseTable]</text><text fill="#000000" font-family="sans-serif" font-size="14" lengthAdjust="spacing" textLength="271" x="100" y="686.7988">getOrAddTable(name: str): DatabaseTable</text><text fill="#000000" font-family="sans-serif" font-size="14" lengthAdjust="spacing" textLength="201" x="100" y="704.4082">run(controls: list[Control]): None</text></g><!--class ControlAffectedTag--><g id="elem_ControlAffectedTag"><rect codeLine="115" fill="#F1F1F1" height="118.4375" id="ControlAffectedTag" rx="2.5" ry="2.5" style="stroke:#181818;stroke-width:0.5;" width="506" x="719" y="1357.5"/><ellipse cx="906.25" cy="1373.5" fill="#ADD1B2" rx="11" ry="11" style="stroke:#181818;stroke-width:1.0;"/><path d="M909.0156,1369.375 Q909.1719,1369.1563 909.3594,1369.0469 Q909.5469,1368.9375 909.7656,1368.9375 Q910.1406,1368.9375 910.375,1369.2031 Q910.6094,1369.4531 910.6094,1370.0625 L910.6094,1371.5156 Q910.6094,1372.125 910.375,1372.3906 Q910.1406,1372.6563 909.7656,1372.6563 Q909.4219,1372.6563 909.2188,1372.4531 Q909.0156,1372.2656 908.9063,1371.75 Q908.8594,1371.3906 908.6719,1371.2031 Q908.3438,1370.8281 907.7344,1370.6094 Q907.125,1370.3906 906.5,1370.3906 Q905.7344,1370.3906 905.0938,1370.7188 Q904.4688,1371.0469 903.9688,1371.7969 Q903.4844,1372.5469 903.4844,1373.5781 L903.4844,1374.6719 Q903.4844,1375.9063 904.375,1376.7344 Q905.2656,1377.5469 906.8594,1377.5469 Q907.7969,1377.5469 908.4531,1377.2969 Q908.8438,1377.1406 909.2656,1376.7031 Q909.5313,1376.4375 909.6719,1376.3594 Q909.8281,1376.2813 910.0313,1376.2813 Q910.3594,1376.2813 910.6094,1376.5469 Q910.875,1376.7969 910.875,1377.1406 Q910.875,1377.4844 910.5313,1377.8906 Q910.0313,1378.4688 909.2344,1378.7969 Q908.1563,1379.25 906.8594,1379.25 Q905.3438,1379.25 904.1406,1378.625 Q903.1563,1378.125 902.4688,1377.0625 Q901.7813,1375.9844 901.7813,1374.7031 L901.7813,1373.5469 Q901.7813,1372.2188 902.3906,1371.0781 Q903.0156,1369.9219 904.1094,1369.3125 Q905.2031,1368.6875 906.4375,1368.6875 Q907.1719,1368.6875 907.8125,1368.8594 Q908.4688,1369.0156 909.0156,1369.375 Z " fill="#000000"/><text fill="#000000" font-family="sans-serif" font-size="14" lengthAdjust="spacing" textLength="123" x="926.75" y="1379.2285">ControlAffectedTag</text><line style="stroke:#181818;stroke-width:0.5;" x1="720" x2="1224" y1="1389.5" y2="1389.5"/><text fill="#000000" font-family="sans-serif" font-size="14" lengthAdjust="spacing" textLength="34" x="725" y="1408.0332">id: int</text><text fill="#000000" font-family="sans-serif" font-size="14" lengthAdjust="spacing" textLength="97" x="725" y="1425.6426">control: Control</text><text fill="#000000" font-family="sans-serif" font-size="14" lengthAdjust="spacing" textLength="115" x="725" y="1443.252">tag: DataTypeTag</text><line style="stroke:#181818;stroke-width:0.5;" x1="720" x2="1224" y1="1450.3281" y2="1450.3281"/><text fill="#000000" font-family="sans-serif" font-size="14" lengthAdjust="spacing" textLength="494" x="725" y="1468.8613">__init__(control: Control, tag: DataTypeTag, affectedScoreBy: int): ControlTag</text></g><!--class Control--><g id="elem_Control"><rect codeLine="124" fill="#F1F1F1" height="224.0938" id="Control" rx="2.5" ry="2.5" style="stroke:#181818;stroke-width:0.5;" width="528" x="1384" y="1029"/><ellipse cx="1620.75" cy="1045" fill="#A9DCDF" rx="11" ry="11" style="stroke:#181818;stroke-width:1.0;"/><path d="M1622.9375,1046.7656 L1618.7969,1046.7656 L1618.375,1047.7969 L1618.7969,1047.7969 Q1619.4063,1047.7969 1619.6719,1048.0313 Q1619.9375,1048.2656 1619.9375,1048.6563 Q1619.9375,1049.0313 1619.6719,1049.2656 Q1619.4063,1049.5 1618.7969,1049.5 L1616.5,1049.5 Q1615.8906,1049.5 1615.6406,1049.2656 Q1615.375,1049.0313 1615.375,1048.6406 Q1615.375,1048.2656 1615.6563,1048.0313 Q1615.9219,1047.7813 1616.5469,1047.7969 L1619.2188,1041.1406 L1618.1094,1041.1406 Q1617.5,1041.1406 1617.2344,1040.9063 Q1616.9688,1040.6719 1616.9688,1040.2813 Q1616.9688,1039.9063 1617.2344,1039.6719 Q1617.5,1039.4375 1618.1094,1039.4375 L1621.7813,1039.4375 L1625.1719,1047.7969 Q1625.7656,1047.7969 1625.9531,1047.9375 Q1626.3438,1048.2031 1626.3438,1048.6563 Q1626.3438,1049.0313 1626.0781,1049.2656 Q1625.8281,1049.5 1625.2188,1049.5 L1622.9219,1049.5 Q1622.3125,1049.5 1622.0469,1049.2656 Q1621.7813,1049.0313 1621.7813,1048.6406 Q1621.7813,1048.2656 1622.0469,1048.0313 Q1622.3125,1047.7969 1622.9219,1047.7969 L1623.3438,1047.7969 L1622.9375,1046.7656 Z M1622.2188,1045.0625 L1620.8594,1041.6875 L1619.4844,1045.0625 L1622.2188,1045.0625 Z " fill="#000000"/><text fill="#000000" font-family="sans-serif" font-size="14" font-style="italic" lengthAdjust="spacing" textLength="46" x="1641.25" y="1050.7285">Control</text><line style="stroke:#181818;stroke-width:0.5;" x1="1385" x2="1911" y1="1061" y2="1061"/><text fill="#000000" font-family="sans-serif" font-size="14" lengthAdjust="spacing" textLength="34" x="1390" y="1079.5332">id: int</text><text fill="#000000" font-family="sans-serif" font-size="14" lengthAdjust="spacing" textLength="59" x="1390" y="1097.1426">name: str</text><text fill="#000000" font-family="sans-serif" font-size="14" lengthAdjust="spacing" textLength="82" x="1390" y="1114.752">raw_data: str</text><text fill="#000000" font-family="sans-serif" font-size="14" lengthAdjust="spacing" textLength="239" x="1390" y="1132.3613">affectedTags: list[ControlAffectedTag]</text><text fill="#000000" font-family="sans-serif" font-size="14" lengthAdjust="spacing" textLength="162" x="1390" y="1149.9707">createdBy: Optional[User]</text><text fill="#000000" font-family="sans-serif" font-size="14" lengthAdjust="spacing" textLength="130" x="1390" y="1167.5801">created_at: datetime</text><line style="stroke:#181818;stroke-width:0.5;" x1="1385" x2="1911" y1="1174.6563" y2="1174.6563"/><text fill="#000000" font-family="sans-serif" font-size="14" lengthAdjust="spacing" textLength="516" x="1390" y="1193.1895">__init__(name: str, affectedTags: dict[DataTypeTag, int], createdBy: User = None)</text><text fill="#000000" font-family="sans-serif" font-size="14" lengthAdjust="spacing" textLength="297" x="1390" y="1210.7988">__conditionMatches(field: DatabaseField): bool</text><text fill="#000000" font-family="sans-serif" font-size="14" lengthAdjust="spacing" textLength="146" x="1390" y="1228.4082">getData(): dict[str, Any]</text><text fill="#000000" font-family="sans-serif" font-size="14" lengthAdjust="spacing" textLength="245" x="1390" y="1246.0176">executeOn(field: DatabaseField): None</text></g><!--class RegExOnFieldNameControl--><g id="elem_RegExOnFieldNameControl"><rect codeLine="139" fill="#F1F1F1" height="83.2188" id="RegExOnFieldNameControl" rx="2.5" ry="2.5" style="stroke:#181818;stroke-width:0.5;" width="776" x="1260" y="1375"/><ellipse cx="1557.25" cy="1391" fill="#ADD1B2" rx="11" ry="11" style="stroke:#181818;stroke-width:1.0;"/><path d="M1560.0156,1386.875 Q1560.1719,1386.6563 1560.3594,1386.5469 Q1560.5469,1386.4375 1560.7656,1386.4375 Q1561.1406,1386.4375 1561.375,1386.7031 Q1561.6094,1386.9531 1561.6094,1387.5625 L1561.6094,1389.0156 Q1561.6094,1389.625 1561.375,1389.8906 Q1561.1406,1390.1563 1560.7656,1390.1563 Q1560.4219,1390.1563 1560.2188,1389.9531 Q1560.0156,1389.7656 1559.9063,1389.25 Q1559.8594,1388.8906 1559.6719,1388.7031 Q1559.3438,1388.3281 1558.7344,1388.1094 Q1558.125,1387.8906 1557.5,1387.8906 Q1556.7344,1387.8906 1556.0938,1388.2188 Q1555.4688,1388.5469 1554.9688,1389.2969 Q1554.4844,1390.0469 1554.4844,1391.0781 L1554.4844,1392.1719 Q1554.4844,1393.4063 1555.375,1394.2344 Q1556.2656,1395.0469 1557.8594,1395.0469 Q1558.7969,1395.0469 1559.4531,1394.7969 Q1559.8438,1394.6406 1560.2656,1394.2031 Q1560.5313,1393.9375 1560.6719,1393.8594 Q1560.8281,1393.7813 1561.0313,1393.7813 Q1561.3594,1393.7813 1561.6094,1394.0469 Q1561.875,1394.2969 1561.875,1394.6406 Q1561.875,1394.9844 1561.5313,1395.3906 Q1561.0313,1395.9688 1560.2344,1396.2969 Q1559.1563,1396.75 1557.8594,1396.75 Q1556.3438,1396.75 1555.1406,1396.125 Q1554.1563,1395.625 1553.4688,1394.5625 Q1552.7813,1393.4844 1552.7813,1392.2031 L1552.7813,1391.0469 Q1552.7813,1389.7188 1553.3906,1388.5781 Q1554.0156,1387.4219 1555.1094,1386.8125 Q1556.2031,1386.1875 1557.4375,1386.1875 Q1558.1719,1386.1875 1558.8125,1386.3594 Q1559.4688,1386.5156 1560.0156,1386.875 Z " fill="#000000"/><text fill="#000000" font-family="sans-serif" font-size="14" lengthAdjust="spacing" textLength="173" x="1577.75" y="1396.7285">RegExOnFieldNameControl</text><line style="stroke:#181818;stroke-width:0.5;" x1="1261" x2="2035" y1="1407" y2="1407"/><line style="stroke:#181818;stroke-width:0.5;" x1="1261" x2="2035" y1="1415" y2="1415"/><text fill="#000000" font-family="sans-serif" font-size="14" lengthAdjust="spacing" textLength="764" x="1266" y="1433.5332">__init__(name: str, affectedTags: dict[DataTypeTag, int], regex :str, createdBy: User = None): RegExOnFieldNameControl</text><text fill="#000000" font-family="sans-serif" font-size="14" lengthAdjust="spacing" textLength="95" x="1266" y="1451.1426">getRegEx(): str</text></g><!--class RegExOnSampledDataControl--><g id="elem_RegExOnSampledDataControl"><rect codeLine="144" fill="#F1F1F1" height="83.2188" id="RegExOnSampledDataControl" rx="2.5" ry="2.5" style="stroke:#181818;stroke-width:0.5;" width="794" x="2071" y="1375"/><ellipse cx="2368.25" cy="1391" fill="#ADD1B2" rx="11" ry="11" style="stroke:#181818;stroke-width:1.0;"/><path d="M2371.0156,1386.875 Q2371.1719,1386.6563 2371.3594,1386.5469 Q2371.5469,1386.4375 2371.7656,1386.4375 Q2372.1406,1386.4375 2372.375,1386.7031 Q2372.6094,1386.9531 2372.6094,1387.5625 L2372.6094,1389.0156 Q2372.6094,1389.625 2372.375,1389.8906 Q2372.1406,1390.1563 2371.7656,1390.1563 Q2371.4219,1390.1563 2371.2188,1389.9531 Q2371.0156,1389.7656 2370.9063,1389.25 Q2370.8594,1388.8906 2370.6719,1388.7031 Q2370.3438,1388.3281 2369.7344,1388.1094 Q2369.125,1387.8906 2368.5,1387.8906 Q2367.7344,1387.8906 2367.0938,1388.2188 Q2366.4688,1388.5469 2365.9688,1389.2969 Q2365.4844,1390.0469 2365.4844,1391.0781 L2365.4844,1392.1719 Q2365.4844,1393.4063 2366.375,1394.2344 Q2367.2656,1395.0469 2368.8594,1395.0469 Q2369.7969,1395.0469 2370.4531,1394.7969 Q2370.8438,1394.6406 2371.2656,1394.2031 Q2371.5313,1393.9375 2371.6719,1393.8594 Q2371.8281,1393.7813 2372.0313,1393.7813 Q2372.3594,1393.7813 2372.6094,1394.0469 Q2372.875,1394.2969 2372.875,1394.6406 Q2372.875,1394.9844 2372.5313,1395.3906 Q2372.0313,1395.9688 2371.2344,1396.2969 Q2370.1563,1396.75 2368.8594,1396.75 Q2367.3438,1396.75 2366.1406,1396.125 Q2365.1563,1395.625 2364.4688,1394.5625 Q2363.7813,1393.4844 2363.7813,1392.2031 L2363.7813,1391.0469 Q2363.7813,1389.7188 2364.3906,1388.5781 Q2365.0156,1387.4219 2366.1094,1386.8125 Q2367.2031,1386.1875 2368.4375,1386.1875 Q2369.1719,1386.1875 2369.8125,1386.3594 Q2370.4688,1386.5156 2371.0156,1386.875 Z " fill="#000000"/><text fill="#000000" font-family="sans-serif" font-size="14" lengthAdjust="spacing" textLength="191" x="2388.75" y="1396.7285">RegExOnSampledDataControl</text><line style="stroke:#181818;stroke-width:0.5;" x1="2072" x2="2864" y1="1407" y2="1407"/><line style="stroke:#181818;stroke-width:0.5;" x1="2072" x2="2864" y1="1415" y2="1415"/><text fill="#000000" font-family="sans-serif" font-size="14" lengthAdjust="spacing" textLength="782" x="2077" y="1433.5332">__init__(name: str, affectedTags: dict[DataTypeTag, int], regex :str, createdBy: User = None): RegExOnSampledDataControl</text><text fill="#000000" font-family="sans-serif" font-size="14" lengthAdjust="spacing" textLength="95" x="2077" y="1451.1426">getRegEx(): str</text></g><!--link DatabaseMetadataAdapter to ScanResult--><g id="link_DatabaseMetadataAdapter_ScanResult"><path codeLine="14" d="M387.51,196.23 C370.13,215.75 355.801,231.8399 338.421,251.3499 " fill="none" id="DatabaseMetadataAdapter-to-ScanResult" style="stroke:#181818;stroke-width:1.0;"/><polygon fill="#181818" points="334.43,255.83,343.4033,251.7705,337.7559,252.0965,337.4298,246.4491,334.43,255.83" style="stroke:#181818;stroke-width:1.0;"/><text fill="#000000" font-family="sans-serif" font-size="13" lengthAdjust="spacing" textLength="5" x="335.8791" y="245.1626">*</text></g><!--reverse link DatabaseMetadataAdapter to MySQLDatabaseMetadataAdapter--><g id="link_DatabaseMetadataAdapter_MySQLDatabaseMetadataAdapter"><path d="M566.4593,209.6738 C586.5093,232.1938 595.85,242.67 615.52,264.76 " fill="none" id="DatabaseMetadataAdapter-backto-MySQLDatabaseMetadataAdapter" style="stroke:#181818;stroke-width:1.0;"/><polygon fill="none" points="554.49,196.23,561.978,213.6636,570.9406,205.684,554.49,196.23" style="stroke:#181818;stroke-width:1.0;"/></g><!--link FieldTag to DataTypeTag--><g id="link_FieldTag_DataTypeTag"><path codeLine="45" d="M508.48,1484.81 C540.34,1511.79 572.6312,1539.1425 605.4712,1566.9525 " fill="none" id="FieldTag-to-DataTypeTag" style="stroke:#181818;stroke-width:1.0;"/><polygon fill="#181818" points="610.05,1570.83,605.7668,1561.9613,606.2343,1567.5988,600.5968,1568.0663,610.05,1570.83" style="stroke:#181818;stroke-width:1.0;"/></g><!--link DatabaseField to FieldDataTypes--><g id="link_DatabaseField_FieldDataTypes"><path codeLine="62" d="M172.67,1262.36 C159.7,1282.28 149.7016,1297.6404 137.2516,1316.7804 " fill="none" id="DatabaseField-to-FieldDataTypes" style="stroke:#181818;stroke-width:1.0;"/><polygon fill="#181818" points="133.98,1321.81,142.2404,1316.4467,136.7063,1317.6187,135.5343,1312.0846,133.98,1321.81" style="stroke:#181818;stroke-width:1.0;"/></g><!--link DatabaseField to FieldTag--><g id="link_DatabaseField_FieldTag"><path codeLine="63" d="M329.33,1262.36 C348.55,1291.88 365.1569,1317.4114 382.0669,1343.3914 " fill="none" id="DatabaseField-to-FieldTag" style="stroke:#181818;stroke-width:1.0;"/><polygon fill="#181818" points="385.34,1348.42,383.7828,1338.695,382.6125,1344.2295,377.078,1343.0591,385.34,1348.42" style="stroke:#181818;stroke-width:1.0;"/><text fill="#000000" font-family="sans-serif" font-size="13" lengthAdjust="spacing" textLength="5" x="375.2913" y="1337.6105">*</text></g><!--link DatabaseTable to DatabaseField--><g id="link_DatabaseTable_DatabaseField"><path codeLine="76" d="M251,960.24 C251,979.42 251,993.85 251,1013.8 " fill="none" id="DatabaseTable-to-DatabaseField" style="stroke:#181818;stroke-width:1.0;"/><polygon fill="#181818" points="251,1019.8,255,1010.8,251,1014.8,247,1010.8,251,1019.8" style="stroke:#181818;stroke-width:1.0;"/><text fill="#000000" font-family="sans-serif" font-size="13" lengthAdjust="spacing" textLength="5" x="245.8398" y="1009.039">*</text></g><!--link DatabaseSchema to DatabaseTable--><g id="link_DatabaseSchema_DatabaseTable"><path codeLine="90" d="M251,711.08 C251,730.82 251,745.41 251,764.86 " fill="none" id="DatabaseSchema-to-DatabaseTable" style="stroke:#181818;stroke-width:1.0;"/><polygon fill="#181818" points="251,770.86,255,761.86,251,765.86,247,761.86,251,770.86" style="stroke:#181818;stroke-width:1.0;"/><text fill="#000000" font-family="sans-serif" font-size="13" lengthAdjust="spacing" textLength="5" x="245.8008" y="760.195">*</text></g><!--link ScanResult to DatabaseSchema--><g id="link_ScanResult_DatabaseSchema"><path codeLine="103" d="M251,445.19 C251,464.56 251,479.05 251,498.71 " fill="none" id="ScanResult-to-DatabaseSchema" style="stroke:#181818;stroke-width:1.0;"/><polygon fill="#181818" points="251,504.71,255,495.71,251,499.71,247,495.71,251,504.71" style="stroke:#181818;stroke-width:1.0;"/><text fill="#000000" font-family="sans-serif" font-size="13" lengthAdjust="spacing" textLength="5" x="245.8164" y="494.0274">*</text></g><!--link ControlAffectedTag to DataTypeTag--><g id="link_ControlAffectedTag_DataTypeTag"><path codeLine="122" d="M903.01,1475.71 C868.78,1504.59 831.5862,1535.9813 794.8362,1566.9813 " fill="none" id="ControlAffectedTag-to-DataTypeTag" style="stroke:#181818;stroke-width:1.0;"/><polygon fill="#181818" points="790.25,1570.85,799.7084,1568.1045,794.0719,1567.6261,794.5502,1561.9895,790.25,1570.85" style="stroke:#181818;stroke-width:1.0;"/></g><!--link Control to ControlAffectedTag--><g id="link_Control_ControlAffectedTag"><path codeLine="137" d="M1383.74,1248.92 C1292.46,1285.85 1199.1919,1323.5793 1121.2519,1355.1193 " fill="none" id="Control-to-ControlAffectedTag" style="stroke:#181818;stroke-width:1.0;"/><polygon fill="#181818" points="1115.69,1357.37,1125.5333,1357.7018,1120.3249,1355.4944,1122.5323,1350.286,1115.69,1357.37" style="stroke:#181818;stroke-width:1.0;"/><text fill="#000000" font-family="sans-serif" font-size="13" lengthAdjust="spacing" textLength="5" x="1127.8975" y="1346.6784">*</text></g><!--reverse link Control to RegExOnFieldNameControl--><g id="link_Control_RegExOnFieldNameControl"><path d="M1648,1271.24 C1648,1314.28 1648,1342.81 1648,1374.96 " fill="none" id="Control-backto-RegExOnFieldNameControl" style="stroke:#181818;stroke-width:1.0;"/><polygon fill="none" points="1648,1253.24,1642,1271.24,1654,1271.24,1648,1253.24" style="stroke:#181818;stroke-width:1.0;"/></g><!--reverse link Control to RegExOnSampledDataControl--><g id="link_Control_RegExOnSampledDataControl"><path d="M1929.3255,1235.8346 C2075.2655,1284.5046 2232.45,1336.93 2346.43,1374.95 " fill="none" id="Control-backto-RegExOnSampledDataControl" style="stroke:#181818;stroke-width:1.0;"/><polygon fill="none" points="1912.25,1230.14,1927.4273,1241.5264,1931.2237,1230.1427,1912.25,1230.14" style="stroke:#181818;stroke-width:1.0;"/></g><!--SRC=[pLPRQzim57xFhn1zIeSBUpPqaBPP2JG9YpF6AC4ezabgSEnKaccpqVy-wKYoBTbUkh67vKcnpkKxtxc9RhbWD14aoIddv8uAkgKSvY1eAi-Jb1u5i9yZ8dzP6fAi47Zc2IruIFACYyT8dbV0grniy2vXG0MaDwUGB8yYAmkQFtxbm3OZl8xZhCX478zRSkhwUb4MS5bRZmIh4b4n62iW4JqSSuYo7t3zyJ8aZKkKtu58dhG8zyGHSa2ujHOYP1jdb3p1WMu2abICbqnQLY3GPWexiWVnGBbGtiPThwmgRij2i3BdowAMIymdGuwHs5ZJRwC1ZidLrIToyU6YxMMaip8_HLyUXjJWLK2HdadTKyb5g4Z0VyUIYIQLbUI-e0TetKkdBoLBzHVyT3ZnvtnzEW9Vbv6WHKeP_Wj9cYNYKSe5v7C6UQfWuCt6JRP24A3deFOOr9u2qbyCRwCH5DN1CwrZYjQhsU8UZxF5Ude_NU7vRdexcqyUy7opN3vC9mjzdYqcg-zuNC_cKoqxMJS7_FfcEKUFQxflIj-oirCtOSqt2kA5e7lzMO6KghePW4cwn2dcISbqDNfjq6Slw1WB-Yp9eh8u9N9xn4fgunYvpOrotPPsQq18tT3ZtKPfQziwrAbk-ivSJugJt_ArZw3NmMKVhR895r9DDQ059pyjsIHLliS-KMrEiBoF4XZqISgfq6QoxdpPr-Uws82ugqF-becdiXBgaYka3G6oefoOC3iUhrq1DGZgCBpyhUasXsvTkld3ghBm7VjzEGcCl6wxq7M5uZHDKRktN3rQUjA5OWqp7g1tijxCJiHL4-NMZCUM7l5dorqPzEb2B_rqQNcVBkrhY0Qg2bQgZL7P8zcZ4Bzr-JA8t1vG9kjeUfFtHzpg83haQck6t6P7dICMNY6fv62Foo9K8m94TW2pv9KVdtEpaUk9ehw5GyjD1mVF5V3tF3ZEsklTyKFC1QxdPclLZ3QsEcoQIcdLgXbABJxJ7ZfJu0dBCCXMiFBstDEhTHjJqKh5u81sNCal6Dp0edRtNhr43LMJtGuIgUE6Pyh5i1jQuVvLwhqSFPs-TKcDqqZDU8LMJtcZeM5syNLt9tLVo4RbNDap-XAhmcfrV-F4gwIM-t-VHTSjFjOScYJyJIUfv9eqZ_4ubdIdcS8nf_ATBSVIm0xObYPzPZMgyTKy3t4RjaR2ilZjBgcpK_TEbovRPolOJr-N1UghgMirxTlOIThViyHW3wyaH8q1ni8XB9ONlBPRuSqBGByby67m7uJGHJCKn2y0]--></g></svg>