<?xml version="1.0" encoding="us-ascii" standalone="no"?><svg xmlns="http://www.w3.org/2000/svg" xmlns:xlink="http://www.w3.org/1999/xlink" contentStyleType="text/css" height="986px" preserveAspectRatio="none" style="width:1942px;height:986px;background:#FFFFFF;" version="1.1" viewBox="0 0 1942 986" width="1942px" zoomAndPan="magnify"><defs/><g><!--class DatabaseMetadataAdapter--><g id="elem_DatabaseMetadataAdapter"><rect codeLine="3" fill="#F1F1F1" height="100.8281" id="DatabaseMetadataAdapter" rx="2.5" ry="2.5" style="stroke:#181818;stroke-width:0.5;" width="362" x="7" y="68.5"/><ellipse cx="98.25" cy="84.5" fill="#A9DCDF" rx="11" ry="11" style="stroke:#181818;stroke-width:1.0;"/><path d="M100.4375,86.2656 L96.2969,86.2656 L95.875,87.2969 L96.2969,87.2969 Q96.9063,87.2969 97.1719,87.5313 Q97.4375,87.7656 97.4375,88.1563 Q97.4375,88.5313 97.1719,88.7656 Q96.9063,89 96.2969,89 L94,89 Q93.3906,89 93.1406,88.7656 Q92.875,88.5313 92.875,88.1406 Q92.875,87.7656 93.1563,87.5313 Q93.4219,87.2813 94.0469,87.2969 L96.7188,80.6406 L95.6094,80.6406 Q95,80.6406 94.7344,80.4063 Q94.4688,80.1719 94.4688,79.7813 Q94.4688,79.4063 94.7344,79.1719 Q95,78.9375 95.6094,78.9375 L99.2813,78.9375 L102.6719,87.2969 Q103.2656,87.2969 103.4531,87.4375 Q103.8438,87.7031 103.8438,88.1563 Q103.8438,88.5313 103.5781,88.7656 Q103.3281,89 102.7188,89 L100.4219,89 Q99.8125,89 99.5469,88.7656 Q99.2813,88.5313 99.2813,88.1406 Q99.2813,87.7656 99.5469,87.5313 Q99.8125,87.2969 100.4219,87.2969 L100.8438,87.2969 L100.4375,86.2656 Z M99.7188,84.5625 L98.3594,81.1875 L96.9844,84.5625 L99.7188,84.5625 Z " fill="#000000"/><text fill="#000000" font-family="sans-serif" font-size="14" font-style="italic" lengthAdjust="spacing" textLength="171" x="118.75" y="90.2285">DatabaseMetadataAdapter</text><line style="stroke:#181818;stroke-width:0.5;" x1="8" x2="368" y1="100.5" y2="100.5"/><text fill="#000000" font-family="sans-serif" font-size="14" lengthAdjust="spacing" textLength="34" x="13" y="119.0332">id: int</text><text fill="#000000" font-family="sans-serif" font-size="14" lengthAdjust="spacing" textLength="201" x="13" y="136.6426">schemas: list[DatabaseSchema]</text><line style="stroke:#181818;stroke-width:0.5;" x1="8" x2="368" y1="143.7188" y2="143.7188"/><text fill="#000000" font-family="sans-serif" font-size="14" lengthAdjust="spacing" textLength="350" x="13" y="162.252">getStructure(dataSampleSize=0): list[DatabaseSchema]</text></g><!--class DatabaseSchema--><g id="elem_DatabaseSchema"><rect codeLine="75" fill="#F1F1F1" height="224.0938" id="DatabaseSchema" rx="2.5" ry="2.5" style="stroke:#181818;stroke-width:0.5;" width="314" x="404" y="7"/><ellipse cx="500.75" cy="23" fill="#ADD1B2" rx="11" ry="11" style="stroke:#181818;stroke-width:1.0;"/><path d="M503.5156,18.875 Q503.6719,18.6563 503.8594,18.5469 Q504.0469,18.4375 504.2656,18.4375 Q504.6406,18.4375 504.875,18.7031 Q505.1094,18.9531 505.1094,19.5625 L505.1094,21.0156 Q505.1094,21.625 504.875,21.8906 Q504.6406,22.1563 504.2656,22.1563 Q503.9219,22.1563 503.7188,21.9531 Q503.5156,21.7656 503.4063,21.25 Q503.3594,20.8906 503.1719,20.7031 Q502.8438,20.3281 502.2344,20.1094 Q501.625,19.8906 501,19.8906 Q500.2344,19.8906 499.5938,20.2188 Q498.9688,20.5469 498.4688,21.2969 Q497.9844,22.0469 497.9844,23.0781 L497.9844,24.1719 Q497.9844,25.4063 498.875,26.2344 Q499.7656,27.0469 501.3594,27.0469 Q502.2969,27.0469 502.9531,26.7969 Q503.3438,26.6406 503.7656,26.2031 Q504.0313,25.9375 504.1719,25.8594 Q504.3281,25.7813 504.5313,25.7813 Q504.8594,25.7813 505.1094,26.0469 Q505.375,26.2969 505.375,26.6406 Q505.375,26.9844 505.0313,27.3906 Q504.5313,27.9688 503.7344,28.2969 Q502.6563,28.75 501.3594,28.75 Q499.8438,28.75 498.6406,28.125 Q497.6563,27.625 496.9688,26.5625 Q496.2813,25.4844 496.2813,24.2031 L496.2813,23.0469 Q496.2813,21.7188 496.8906,20.5781 Q497.5156,19.4219 498.6094,18.8125 Q499.7031,18.1875 500.9375,18.1875 Q501.6719,18.1875 502.3125,18.3594 Q502.9688,18.5156 503.5156,18.875 Z " fill="#000000"/><text fill="#000000" font-family="sans-serif" font-size="14" lengthAdjust="spacing" textLength="112" x="521.25" y="28.7285">DatabaseSchema</text><line style="stroke:#181818;stroke-width:0.5;" x1="405" x2="717" y1="39" y2="39"/><text fill="#000000" font-family="sans-serif" font-size="14" lengthAdjust="spacing" textLength="34" x="410" y="57.5332">id: int</text><text fill="#000000" font-family="sans-serif" font-size="14" lengthAdjust="spacing" textLength="59" x="410" y="75.1426">name: str</text><text fill="#000000" font-family="sans-serif" font-size="14" lengthAdjust="spacing" textLength="168" x="410" y="92.752">tables: list[DatabaseTable]</text><text fill="#000000" font-family="sans-serif" font-size="14" lengthAdjust="spacing" textLength="237" x="410" y="110.3613">database: DatabaseMetadataAdapter</text><line style="stroke:#181818;stroke-width:0.5;" x1="405" x2="717" y1="117.4375" y2="117.4375"/><text fill="#000000" font-family="sans-serif" font-size="14" lengthAdjust="spacing" textLength="302" x="410" y="135.9707">__init__(name, tables=None): DatabaseSchema</text><text fill="#000000" font-family="sans-serif" font-size="14" lengthAdjust="spacing" textLength="247" x="410" y="153.5801">addTable(table: DatabaseTable): None</text><text fill="#000000" font-family="sans-serif" font-size="14" lengthAdjust="spacing" textLength="90" x="410" y="171.1895">getName(): str</text><text fill="#000000" font-family="sans-serif" font-size="14" lengthAdjust="spacing" textLength="203" x="410" y="188.7988">getTables(): list[DatabaseTable]</text><text fill="#000000" font-family="sans-serif" font-size="14" lengthAdjust="spacing" textLength="198" x="410" y="206.4082">getLastTable(): DatabaseTable</text><text fill="#000000" font-family="sans-serif" font-size="14" lengthAdjust="spacing" textLength="271" x="410" y="224.0176">getOrAddTable(name: str): DatabaseTable</text></g><!--class MySQLDatabaseMetadataAdapter--><g id="elem_MySQLDatabaseMetadataAdapter"><rect codeLine="11" fill="#F1F1F1" height="171.2656" id="MySQLDatabaseMetadataAdapter" rx="2.5" ry="2.5" style="stroke:#181818;stroke-width:0.5;" width="355" x="10.5" y="300"/><ellipse cx="75.75" cy="316" fill="#ADD1B2" rx="11" ry="11" style="stroke:#181818;stroke-width:1.0;"/><path d="M78.5156,311.875 Q78.6719,311.6563 78.8594,311.5469 Q79.0469,311.4375 79.2656,311.4375 Q79.6406,311.4375 79.875,311.7031 Q80.1094,311.9531 80.1094,312.5625 L80.1094,314.0156 Q80.1094,314.625 79.875,314.8906 Q79.6406,315.1563 79.2656,315.1563 Q78.9219,315.1563 78.7188,314.9531 Q78.5156,314.7656 78.4063,314.25 Q78.3594,313.8906 78.1719,313.7031 Q77.8438,313.3281 77.2344,313.1094 Q76.625,312.8906 76,312.8906 Q75.2344,312.8906 74.5938,313.2188 Q73.9688,313.5469 73.4688,314.2969 Q72.9844,315.0469 72.9844,316.0781 L72.9844,317.1719 Q72.9844,318.4063 73.875,319.2344 Q74.7656,320.0469 76.3594,320.0469 Q77.2969,320.0469 77.9531,319.7969 Q78.3438,319.6406 78.7656,319.2031 Q79.0313,318.9375 79.1719,318.8594 Q79.3281,318.7813 79.5313,318.7813 Q79.8594,318.7813 80.1094,319.0469 Q80.375,319.2969 80.375,319.6406 Q80.375,319.9844 80.0313,320.3906 Q79.5313,320.9688 78.7344,321.2969 Q77.6563,321.75 76.3594,321.75 Q74.8438,321.75 73.6406,321.125 Q72.6563,320.625 71.9688,319.5625 Q71.2813,318.4844 71.2813,317.2031 L71.2813,316.0469 Q71.2813,314.7188 71.8906,313.5781 Q72.5156,312.4219 73.6094,311.8125 Q74.7031,311.1875 75.9375,311.1875 Q76.6719,311.1875 77.3125,311.3594 Q77.9688,311.5156 78.5156,311.875 Z " fill="#000000"/><text fill="#000000" font-family="sans-serif" font-size="14" lengthAdjust="spacing" textLength="216" x="96.25" y="321.7285">MySQLDatabaseMetadataAdapter</text><line style="stroke:#181818;stroke-width:0.5;" x1="11.5" x2="364.5" y1="332" y2="332"/><text fill="#000000" font-family="sans-serif" font-size="14" lengthAdjust="spacing" textLength="51" x="16.5" y="350.5332">host: str</text><text fill="#000000" font-family="sans-serif" font-size="14" lengthAdjust="spacing" textLength="48" x="16.5" y="368.1426">port: int</text><text fill="#000000" font-family="sans-serif" font-size="14" lengthAdjust="spacing" textLength="87" x="16.5" y="385.752">username: str</text><text fill="#000000" font-family="sans-serif" font-size="14" lengthAdjust="spacing" textLength="84" x="16.5" y="403.3613">password: str</text><text fill="#000000" font-family="sans-serif" font-size="14" lengthAdjust="spacing" textLength="4" x="16.5" y="420.9707">&#160;</text><text fill="#000000" font-family="sans-serif" font-size="14" lengthAdjust="spacing" textLength="343" x="16.5" y="438.5801">mysqlTypesToStandarTypes: dict[str, FieldDataTypes]</text><line style="stroke:#181818;stroke-width:0.5;" x1="11.5" x2="364.5" y1="445.6563" y2="445.6563"/><text fill="#000000" font-family="sans-serif" font-size="14" lengthAdjust="spacing" textLength="259" x="16.5" y="464.1895">__init__(host, port, username, password)</text></g><!--class FieldDataTypes--><g id="elem_FieldDataTypes"><rect codeLine="21" fill="#F1F1F1" height="188.875" id="FieldDataTypes" rx="2.5" ry="2.5" style="stroke:#181818;stroke-width:0.5;" width="132" x="1067" y="291"/><ellipse cx="1082" cy="307" fill="#EB937F" rx="11" ry="11" style="stroke:#181818;stroke-width:1.0;"/><path d="M1080.8594,307.7969 L1080.8594,310.2969 L1085.1875,310.2969 L1085.1875,309.375 Q1085.1875,308.7656 1085.4219,308.5 Q1085.6719,308.2344 1086.0469,308.2344 Q1086.4219,308.2344 1086.6563,308.5 Q1086.8906,308.7656 1086.8906,309.375 L1086.8906,312 L1078.8906,312 Q1078.2656,312 1078,311.7656 Q1077.75,311.5313 1077.75,311.1406 Q1077.75,310.7656 1078.0156,310.5313 Q1078.2813,310.2969 1078.8906,310.2969 L1079.1563,310.2969 L1079.1563,303.6406 L1078.8906,303.6406 Q1078.2656,303.6406 1078,303.4063 Q1077.75,303.1719 1077.75,302.7813 Q1077.75,302.4063 1078,302.1719 Q1078.2656,301.9375 1078.8906,301.9375 L1086.5156,301.9375 L1086.5156,304.5313 Q1086.5156,305.1406 1086.2813,305.4063 Q1086.0625,305.6563 1085.6719,305.6563 Q1085.2969,305.6563 1085.0625,305.4063 Q1084.8281,305.1406 1084.8281,304.5313 L1084.8281,303.6406 L1080.8594,303.6406 L1080.8594,306.0938 L1082.3438,306.0938 Q1082.3438,305.4375 1082.4688,305.25 Q1082.7344,304.8438 1083.2031,304.8438 Q1083.5781,304.8438 1083.8125,305.1094 Q1084.0469,305.3594 1084.0469,305.9688 L1084.0469,307.9375 Q1084.0469,308.4844 1083.9219,308.6719 Q1083.6563,309.0625 1083.2031,309.0625 Q1082.7344,309.0625 1082.4688,308.6563 Q1082.3438,308.4688 1082.3438,307.7969 L1080.8594,307.7969 Z " fill="#000000"/><text fill="#000000" font-family="sans-serif" font-size="14" lengthAdjust="spacing" textLength="100" x="1096" y="312.7285">FieldDataTypes</text><line style="stroke:#181818;stroke-width:0.5;" x1="1068" x2="1198" y1="323" y2="323"/><text fill="#000000" font-family="sans-serif" font-size="14" lengthAdjust="spacing" textLength="51" x="1073" y="341.5332">STRING</text><text fill="#000000" font-family="sans-serif" font-size="14" lengthAdjust="spacing" textLength="60" x="1073" y="359.1426">INTEGER</text><text fill="#000000" font-family="sans-serif" font-size="14" lengthAdjust="spacing" textLength="60" x="1073" y="376.752">DECIMAL</text><text fill="#000000" font-family="sans-serif" font-size="14" lengthAdjust="spacing" textLength="66" x="1073" y="394.3613">BOOLEAN</text><text fill="#000000" font-family="sans-serif" font-size="14" lengthAdjust="spacing" textLength="49" x="1073" y="411.9707">BINARY</text><text fill="#000000" font-family="sans-serif" font-size="14" lengthAdjust="spacing" textLength="32" x="1073" y="429.5801">TIME</text><text fill="#000000" font-family="sans-serif" font-size="14" lengthAdjust="spacing" textLength="37" x="1073" y="447.1895">DATE</text><text fill="#000000" font-family="sans-serif" font-size="14" lengthAdjust="spacing" textLength="69" x="1073" y="464.7988">DATETIME</text><line style="stroke:#181818;stroke-width:0.5;" x1="1068" x2="1198" y1="471.875" y2="471.875"/></g><!--class FieldTag--><g id="elem_FieldTag"><rect codeLine="32" fill="#F1F1F1" height="118.4375" id="FieldTag" rx="2.5" ry="2.5" style="stroke:#181818;stroke-width:0.5;" width="138" x="1200" y="540"/><ellipse cx="1237.5" cy="556" fill="#ADD1B2" rx="11" ry="11" style="stroke:#181818;stroke-width:1.0;"/><path d="M1240.2656,551.875 Q1240.4219,551.6563 1240.6094,551.5469 Q1240.7969,551.4375 1241.0156,551.4375 Q1241.3906,551.4375 1241.625,551.7031 Q1241.8594,551.9531 1241.8594,552.5625 L1241.8594,554.0156 Q1241.8594,554.625 1241.625,554.8906 Q1241.3906,555.1563 1241.0156,555.1563 Q1240.6719,555.1563 1240.4688,554.9531 Q1240.2656,554.7656 1240.1563,554.25 Q1240.1094,553.8906 1239.9219,553.7031 Q1239.5938,553.3281 1238.9844,553.1094 Q1238.375,552.8906 1237.75,552.8906 Q1236.9844,552.8906 1236.3438,553.2188 Q1235.7188,553.5469 1235.2188,554.2969 Q1234.7344,555.0469 1234.7344,556.0781 L1234.7344,557.1719 Q1234.7344,558.4063 1235.625,559.2344 Q1236.5156,560.0469 1238.1094,560.0469 Q1239.0469,560.0469 1239.7031,559.7969 Q1240.0938,559.6406 1240.5156,559.2031 Q1240.7813,558.9375 1240.9219,558.8594 Q1241.0781,558.7813 1241.2813,558.7813 Q1241.6094,558.7813 1241.8594,559.0469 Q1242.125,559.2969 1242.125,559.6406 Q1242.125,559.9844 1241.7813,560.3906 Q1241.2813,560.9688 1240.4844,561.2969 Q1239.4063,561.75 1238.1094,561.75 Q1236.5938,561.75 1235.3906,561.125 Q1234.4063,560.625 1233.7188,559.5625 Q1233.0313,558.4844 1233.0313,557.2031 L1233.0313,556.0469 Q1233.0313,554.7188 1233.6406,553.5781 Q1234.2656,552.4219 1235.3594,551.8125 Q1236.4531,551.1875 1237.6875,551.1875 Q1238.4219,551.1875 1239.0625,551.3594 Q1239.7188,551.5156 1240.2656,551.875 Z " fill="#000000"/><text fill="#000000" font-family="sans-serif" font-size="14" lengthAdjust="spacing" textLength="56" x="1256.5" y="561.7285">FieldTag</text><line style="stroke:#181818;stroke-width:0.5;" x1="1201" x2="1337" y1="572" y2="572"/><text fill="#000000" font-family="sans-serif" font-size="14" lengthAdjust="spacing" textLength="35" x="1206" y="590.5332">id: str</text><text fill="#000000" font-family="sans-serif" font-size="14" lengthAdjust="spacing" textLength="126" x="1206" y="608.1426">field: DatabaseField</text><text fill="#000000" font-family="sans-serif" font-size="14" lengthAdjust="spacing" textLength="115" x="1206" y="625.752">tag: DataTypeTag</text><text fill="#000000" font-family="sans-serif" font-size="14" lengthAdjust="spacing" textLength="117" x="1206" y="643.3613">certanty_score: int</text><line style="stroke:#181818;stroke-width:0.5;" x1="1201" x2="1337" y1="650.4375" y2="650.4375"/></g><!--class DatabaseField--><g id="elem_DatabaseField"><rect codeLine="41" fill="#F1F1F1" height="224.0938" id="DatabaseField" rx="2.5" ry="2.5" style="stroke:#181818;stroke-width:0.5;" width="374" x="1082" y="7"/><ellipse cx="1218.75" cy="23" fill="#ADD1B2" rx="11" ry="11" style="stroke:#181818;stroke-width:1.0;"/><path d="M1221.5156,18.875 Q1221.6719,18.6563 1221.8594,18.5469 Q1222.0469,18.4375 1222.2656,18.4375 Q1222.6406,18.4375 1222.875,18.7031 Q1223.1094,18.9531 1223.1094,19.5625 L1223.1094,21.0156 Q1223.1094,21.625 1222.875,21.8906 Q1222.6406,22.1563 1222.2656,22.1563 Q1221.9219,22.1563 1221.7188,21.9531 Q1221.5156,21.7656 1221.4063,21.25 Q1221.3594,20.8906 1221.1719,20.7031 Q1220.8438,20.3281 1220.2344,20.1094 Q1219.625,19.8906 1219,19.8906 Q1218.2344,19.8906 1217.5938,20.2188 Q1216.9688,20.5469 1216.4688,21.2969 Q1215.9844,22.0469 1215.9844,23.0781 L1215.9844,24.1719 Q1215.9844,25.4063 1216.875,26.2344 Q1217.7656,27.0469 1219.3594,27.0469 Q1220.2969,27.0469 1220.9531,26.7969 Q1221.3438,26.6406 1221.7656,26.2031 Q1222.0313,25.9375 1222.1719,25.8594 Q1222.3281,25.7813 1222.5313,25.7813 Q1222.8594,25.7813 1223.1094,26.0469 Q1223.375,26.2969 1223.375,26.6406 Q1223.375,26.9844 1223.0313,27.3906 Q1222.5313,27.9688 1221.7344,28.2969 Q1220.6563,28.75 1219.3594,28.75 Q1217.8438,28.75 1216.6406,28.125 Q1215.6563,27.625 1214.9688,26.5625 Q1214.2813,25.4844 1214.2813,24.2031 L1214.2813,23.0469 Q1214.2813,21.7188 1214.8906,20.5781 Q1215.5156,19.4219 1216.6094,18.8125 Q1217.7031,18.1875 1218.9375,18.1875 Q1219.6719,18.1875 1220.3125,18.3594 Q1220.9688,18.5156 1221.5156,18.875 Z " fill="#000000"/><text fill="#000000" font-family="sans-serif" font-size="14" lengthAdjust="spacing" textLength="92" x="1239.25" y="28.7285">DatabaseField</text><line style="stroke:#181818;stroke-width:0.5;" x1="1083" x2="1455" y1="39" y2="39"/><text fill="#000000" font-family="sans-serif" font-size="14" lengthAdjust="spacing" textLength="34" x="1088" y="57.5332">id: int</text><text fill="#000000" font-family="sans-serif" font-size="14" lengthAdjust="spacing" textLength="59" x="1088" y="75.1426">name: str</text><text fill="#000000" font-family="sans-serif" font-size="14" lengthAdjust="spacing" textLength="135" x="1088" y="92.752">type: FieldDataTypes</text><text fill="#000000" font-family="sans-serif" font-size="14" lengthAdjust="spacing" textLength="136" x="1088" y="110.3613">table: DatabaseTable</text><text fill="#000000" font-family="sans-serif" font-size="14" lengthAdjust="spacing" textLength="116" x="1088" y="127.9707">tags: list[FieldTag]</text><text fill="#000000" font-family="sans-serif" font-size="14" lengthAdjust="spacing" textLength="132" x="1088" y="145.5801">dataSample: list[Any]</text><line style="stroke:#181818;stroke-width:0.5;" x1="1083" x2="1455" y1="152.6563" y2="152.6563"/><text fill="#000000" font-family="sans-serif" font-size="14" lengthAdjust="spacing" textLength="362" x="1088" y="171.1895">__init__(name: str, type: FieldDataTypes): DatabaseField</text><text fill="#000000" font-family="sans-serif" font-size="14" lengthAdjust="spacing" textLength="90" x="1088" y="188.7988">getName(): str</text><text fill="#000000" font-family="sans-serif" font-size="14" lengthAdjust="spacing" textLength="301" x="1088" y="206.4082">updateTag(tag: DataTypeTag, score: int): None</text><text fill="#000000" font-family="sans-serif" font-size="14" lengthAdjust="spacing" textLength="183" x="1088" y="224.0176">removeUnfoundTags(): None</text></g><!--class DataTypeTag--><g id="elem_DataTypeTag"><rect codeLine="91" fill="#F1F1F1" height="136.0469" id="DataTypeTag" rx="2.5" ry="2.5" style="stroke:#181818;stroke-width:0.5;" width="272" x="1339" y="317.5"/><ellipse cx="1427.25" cy="333.5" fill="#ADD1B2" rx="11" ry="11" style="stroke:#181818;stroke-width:1.0;"/><path d="M1430.0156,329.375 Q1430.1719,329.1563 1430.3594,329.0469 Q1430.5469,328.9375 1430.7656,328.9375 Q1431.1406,328.9375 1431.375,329.2031 Q1431.6094,329.4531 1431.6094,330.0625 L1431.6094,331.5156 Q1431.6094,332.125 1431.375,332.3906 Q1431.1406,332.6563 1430.7656,332.6563 Q1430.4219,332.6563 1430.2188,332.4531 Q1430.0156,332.2656 1429.9063,331.75 Q1429.8594,331.3906 1429.6719,331.2031 Q1429.3438,330.8281 1428.7344,330.6094 Q1428.125,330.3906 1427.5,330.3906 Q1426.7344,330.3906 1426.0938,330.7188 Q1425.4688,331.0469 1424.9688,331.7969 Q1424.4844,332.5469 1424.4844,333.5781 L1424.4844,334.6719 Q1424.4844,335.9063 1425.375,336.7344 Q1426.2656,337.5469 1427.8594,337.5469 Q1428.7969,337.5469 1429.4531,337.2969 Q1429.8438,337.1406 1430.2656,336.7031 Q1430.5313,336.4375 1430.6719,336.3594 Q1430.8281,336.2813 1431.0313,336.2813 Q1431.3594,336.2813 1431.6094,336.5469 Q1431.875,336.7969 1431.875,337.1406 Q1431.875,337.4844 1431.5313,337.8906 Q1431.0313,338.4688 1430.2344,338.7969 Q1429.1563,339.25 1427.8594,339.25 Q1426.3438,339.25 1425.1406,338.625 Q1424.1563,338.125 1423.4688,337.0625 Q1422.7813,335.9844 1422.7813,334.7031 L1422.7813,333.5469 Q1422.7813,332.2188 1423.3906,331.0781 Q1424.0156,329.9219 1425.1094,329.3125 Q1426.2031,328.6875 1427.4375,328.6875 Q1428.1719,328.6875 1428.8125,328.8594 Q1429.4688,329.0156 1430.0156,329.375 Z " fill="#000000"/><text fill="#000000" font-family="sans-serif" font-size="14" lengthAdjust="spacing" textLength="87" x="1447.75" y="339.2285">DataTypeTag</text><line style="stroke:#181818;stroke-width:0.5;" x1="1340" x2="1610" y1="349.5" y2="349.5"/><text fill="#000000" font-family="sans-serif" font-size="14" lengthAdjust="spacing" textLength="30" x="1345" y="368.0332">id: id</text><text fill="#000000" font-family="sans-serif" font-size="14" lengthAdjust="spacing" textLength="59" x="1345" y="385.6426">name: str</text><text fill="#000000" font-family="sans-serif" font-size="14" lengthAdjust="spacing" textLength="154" x="1345" y="403.252">description: Optional[str]</text><text fill="#000000" font-family="sans-serif" font-size="14" lengthAdjust="spacing" textLength="260" x="1345" y="420.8613">affectedControls: list[ControlAffectedTag]</text><text fill="#000000" font-family="sans-serif" font-size="14" lengthAdjust="spacing" textLength="201" x="1345" y="438.4707">detectedOnFields: list[FieldTag]</text><line style="stroke:#181818;stroke-width:0.5;" x1="1340" x2="1610" y1="445.5469" y2="445.5469"/></g><!--class DatabaseTable--><g id="elem_DatabaseTable"><rect codeLine="60" fill="#F1F1F1" height="206.4844" id="DatabaseTable" rx="2.5" ry="2.5" style="stroke:#181818;stroke-width:0.5;" width="294" x="753" y="16"/><ellipse cx="847.25" cy="32" fill="#ADD1B2" rx="11" ry="11" style="stroke:#181818;stroke-width:1.0;"/><path d="M850.0156,27.875 Q850.1719,27.6563 850.3594,27.5469 Q850.5469,27.4375 850.7656,27.4375 Q851.1406,27.4375 851.375,27.7031 Q851.6094,27.9531 851.6094,28.5625 L851.6094,30.0156 Q851.6094,30.625 851.375,30.8906 Q851.1406,31.1563 850.7656,31.1563 Q850.4219,31.1563 850.2188,30.9531 Q850.0156,30.7656 849.9063,30.25 Q849.8594,29.8906 849.6719,29.7031 Q849.3438,29.3281 848.7344,29.1094 Q848.125,28.8906 847.5,28.8906 Q846.7344,28.8906 846.0938,29.2188 Q845.4688,29.5469 844.9688,30.2969 Q844.4844,31.0469 844.4844,32.0781 L844.4844,33.1719 Q844.4844,34.4063 845.375,35.2344 Q846.2656,36.0469 847.8594,36.0469 Q848.7969,36.0469 849.4531,35.7969 Q849.8438,35.6406 850.2656,35.2031 Q850.5313,34.9375 850.6719,34.8594 Q850.8281,34.7813 851.0313,34.7813 Q851.3594,34.7813 851.6094,35.0469 Q851.875,35.2969 851.875,35.6406 Q851.875,35.9844 851.5313,36.3906 Q851.0313,36.9688 850.2344,37.2969 Q849.1563,37.75 847.8594,37.75 Q846.3438,37.75 845.1406,37.125 Q844.1563,36.625 843.4688,35.5625 Q842.7813,34.4844 842.7813,33.2031 L842.7813,32.0469 Q842.7813,30.7188 843.3906,29.5781 Q844.0156,28.4219 845.1094,27.8125 Q846.2031,27.1875 847.4375,27.1875 Q848.1719,27.1875 848.8125,27.3594 Q849.4688,27.5156 850.0156,27.875 Z " fill="#000000"/><text fill="#000000" font-family="sans-serif" font-size="14" lengthAdjust="spacing" textLength="97" x="867.75" y="37.7285">DatabaseTable</text><line style="stroke:#181818;stroke-width:0.5;" x1="754" x2="1046" y1="48" y2="48"/><text fill="#000000" font-family="sans-serif" font-size="14" lengthAdjust="spacing" textLength="35" x="759" y="66.5332">id: str</text><text fill="#000000" font-family="sans-serif" font-size="14" lengthAdjust="spacing" textLength="59" x="759" y="84.1426">name: str</text><text fill="#000000" font-family="sans-serif" font-size="14" lengthAdjust="spacing" textLength="169" x="759" y="101.752">schema: DatabaseSchema</text><text fill="#000000" font-family="sans-serif" font-size="14" lengthAdjust="spacing" textLength="158" x="759" y="119.3613">fields: list[DatabaseField]</text><line style="stroke:#181818;stroke-width:0.5;" x1="754" x2="1046" y1="126.4375" y2="126.4375"/><text fill="#000000" font-family="sans-serif" font-size="14" lengthAdjust="spacing" textLength="282" x="759" y="144.9707">__init__(name, fields=None): DatabaseTable</text><text fill="#000000" font-family="sans-serif" font-size="14" lengthAdjust="spacing" textLength="232" x="759" y="162.5801">addField(field: DatabaseField): None</text><text fill="#000000" font-family="sans-serif" font-size="14" lengthAdjust="spacing" textLength="90" x="759" y="180.1895">getName(): str</text><text fill="#000000" font-family="sans-serif" font-size="14" lengthAdjust="spacing" textLength="193" x="759" y="197.7988">getFields(): list[DatabaseField]</text><text fill="#000000" font-family="sans-serif" font-size="14" lengthAdjust="spacing" textLength="188" x="759" y="215.4082">getLastField(): DatabaseField</text></g><!--class ControlAffectedTag--><g id="elem_ControlAffectedTag"><rect codeLine="102" fill="#F1F1F1" height="118.4375" id="ControlAffectedTag" rx="2.5" ry="2.5" style="stroke:#181818;stroke-width:0.5;" width="506" x="1373" y="540"/><ellipse cx="1560.25" cy="556" fill="#ADD1B2" rx="11" ry="11" style="stroke:#181818;stroke-width:1.0;"/><path d="M1563.0156,551.875 Q1563.1719,551.6563 1563.3594,551.5469 Q1563.5469,551.4375 1563.7656,551.4375 Q1564.1406,551.4375 1564.375,551.7031 Q1564.6094,551.9531 1564.6094,552.5625 L1564.6094,554.0156 Q1564.6094,554.625 1564.375,554.8906 Q1564.1406,555.1563 1563.7656,555.1563 Q1563.4219,555.1563 1563.2188,554.9531 Q1563.0156,554.7656 1562.9063,554.25 Q1562.8594,553.8906 1562.6719,553.7031 Q1562.3438,553.3281 1561.7344,553.1094 Q1561.125,552.8906 1560.5,552.8906 Q1559.7344,552.8906 1559.0938,553.2188 Q1558.4688,553.5469 1557.9688,554.2969 Q1557.4844,555.0469 1557.4844,556.0781 L1557.4844,557.1719 Q1557.4844,558.4063 1558.375,559.2344 Q1559.2656,560.0469 1560.8594,560.0469 Q1561.7969,560.0469 1562.4531,559.7969 Q1562.8438,559.6406 1563.2656,559.2031 Q1563.5313,558.9375 1563.6719,558.8594 Q1563.8281,558.7813 1564.0313,558.7813 Q1564.3594,558.7813 1564.6094,559.0469 Q1564.875,559.2969 1564.875,559.6406 Q1564.875,559.9844 1564.5313,560.3906 Q1564.0313,560.9688 1563.2344,561.2969 Q1562.1563,561.75 1560.8594,561.75 Q1559.3438,561.75 1558.1406,561.125 Q1557.1563,560.625 1556.4688,559.5625 Q1555.7813,558.4844 1555.7813,557.2031 L1555.7813,556.0469 Q1555.7813,554.7188 1556.3906,553.5781 Q1557.0156,552.4219 1558.1094,551.8125 Q1559.2031,551.1875 1560.4375,551.1875 Q1561.1719,551.1875 1561.8125,551.3594 Q1562.4688,551.5156 1563.0156,551.875 Z " fill="#000000"/><text fill="#000000" font-family="sans-serif" font-size="14" lengthAdjust="spacing" textLength="123" x="1580.75" y="561.7285">ControlAffectedTag</text><line style="stroke:#181818;stroke-width:0.5;" x1="1374" x2="1878" y1="572" y2="572"/><text fill="#000000" font-family="sans-serif" font-size="14" lengthAdjust="spacing" textLength="34" x="1379" y="590.5332">id: int</text><text fill="#000000" font-family="sans-serif" font-size="14" lengthAdjust="spacing" textLength="97" x="1379" y="608.1426">control: Control</text><text fill="#000000" font-family="sans-serif" font-size="14" lengthAdjust="spacing" textLength="115" x="1379" y="625.752">tag: DataTypeTag</text><line style="stroke:#181818;stroke-width:0.5;" x1="1374" x2="1878" y1="632.8281" y2="632.8281"/><text fill="#000000" font-family="sans-serif" font-size="14" lengthAdjust="spacing" textLength="494" x="1379" y="651.3613">__init__(control: Control, tag: DataTypeTag, affectedScoreBy: int): ControlTag</text></g><!--class Control--><g id="elem_Control"><rect codeLine="112" fill="#F1F1F1" height="118.4375" id="Control" rx="2.5" ry="2.5" style="stroke:#181818;stroke-width:0.5;" width="370" x="1441" y="718"/><ellipse cx="1598.75" cy="734" fill="#A9DCDF" rx="11" ry="11" style="stroke:#181818;stroke-width:1.0;"/><path d="M1600.9375,735.7656 L1596.7969,735.7656 L1596.375,736.7969 L1596.7969,736.7969 Q1597.4063,736.7969 1597.6719,737.0313 Q1597.9375,737.2656 1597.9375,737.6563 Q1597.9375,738.0313 1597.6719,738.2656 Q1597.4063,738.5 1596.7969,738.5 L1594.5,738.5 Q1593.8906,738.5 1593.6406,738.2656 Q1593.375,738.0313 1593.375,737.6406 Q1593.375,737.2656 1593.6563,737.0313 Q1593.9219,736.7813 1594.5469,736.7969 L1597.2188,730.1406 L1596.1094,730.1406 Q1595.5,730.1406 1595.2344,729.9063 Q1594.9688,729.6719 1594.9688,729.2813 Q1594.9688,728.9063 1595.2344,728.6719 Q1595.5,728.4375 1596.1094,728.4375 L1599.7813,728.4375 L1603.1719,736.7969 Q1603.7656,736.7969 1603.9531,736.9375 Q1604.3438,737.2031 1604.3438,737.6563 Q1604.3438,738.0313 1604.0781,738.2656 Q1603.8281,738.5 1603.2188,738.5 L1600.9219,738.5 Q1600.3125,738.5 1600.0469,738.2656 Q1599.7813,738.0313 1599.7813,737.6406 Q1599.7813,737.2656 1600.0469,737.0313 Q1600.3125,736.7969 1600.9219,736.7969 L1601.3438,736.7969 L1600.9375,735.7656 Z M1600.2188,734.0625 L1598.8594,730.6875 L1597.4844,734.0625 L1600.2188,734.0625 Z " fill="#000000"/><text fill="#000000" font-family="sans-serif" font-size="14" font-style="italic" lengthAdjust="spacing" textLength="46" x="1619.25" y="739.7285">Control</text><line style="stroke:#181818;stroke-width:0.5;" x1="1442" x2="1810" y1="750" y2="750"/><text fill="#000000" font-family="sans-serif" font-size="14" lengthAdjust="spacing" textLength="34" x="1447" y="768.5332">id: int</text><text fill="#000000" font-family="sans-serif" font-size="14" lengthAdjust="spacing" textLength="82" x="1447" y="786.1426">raw_data: str</text><line style="stroke:#181818;stroke-width:0.5;" x1="1442" x2="1810" y1="793.2188" y2="793.2188"/><text fill="#000000" font-family="sans-serif" font-size="14" lengthAdjust="spacing" textLength="358" x="1447" y="811.752">__init__(name: str, affectedTags: dict[DataTypeTag, int])</text><text fill="#000000" font-family="sans-serif" font-size="14" lengthAdjust="spacing" textLength="245" x="1447" y="829.3613">executeOn(field: DatabaseField): None</text></g><!--class RegExOnFieldNameControl--><g id="elem_RegExOnFieldNameControl"><rect codeLine="122" fill="#F1F1F1" height="83.2188" id="RegExOnFieldNameControl" rx="2.5" ry="2.5" style="stroke:#181818;stroke-width:0.5;" width="618" x="1317" y="896"/><ellipse cx="1535.25" cy="912" fill="#ADD1B2" rx="11" ry="11" style="stroke:#181818;stroke-width:1.0;"/><path d="M1538.0156,907.875 Q1538.1719,907.6563 1538.3594,907.5469 Q1538.5469,907.4375 1538.7656,907.4375 Q1539.1406,907.4375 1539.375,907.7031 Q1539.6094,907.9531 1539.6094,908.5625 L1539.6094,910.0156 Q1539.6094,910.625 1539.375,910.8906 Q1539.1406,911.1563 1538.7656,911.1563 Q1538.4219,911.1563 1538.2188,910.9531 Q1538.0156,910.7656 1537.9063,910.25 Q1537.8594,909.8906 1537.6719,909.7031 Q1537.3438,909.3281 1536.7344,909.1094 Q1536.125,908.8906 1535.5,908.8906 Q1534.7344,908.8906 1534.0938,909.2188 Q1533.4688,909.5469 1532.9688,910.2969 Q1532.4844,911.0469 1532.4844,912.0781 L1532.4844,913.1719 Q1532.4844,914.4063 1533.375,915.2344 Q1534.2656,916.0469 1535.8594,916.0469 Q1536.7969,916.0469 1537.4531,915.7969 Q1537.8438,915.6406 1538.2656,915.2031 Q1538.5313,914.9375 1538.6719,914.8594 Q1538.8281,914.7813 1539.0313,914.7813 Q1539.3594,914.7813 1539.6094,915.0469 Q1539.875,915.2969 1539.875,915.6406 Q1539.875,915.9844 1539.5313,916.3906 Q1539.0313,916.9688 1538.2344,917.2969 Q1537.1563,917.75 1535.8594,917.75 Q1534.3438,917.75 1533.1406,917.125 Q1532.1563,916.625 1531.4688,915.5625 Q1530.7813,914.4844 1530.7813,913.2031 L1530.7813,912.0469 Q1530.7813,910.7188 1531.3906,909.5781 Q1532.0156,908.4219 1533.1094,907.8125 Q1534.2031,907.1875 1535.4375,907.1875 Q1536.1719,907.1875 1536.8125,907.3594 Q1537.4688,907.5156 1538.0156,907.875 Z " fill="#000000"/><text fill="#000000" font-family="sans-serif" font-size="14" lengthAdjust="spacing" textLength="173" x="1555.75" y="917.7285">RegExOnFieldNameControl</text><line style="stroke:#181818;stroke-width:0.5;" x1="1318" x2="1934" y1="928" y2="928"/><line style="stroke:#181818;stroke-width:0.5;" x1="1318" x2="1934" y1="936" y2="936"/><text fill="#000000" font-family="sans-serif" font-size="14" lengthAdjust="spacing" textLength="606" x="1323" y="954.5332">__init__(name: str, affectedTags: dict[DataTypeTag, int], regex :str): RegExOnFieldNameControl</text><text fill="#000000" font-family="sans-serif" font-size="14" lengthAdjust="spacing" textLength="95" x="1323" y="972.1426">getRegEx(): str</text></g><!--link DatabaseMetadataAdapter to DatabaseSchema--><g id="link_DatabaseMetadataAdapter_DatabaseSchema"><path codeLine="9" d="M369.04,156.84 C380.66,156.98 386.2925,157.0665 397.9125,156.3165 " fill="none" id="DatabaseMetadataAdapter-to-DatabaseSchema" style="stroke:#181818;stroke-width:1.0;"/><polygon fill="#181818" points="403.9,155.93,394.661,152.518,398.9104,156.252,395.1763,160.5014,403.9,155.93" style="stroke:#181818;stroke-width:1.0;"/><text fill="#000000" font-family="sans-serif" font-size="13" lengthAdjust="spacing" textLength="5" x="391.1694" y="154.8327">*</text></g><!--link DatabaseSchema to DatabaseMetadataAdapter--><g id="link_DatabaseSchema_DatabaseMetadataAdapter"><path codeLine="88" d="M403.9,82.07 C392.28,81.32 386.6596,80.9477 375.0396,81.0877 " fill="none" id="DatabaseSchema-to-DatabaseMetadataAdapter" style="stroke:#181818;stroke-width:1.0;"/><polygon fill="#181818" points="369.04,81.16,378.0875,85.0513,374.0396,81.0998,377.9912,77.0519,369.04,81.16" style="stroke:#181818;stroke-width:1.0;"/></g><!--reverse link DatabaseMetadataAdapter to MySQLDatabaseMetadataAdapter--><g id="link_DatabaseMetadataAdapter_MySQLDatabaseMetadataAdapter"><path d="M188,187.75 C188,224.34 188,256.95 188,299.86 " fill="none" id="DatabaseMetadataAdapter-backto-MySQLDatabaseMetadataAdapter" style="stroke:#181818;stroke-width:1.0;"/><polygon fill="none" points="188,169.75,182,187.75,194,187.75,188,169.75" style="stroke:#181818;stroke-width:1.0;"/></g><!--link FieldTag to DatabaseField--><g id="link_FieldTag_DatabaseField"><path codeLine="38" d="M1278.21,539.73 C1282.97,463.29 1283.9666,333.5668 1280.8066,237.1668 " fill="none" id="FieldTag-to-DatabaseField" style="stroke:#181818;stroke-width:1.0;"/><polygon fill="#181818" points="1280.61,231.17,1276.907,240.2962,1280.7738,236.1673,1284.9027,240.0341,1280.61,231.17" style="stroke:#181818;stroke-width:1.0;"/></g><!--link DatabaseField to FieldTag--><g id="link_DatabaseField_FieldTag"><path codeLine="57" d="M1258.03,231.17 C1255.05,327.57 1255.4582,457.3003 1259.9482,533.7403 " fill="none" id="DatabaseField-to-FieldTag" style="stroke:#181818;stroke-width:1.0;"/><polygon fill="#181818" points="1260.3,539.73,1263.7654,530.5109,1260.0068,534.7386,1255.7791,530.98,1260.3,539.73" style="stroke:#181818;stroke-width:1.0;"/><text fill="#000000" font-family="sans-serif" font-size="13" lengthAdjust="spacing" textLength="5" x="1253.935" y="529.0213">*</text></g><!--link FieldTag to DataTypeTag--><g id="link_FieldTag_DataTypeTag"><path codeLine="39" d="M1337.82,539.87 C1365.36,513.2 1392.3857,485.8053 1418.1257,458.1053 " fill="none" id="FieldTag-to-DataTypeTag" style="stroke:#181818;stroke-width:1.0;"/><polygon fill="#181818" points="1422.21,453.71,1413.1534,457.5801,1418.8064,457.3727,1419.0138,463.0258,1422.21,453.71" style="stroke:#181818;stroke-width:1.0;"/></g><!--link DataTypeTag to FieldTag--><g id="link_DataTypeTag_FieldTag"><path codeLine="100" d="M1397.57,453.71 C1369.42,481.41 1342.66,508.7822 1318.15,535.4522 " fill="none" id="DataTypeTag-to-FieldTag" style="stroke:#181818;stroke-width:1.0;"/><polygon fill="#181818" points="1314.09,539.87,1323.1251,535.95,1317.4733,536.1885,1317.2348,530.5367,1314.09,539.87" style="stroke:#181818;stroke-width:1.0;"/><text fill="#000000" font-family="sans-serif" font-size="13" lengthAdjust="spacing" textLength="5" x="1314.2807" y="529.1784">*</text></g><!--link DatabaseField to FieldDataTypes--><g id="link_DatabaseField_FieldDataTypes"><path codeLine="55" d="M1211.91,231.02 C1201.67,250.96 1193.8248,266.2146 1183.8548,285.5946 " fill="none" id="DatabaseField-to-FieldDataTypes" style="stroke:#181818;stroke-width:1.0;"/><polygon fill="#181818" points="1181.11,290.93,1188.7841,284.7568,1183.3973,286.4839,1181.6702,281.0971,1181.11,290.93" style="stroke:#181818;stroke-width:1.0;"/></g><!--link DatabaseField to DatabaseTable--><g id="link_DatabaseField_DatabaseTable"><path codeLine="56" d="M1081.71,196.23 C1070.15,196.09 1064.4947,196.038 1052.9347,194.068 " fill="none" id="DatabaseField-to-DatabaseTable" style="stroke:#181818;stroke-width:1.0;"/><polygon fill="#181818" points="1047.02,193.06,1055.2201,198.5151,1051.9489,193.9,1056.5641,190.6288,1047.02,193.06" style="stroke:#181818;stroke-width:1.0;"/></g><!--link DatabaseTable to DatabaseField--><g id="link_DatabaseTable_DatabaseField"><path codeLine="73" d="M1047.02,44.94 C1058.58,42.97 1064.1504,41.9827 1075.7104,41.8427 " fill="none" id="DatabaseTable-to-DatabaseField" style="stroke:#181818;stroke-width:1.0;"/><polygon fill="#181818" points="1081.71,41.77,1072.6622,37.8793,1076.7104,41.8305,1072.7591,45.8787,1081.71,41.77" style="stroke:#181818;stroke-width:1.0;"/><text fill="#000000" font-family="sans-serif" font-size="13" lengthAdjust="spacing" textLength="5" x="1069.2963" y="35.9409">*</text></g><!--link DatabaseField to DataTypeTag--><g id="link_DatabaseField_DataTypeTag"><path codeLine="58" d="M1355.47,231.02 C1378.26,260.29 1398.4732,286.2363 1418.8632,312.4163 " fill="none" id="DatabaseField-to-DataTypeTag" style="stroke:#181818;stroke-width:1.0;stroke-dasharray:7.0,7.0;"/><polygon fill="#181818" points="1422.55,317.15,1420.1756,307.5916,1419.4777,313.2053,1413.8641,312.5073,1422.55,317.15" style="stroke:#181818;stroke-width:1.0;"/></g><!--link DatabaseTable to DatabaseSchema--><g id="link_DatabaseTable_DatabaseSchema"><path codeLine="72" d="M752.68,201.56 C741.21,203.05 735.7148,203.8075 724.2348,202.9875 " fill="none" id="DatabaseTable-to-DatabaseSchema" style="stroke:#181818;stroke-width:1.0;"/><polygon fill="#181818" points="718.25,202.56,726.9421,207.1911,723.2373,202.9162,727.5121,199.2114,718.25,202.56" style="stroke:#181818;stroke-width:1.0;"/></g><!--link DatabaseSchema to DatabaseTable--><g id="link_DatabaseSchema_DatabaseTable"><path codeLine="89" d="M718.25,35.44 C729.73,34.62 735.26,34.1771 746.73,35.6671 " fill="none" id="DatabaseSchema-to-DatabaseTable" style="stroke:#181818;stroke-width:1.0;"/><polygon fill="#181818" points="752.68,36.44,744.2703,31.3139,747.7217,35.7959,743.2397,39.2473,752.68,36.44" style="stroke:#181818;stroke-width:1.0;"/><text fill="#000000" font-family="sans-serif" font-size="13" lengthAdjust="spacing" textLength="5" x="739.9549" y="29.2622">*</text></g><!--link DataTypeTag to ControlAffectedTag--><g id="link_DataTypeTag_ControlAffectedTag"><path codeLine="99" d="M1511.02,453.71 C1529.62,481.41 1548.8012,508.4447 1569.3212,535.1147 " fill="none" id="DataTypeTag-to-ControlAffectedTag" style="stroke:#181818;stroke-width:1.0;"/><polygon fill="#181818" points="1572.98,539.87,1570.6621,530.2978,1569.931,535.9072,1564.3216,535.1762,1572.98,539.87" style="stroke:#181818;stroke-width:1.0;"/><text fill="#000000" font-family="sans-serif" font-size="13" lengthAdjust="spacing" textLength="5" x="1561.2135" y="529.1784">*</text></g><!--link ControlAffectedTag to DataTypeTag--><g id="link_ControlAffectedTag_DataTypeTag"><path codeLine="110" d="M1596.7,539.87 C1579.21,513.2 1560.3081,486.1888 1539.2781,458.4888 " fill="none" id="ControlAffectedTag-to-DataTypeTag" style="stroke:#181818;stroke-width:1.0;"/><polygon fill="#181818" points="1535.65,453.71,1537.9063,463.2969,1538.6734,457.6923,1544.278,458.4595,1535.65,453.71" style="stroke:#181818;stroke-width:1.0;"/></g><!--link ControlAffectedTag to Control--><g id="link_ControlAffectedTag_Control"><path codeLine="109" d="M1613.93,658.12 C1613.02,677.34 1612.7362,692.7267 1613.6462,711.9467 " fill="none" id="ControlAffectedTag-to-Control" style="stroke:#181818;stroke-width:1.0;"/><polygon fill="#181818" points="1613.93,717.94,1617.4999,708.7609,1613.6935,712.9456,1609.5088,709.1392,1613.93,717.94" style="stroke:#181818;stroke-width:1.0;"/></g><!--link Control to ControlAffectedTag--><g id="link_Control_ControlAffectedTag"><path codeLine="119" d="M1638.78,717.94 C1639.74,698.72 1640.0393,683.3325 1639.0793,664.1125 " fill="none" id="Control-to-ControlAffectedTag" style="stroke:#181818;stroke-width:1.0;stroke-dasharray:7.0,7.0;"/><polygon fill="#181818" points="1638.78,658.12,1635.234,667.3083,1639.0294,663.1138,1643.224,666.9093,1638.78,658.12" style="stroke:#181818;stroke-width:1.0;"/><text fill="#000000" font-family="sans-serif" font-size="13" lengthAdjust="spacing" textLength="5" x="1635.0329" y="679.7901">*</text></g><!--link Control to DatabaseField--><g id="link_Control_DatabaseField"><path codeLine="120" d="M1811.31,729.22 C1844.81,712.27 1875.55,689.25 1896,658 C1924.71,614.11 1916.96,588.08 1896,540 C1816.49,357.59 1616.2025,246.0392 1461.9025,183.6492 " fill="none" id="Control-to-DatabaseField" style="stroke:#181818;stroke-width:1.0;stroke-dasharray:7.0,7.0;"/><polygon fill="#181818" points="1456.34,181.4,1463.1843,188.4821,1460.9754,183.2743,1466.1832,181.0654,1456.34,181.4" style="stroke:#181818;stroke-width:1.0;"/></g><!--reverse link Control to RegExOnFieldNameControl--><g id="link_Control_RegExOnFieldNameControl"><path d="M1626,854.12 C1626,873.91 1626,877.6 1626,895.73 " fill="none" id="Control-backto-RegExOnFieldNameControl" style="stroke:#181818;stroke-width:1.0;"/><polygon fill="none" points="1626,836.12,1620,854.12,1632,854.12,1626,836.12" style="stroke:#181818;stroke-width:1.0;"/></g><!--SRC=[dLPRQzim57xthn1zSePRzcpem6tJ4iY5nTx3A2Mejf8Q73cJb3NPo7-VT2Jv9hc5vIMopkqxtxdO-9KBXdE1yWfpZXwmmA-OamKHk93dfC07GTZV0CbVMSIef0BEF7yZUynZL9LSF5kp56vV0b3P4P4ATip5aP5GEKln_b2HjFn3RhzEHYmlmGW4T7tz3LrzkK9zYo3Gm1VdzFjyp9IS1A759zczrLp4IB81JuUQYJRR8oUCuZtfo6NGzveL-WQkzcV-gyhE1yApEXMO5fZ1KuoACXVFKYz2ZoMf2WK392zWjzcKj1IRJQWGH10vQY96JQI9v2OWzBWVED7eqsmzMpx1SRRCfa_JDPmVflUpHJA7yzrgDPycItsUBPFrJpXciyLKwoPPUu3RYsKN8cPur_Q1vM6h9773B2Y2GE2TlbOWfIbSveH9OiHvm_EQ4Stl9R3UeSHzJux8UWlw_GfwRfVsQoQaRJnWps1zhKYRHAOURHAsnIqINREsdOqueMVJzaqvc-2HD_B4nvgScQKq2oSjwkD11bCvXqDA8zJIA0sMDTMe6TdNlyaFkgsFL47cePNAWlPY0gq3Gbo5FY-kN4sbfMSWlhdvi6pWqMsgVjdqgec7Wzzqtt09GMHVCIAZVwkucFZgZOi2h4DVMtSfzjH9Ne4QiEq3P9Jcc6l5qEc0Tla19DJXtYJjoBiRKJiPKAmDFnqDvMz890Hf-rrTnMCxr4ktzZgakrC_oJS42NqJ-3dVeERotS5j-DP1l2MN6YkMM1mDAuvkMnkDlrkS8HUkPhTCsb-dJ6OuEZKgF2Kg2CzPUH1bJMEqWdzSgRUApXHljoGNfBYlgM1rPMjf7XCZRHSO4N2nee_T6Mgtd5aL1bipvwu_hrgp3aoQhfdRaRdMYQso_pNIxxEXJOJS9McPITMol3lRTMaibCzBuEA3L2oI4N4F5-v_IHaJDqs6tpUgMJfV3hvN1cvZsI-8NbRItSi4hCc9v4T1LlJ3hTNa23jvf9HT5UzMMPFTz6HwHWsaDR1VMBsi_pUjIBx1TkI4OZs78p7jz8BOBePBy0y0]--></g></svg>