<?xml version="1.0" encoding="us-ascii" standalone="no"?><svg xmlns="http://www.w3.org/2000/svg" xmlns:xlink="http://www.w3.org/1999/xlink" contentStyleType="text/css" height="381px" preserveAspectRatio="none" style="width:1619px;height:381px;background:#FFFFFF;" version="1.1" viewBox="0 0 1619 381" width="1619px" zoomAndPan="magnify"><defs/><g><!--class Control--><g id="elem_Control"><rect codeLine="3" fill="#F1F1F1" height="224.0938" id="Control" rx="2.5" ry="2.5" style="stroke:#181818;stroke-width:0.5;" width="528" x="541" y="7"/><ellipse cx="777.75" cy="23" fill="#A9DCDF" rx="11" ry="11" style="stroke:#181818;stroke-width:1.0;"/><path d="M779.9375,24.7656 L775.7969,24.7656 L775.375,25.7969 L775.7969,25.7969 Q776.4063,25.7969 776.6719,26.0313 Q776.9375,26.2656 776.9375,26.6563 Q776.9375,27.0313 776.6719,27.2656 Q776.4063,27.5 775.7969,27.5 L773.5,27.5 Q772.8906,27.5 772.6406,27.2656 Q772.375,27.0313 772.375,26.6406 Q772.375,26.2656 772.6563,26.0313 Q772.9219,25.7813 773.5469,25.7969 L776.2188,19.1406 L775.1094,19.1406 Q774.5,19.1406 774.2344,18.9063 Q773.9688,18.6719 773.9688,18.2813 Q773.9688,17.9063 774.2344,17.6719 Q774.5,17.4375 775.1094,17.4375 L778.7813,17.4375 L782.1719,25.7969 Q782.7656,25.7969 782.9531,25.9375 Q783.3438,26.2031 783.3438,26.6563 Q783.3438,27.0313 783.0781,27.2656 Q782.8281,27.5 782.2188,27.5 L779.9219,27.5 Q779.3125,27.5 779.0469,27.2656 Q778.7813,27.0313 778.7813,26.6406 Q778.7813,26.2656 779.0469,26.0313 Q779.3125,25.7969 779.9219,25.7969 L780.3438,25.7969 L779.9375,24.7656 Z M779.2188,23.0625 L777.8594,19.6875 L776.4844,23.0625 L779.2188,23.0625 Z " fill="#000000"/><text fill="#000000" font-family="sans-serif" font-size="14" font-style="italic" lengthAdjust="spacing" textLength="46" x="798.25" y="28.7285">Control</text><line style="stroke:#181818;stroke-width:0.5;" x1="542" x2="1068" y1="39" y2="39"/><text fill="#000000" font-family="sans-serif" font-size="14" lengthAdjust="spacing" textLength="34" x="547" y="57.5332">id: int</text><text fill="#000000" font-family="sans-serif" font-size="14" lengthAdjust="spacing" textLength="59" x="547" y="75.1426">name: str</text><text fill="#000000" font-family="sans-serif" font-size="14" lengthAdjust="spacing" textLength="82" x="547" y="92.752">raw_data: str</text><text fill="#000000" font-family="sans-serif" font-size="14" lengthAdjust="spacing" textLength="239" x="547" y="110.3613">affectedTags: list[ControlAffectedTag]</text><text fill="#000000" font-family="sans-serif" font-size="14" lengthAdjust="spacing" textLength="162" x="547" y="127.9707">createdBy: Optional[User]</text><text fill="#000000" font-family="sans-serif" font-size="14" lengthAdjust="spacing" textLength="130" x="547" y="145.5801">created_at: datetime</text><line style="stroke:#181818;stroke-width:0.5;" x1="542" x2="1068" y1="152.6563" y2="152.6563"/><text fill="#000000" font-family="sans-serif" font-size="14" lengthAdjust="spacing" textLength="516" x="547" y="171.1895">__init__(name: str, affectedTags: dict[DataTypeTag, int], createdBy: User = None)</text><text fill="#000000" font-family="sans-serif" font-size="14" lengthAdjust="spacing" textLength="297" x="547" y="188.7988">__conditionMatches(field: DatabaseField): bool</text><text fill="#000000" font-family="sans-serif" font-size="14" lengthAdjust="spacing" textLength="146" x="547" y="206.4082">getData(): dict[str, Any]</text><text fill="#000000" font-family="sans-serif" font-size="14" lengthAdjust="spacing" textLength="253" x="547" y="224.0176">executeOn(field: DatabaseField): Ndone</text></g><!--class RegExOnFieldNameControl--><g id="elem_RegExOnFieldNameControl"><rect codeLine="17" fill="#F1F1F1" height="83.2188" id="RegExOnFieldNameControl" rx="2.5" ry="2.5" style="stroke:#181818;stroke-width:0.5;" width="776" x="7" y="291"/><ellipse cx="304.25" cy="307" fill="#ADD1B2" rx="11" ry="11" style="stroke:#181818;stroke-width:1.0;"/><path d="M307.0156,302.875 Q307.1719,302.6563 307.3594,302.5469 Q307.5469,302.4375 307.7656,302.4375 Q308.1406,302.4375 308.375,302.7031 Q308.6094,302.9531 308.6094,303.5625 L308.6094,305.0156 Q308.6094,305.625 308.375,305.8906 Q308.1406,306.1563 307.7656,306.1563 Q307.4219,306.1563 307.2188,305.9531 Q307.0156,305.7656 306.9063,305.25 Q306.8594,304.8906 306.6719,304.7031 Q306.3438,304.3281 305.7344,304.1094 Q305.125,303.8906 304.5,303.8906 Q303.7344,303.8906 303.0938,304.2188 Q302.4688,304.5469 301.9688,305.2969 Q301.4844,306.0469 301.4844,307.0781 L301.4844,308.1719 Q301.4844,309.4063 302.375,310.2344 Q303.2656,311.0469 304.8594,311.0469 Q305.7969,311.0469 306.4531,310.7969 Q306.8438,310.6406 307.2656,310.2031 Q307.5313,309.9375 307.6719,309.8594 Q307.8281,309.7813 308.0313,309.7813 Q308.3594,309.7813 308.6094,310.0469 Q308.875,310.2969 308.875,310.6406 Q308.875,310.9844 308.5313,311.3906 Q308.0313,311.9688 307.2344,312.2969 Q306.1563,312.75 304.8594,312.75 Q303.3438,312.75 302.1406,312.125 Q301.1563,311.625 300.4688,310.5625 Q299.7813,309.4844 299.7813,308.2031 L299.7813,307.0469 Q299.7813,305.7188 300.3906,304.5781 Q301.0156,303.4219 302.1094,302.8125 Q303.2031,302.1875 304.4375,302.1875 Q305.1719,302.1875 305.8125,302.3594 Q306.4688,302.5156 307.0156,302.875 Z " fill="#000000"/><text fill="#000000" font-family="sans-serif" font-size="14" lengthAdjust="spacing" textLength="173" x="324.75" y="312.7285">RegExOnFieldNameControl</text><line style="stroke:#181818;stroke-width:0.5;" x1="8" x2="782" y1="323" y2="323"/><line style="stroke:#181818;stroke-width:0.5;" x1="8" x2="782" y1="331" y2="331"/><text fill="#000000" font-family="sans-serif" font-size="14" lengthAdjust="spacing" textLength="764" x="13" y="349.5332">__init__(name: str, affectedTags: dict[DataTypeTag, int], regex :str, createdBy: User = None): RegExOnFieldNameControl</text><text fill="#000000" font-family="sans-serif" font-size="14" lengthAdjust="spacing" textLength="95" x="13" y="367.1426">getRegEx(): str</text></g><!--class RegExOnSampledDataControl--><g id="elem_RegExOnSampledDataControl"><rect codeLine="22" fill="#F1F1F1" height="83.2188" id="RegExOnSampledDataControl" rx="2.5" ry="2.5" style="stroke:#181818;stroke-width:0.5;" width="794" x="818" y="291"/><ellipse cx="1115.25" cy="307" fill="#ADD1B2" rx="11" ry="11" style="stroke:#181818;stroke-width:1.0;"/><path d="M1118.0156,302.875 Q1118.1719,302.6563 1118.3594,302.5469 Q1118.5469,302.4375 1118.7656,302.4375 Q1119.1406,302.4375 1119.375,302.7031 Q1119.6094,302.9531 1119.6094,303.5625 L1119.6094,305.0156 Q1119.6094,305.625 1119.375,305.8906 Q1119.1406,306.1563 1118.7656,306.1563 Q1118.4219,306.1563 1118.2188,305.9531 Q1118.0156,305.7656 1117.9063,305.25 Q1117.8594,304.8906 1117.6719,304.7031 Q1117.3438,304.3281 1116.7344,304.1094 Q1116.125,303.8906 1115.5,303.8906 Q1114.7344,303.8906 1114.0938,304.2188 Q1113.4688,304.5469 1112.9688,305.2969 Q1112.4844,306.0469 1112.4844,307.0781 L1112.4844,308.1719 Q1112.4844,309.4063 1113.375,310.2344 Q1114.2656,311.0469 1115.8594,311.0469 Q1116.7969,311.0469 1117.4531,310.7969 Q1117.8438,310.6406 1118.2656,310.2031 Q1118.5313,309.9375 1118.6719,309.8594 Q1118.8281,309.7813 1119.0313,309.7813 Q1119.3594,309.7813 1119.6094,310.0469 Q1119.875,310.2969 1119.875,310.6406 Q1119.875,310.9844 1119.5313,311.3906 Q1119.0313,311.9688 1118.2344,312.2969 Q1117.1563,312.75 1115.8594,312.75 Q1114.3438,312.75 1113.1406,312.125 Q1112.1563,311.625 1111.4688,310.5625 Q1110.7813,309.4844 1110.7813,308.2031 L1110.7813,307.0469 Q1110.7813,305.7188 1111.3906,304.5781 Q1112.0156,303.4219 1113.1094,302.8125 Q1114.2031,302.1875 1115.4375,302.1875 Q1116.1719,302.1875 1116.8125,302.3594 Q1117.4688,302.5156 1118.0156,302.875 Z " fill="#000000"/><text fill="#000000" font-family="sans-serif" font-size="14" lengthAdjust="spacing" textLength="191" x="1135.75" y="312.7285">RegExOnSampledDataControl</text><line style="stroke:#181818;stroke-width:0.5;" x1="819" x2="1611" y1="323" y2="323"/><line style="stroke:#181818;stroke-width:0.5;" x1="819" x2="1611" y1="331" y2="331"/><text fill="#000000" font-family="sans-serif" font-size="14" lengthAdjust="spacing" textLength="782" x="824" y="349.5332">__init__(name: str, affectedTags: dict[DataTypeTag, int], regex :str, createdBy: User = None): RegExOnSampledDataControl</text><text fill="#000000" font-family="sans-serif" font-size="14" lengthAdjust="spacing" textLength="95" x="824" y="367.1426">getRegEx(): str</text></g><!--reverse link Control to RegExOnFieldNameControl--><g id="link_Control_RegExOnFieldNameControl"><path d="M573.7948,239.2655 C532.2348,260.7155 507.22,273.61 473.63,290.94 " fill="none" id="Control-backto-RegExOnFieldNameControl" style="stroke:#181818;stroke-width:1.0;"/><polygon fill="none" points="589.79,231.01,571.043,233.9337,576.5466,244.5972,589.79,231.01" style="stroke:#181818;stroke-width:1.0;"/></g><!--reverse link Control to RegExOnSampledDataControl--><g id="link_Control_RegExOnSampledDataControl"><path d="M1036.2052,239.2655 C1077.7652,260.7155 1102.78,273.61 1136.37,290.94 " fill="none" id="Control-backto-RegExOnSampledDataControl" style="stroke:#181818;stroke-width:1.0;"/><polygon fill="none" points="1020.21,231.01,1033.4534,244.5972,1038.957,233.9337,1020.21,231.01" style="stroke:#181818;stroke-width:1.0;"/></g><!--SRC=[pL7DJeGm4Bxp53r2mXCqyR3-tLoITJsH3HdQ0PkKbhHZX1ZVtRQBhcAuUBAdJh-PxsSAhIS7WfZGu3sxiOQSrMyP2qT9pfIXT3Sm86UXDrKENXi919SNw3eKXF88lUTCAq_rmhMx8AVKAXn2gAzdpggHb3MWwoUFxWVQ074M993KW5b2caOPHKsJVtafLx9I2QflWw_ZF69uAgFzK_bTCGgnAxQt1ek5LLWZLVJn02IUqUUTGXsYHw8MFDx7ik2ijLQdaHufOdcnA2OdEpEV0-24ueMmCbiyUnd4i_SiEw_yWFtTL9c4xaEoPMs1Xz38rPVyVGSEUvmOJnCR- -1RNZvJ9pZ6Zh- -3l08mwXHHkb_4E6tcuqG7m00]--></g></svg>