<?xml version="1.0" encoding="us-ascii" standalone="no"?><svg xmlns="http://www.w3.org/2000/svg" xmlns:xlink="http://www.w3.org/1999/xlink" contentStyleType="text/css" height="434px" preserveAspectRatio="none" style="width:539px;height:434px;background:#FFFFFF;" version="1.1" viewBox="0 0 539 434" width="539px" zoomAndPan="magnify"><defs/><g><!--class DatabaseMetadataAdapter--><g id="elem_DatabaseMetadataAdapter"><rect codeLine="3" fill="#F1F1F1" height="188.875" id="DatabaseMetadataAdapter" rx="2.5" ry="2.5" style="stroke:#181818;stroke-width:0.5;" width="525" x="7" y="7"/><ellipse cx="179.75" cy="23" fill="#A9DCDF" rx="11" ry="11" style="stroke:#181818;stroke-width:1.0;"/><path d="M181.9375,24.7656 L177.7969,24.7656 L177.375,25.7969 L177.7969,25.7969 Q178.4063,25.7969 178.6719,26.0313 Q178.9375,26.2656 178.9375,26.6563 Q178.9375,27.0313 178.6719,27.2656 Q178.4063,27.5 177.7969,27.5 L175.5,27.5 Q174.8906,27.5 174.6406,27.2656 Q174.375,27.0313 174.375,26.6406 Q174.375,26.2656 174.6563,26.0313 Q174.9219,25.7813 175.5469,25.7969 L178.2188,19.1406 L177.1094,19.1406 Q176.5,19.1406 176.2344,18.9063 Q175.9688,18.6719 175.9688,18.2813 Q175.9688,17.9063 176.2344,17.6719 Q176.5,17.4375 177.1094,17.4375 L180.7813,17.4375 L184.1719,25.7969 Q184.7656,25.7969 184.9531,25.9375 Q185.3438,26.2031 185.3438,26.6563 Q185.3438,27.0313 185.0781,27.2656 Q184.8281,27.5 184.2188,27.5 L181.9219,27.5 Q181.3125,27.5 181.0469,27.2656 Q180.7813,27.0313 180.7813,26.6406 Q180.7813,26.2656 181.0469,26.0313 Q181.3125,25.7969 181.9219,25.7969 L182.3438,25.7969 L181.9375,24.7656 Z M181.2188,23.0625 L179.8594,19.6875 L178.4844,23.0625 L181.2188,23.0625 Z " fill="#000000"/><text fill="#000000" font-family="sans-serif" font-size="14" font-style="italic" lengthAdjust="spacing" textLength="171" x="200.25" y="28.7285">DatabaseMetadataAdapter</text><line style="stroke:#181818;stroke-width:0.5;" x1="8" x2="531" y1="39" y2="39"/><text fill="#000000" font-family="sans-serif" font-size="14" lengthAdjust="spacing" textLength="34" x="13" y="57.5332">id: int</text><text fill="#000000" font-family="sans-serif" font-size="14" lengthAdjust="spacing" textLength="142" x="13" y="75.1426">scans: list[ScanResult]</text><text fill="#000000" font-family="sans-serif" font-size="14" lengthAdjust="spacing" textLength="162" x="13" y="92.752">createdBy: Optional[User]</text><line style="stroke:#181818;stroke-width:0.5;" x1="8" x2="531" y1="99.8281" y2="99.8281"/><text fill="#000000" font-family="sans-serif" font-size="14" lengthAdjust="spacing" textLength="202" x="13" y="118.3613">__init__(createdBy: User=None)</text><text fill="#000000" font-family="sans-serif" font-size="14" lengthAdjust="spacing" textLength="295" x="13" y="135.9707">scanStructure(dataSampleSize=0): ScanResult</text><text fill="#000000" font-family="sans-serif" font-size="14" lengthAdjust="spacing" textLength="513" x="13" y="153.5801">fetchSamples(dataSampleSize: int, structure:list[DatabaseSchema], cursor): None</text><text fill="#000000" font-family="sans-serif" font-size="14" lengthAdjust="spacing" textLength="193" x="13" y="171.1895">def getLastScan(): ScanResult</text><text fill="#000000" font-family="sans-serif" font-size="14" lengthAdjust="spacing" textLength="332" x="13" y="188.7988">runControlsOnLastScan(controls: list[Control]): None</text></g><!--class MySQLDatabaseMetadataAdapter--><g id="elem_MySQLDatabaseMetadataAdapter"><rect codeLine="15" fill="#F1F1F1" height="171.2656" id="MySQLDatabaseMetadataAdapter" rx="2.5" ry="2.5" style="stroke:#181818;stroke-width:0.5;" width="421" x="59" y="256"/><ellipse cx="157.25" cy="272" fill="#ADD1B2" rx="11" ry="11" style="stroke:#181818;stroke-width:1.0;"/><path d="M160.0156,267.875 Q160.1719,267.6563 160.3594,267.5469 Q160.5469,267.4375 160.7656,267.4375 Q161.1406,267.4375 161.375,267.7031 Q161.6094,267.9531 161.6094,268.5625 L161.6094,270.0156 Q161.6094,270.625 161.375,270.8906 Q161.1406,271.1563 160.7656,271.1563 Q160.4219,271.1563 160.2188,270.9531 Q160.0156,270.7656 159.9063,270.25 Q159.8594,269.8906 159.6719,269.7031 Q159.3438,269.3281 158.7344,269.1094 Q158.125,268.8906 157.5,268.8906 Q156.7344,268.8906 156.0938,269.2188 Q155.4688,269.5469 154.9688,270.2969 Q154.4844,271.0469 154.4844,272.0781 L154.4844,273.1719 Q154.4844,274.4063 155.375,275.2344 Q156.2656,276.0469 157.8594,276.0469 Q158.7969,276.0469 159.4531,275.7969 Q159.8438,275.6406 160.2656,275.2031 Q160.5313,274.9375 160.6719,274.8594 Q160.8281,274.7813 161.0313,274.7813 Q161.3594,274.7813 161.6094,275.0469 Q161.875,275.2969 161.875,275.6406 Q161.875,275.9844 161.5313,276.3906 Q161.0313,276.9688 160.2344,277.2969 Q159.1563,277.75 157.8594,277.75 Q156.3438,277.75 155.1406,277.125 Q154.1563,276.625 153.4688,275.5625 Q152.7813,274.4844 152.7813,273.2031 L152.7813,272.0469 Q152.7813,270.7188 153.3906,269.5781 Q154.0156,268.4219 155.1094,267.8125 Q156.2031,267.1875 157.4375,267.1875 Q158.1719,267.1875 158.8125,267.3594 Q159.4688,267.5156 160.0156,267.875 Z " fill="#000000"/><text fill="#000000" font-family="sans-serif" font-size="14" lengthAdjust="spacing" textLength="216" x="177.75" y="277.7285">MySQLDatabaseMetadataAdapter</text><line style="stroke:#181818;stroke-width:0.5;" x1="60" x2="479" y1="288" y2="288"/><text fill="#000000" font-family="sans-serif" font-size="14" lengthAdjust="spacing" textLength="51" x="65" y="306.5332">host: str</text><text fill="#000000" font-family="sans-serif" font-size="14" lengthAdjust="spacing" textLength="48" x="65" y="324.1426">port: int</text><text fill="#000000" font-family="sans-serif" font-size="14" lengthAdjust="spacing" textLength="87" x="65" y="341.752">username: str</text><text fill="#000000" font-family="sans-serif" font-size="14" lengthAdjust="spacing" textLength="84" x="65" y="359.3613">password: str</text><text fill="#000000" font-family="sans-serif" font-size="14" lengthAdjust="spacing" textLength="4" x="65" y="376.9707">&#160;</text><text fill="#000000" font-family="sans-serif" font-size="14" lengthAdjust="spacing" textLength="343" x="65" y="394.5801">mysqlTypesToStandarTypes: dict[str, FieldDataTypes]</text><line style="stroke:#181818;stroke-width:0.5;" x1="60" x2="479" y1="401.6563" y2="401.6563"/><text fill="#000000" font-family="sans-serif" font-size="14" lengthAdjust="spacing" textLength="409" x="65" y="420.1895">__init__(host, port, username, password, createdBy: User=None)</text></g><!--reverse link DatabaseMetadataAdapter to MySQLDatabaseMetadataAdapter--><g id="link_DatabaseMetadataAdapter_MySQLDatabaseMetadataAdapter"><path d="M269.5,214.22 C269.5,233.86 269.5,236.47 269.5,255.76 " fill="none" id="DatabaseMetadataAdapter-backto-MySQLDatabaseMetadataAdapter" style="stroke:#181818;stroke-width:1.0;"/><polygon fill="none" points="269.5,196.22,263.5,214.22,275.5,214.22,269.5,196.22" style="stroke:#181818;stroke-width:1.0;"/></g><!--SRC=[XL6xRiCm3Dpz5HeJG4Dd0ndwGAUaGQjq2Wo3aTX6W2ov8etMBVBljPJ4IL-e9eftk3kIi26Ee5be1qJY1XWsGBX01ZFKbmPQnlXHYE5PKmhhETUamLCfd2LUgw5-GEeSLndJ4O7HNFMbMBPiWmUtVYICLP7XkhRUSbrFpdW9djq5ZzDHNN7iD7SH9oc8WgPrgEmxpYwcfJXPPluJijxkAVIDdYDBGKUrCaS-pgdq5XkefD1Tf107vHGYQnfy4i_8So1ERfEVhh7pry5p38wMVkJfG-kmd0EZEahlYcA_waMlxkT_x5lW6wCt_znZ6uZBD5d-jI7owJxTi50F3PxXW-bhY6RVoQscfnUtwbkaLL0Cta3Clr8OgtazyAIujUXCYf6Hwki5KmAPdUNeA4SdANw_yAxu1000]--></g></svg>