<?xml version="1.0" encoding="us-ascii" standalone="no"?><svg xmlns="http://www.w3.org/2000/svg" xmlns:xlink="http://www.w3.org/1999/xlink" contentStyleType="text/css" height="1625px" preserveAspectRatio="none" style="width:1837px;height:1625px;background:#FFFFFF;" version="1.1" viewBox="0 0 1837 1625" width="1837px" zoomAndPan="magnify"><defs/><g><!--class DatabaseMetadataAdapter--><g id="elem_DatabaseMetadataAdapter"><rect codeLine="3" fill="#F1F1F1" height="136.0469" id="DatabaseMetadataAdapter" rx="2.5" ry="2.5" style="stroke:#181818;stroke-width:0.5;" width="525" x="975.5" y="7"/><ellipse cx="1148.25" cy="23" fill="#A9DCDF" rx="11" ry="11" style="stroke:#181818;stroke-width:1.0;"/><path d="M1150.4375,24.7656 L1146.2969,24.7656 L1145.875,25.7969 L1146.2969,25.7969 Q1146.9063,25.7969 1147.1719,26.0313 Q1147.4375,26.2656 1147.4375,26.6563 Q1147.4375,27.0313 1147.1719,27.2656 Q1146.9063,27.5 1146.2969,27.5 L1144,27.5 Q1143.3906,27.5 1143.1406,27.2656 Q1142.875,27.0313 1142.875,26.6406 Q1142.875,26.2656 1143.1563,26.0313 Q1143.4219,25.7813 1144.0469,25.7969 L1146.7188,19.1406 L1145.6094,19.1406 Q1145,19.1406 1144.7344,18.9063 Q1144.4688,18.6719 1144.4688,18.2813 Q1144.4688,17.9063 1144.7344,17.6719 Q1145,17.4375 1145.6094,17.4375 L1149.2813,17.4375 L1152.6719,25.7969 Q1153.2656,25.7969 1153.4531,25.9375 Q1153.8438,26.2031 1153.8438,26.6563 Q1153.8438,27.0313 1153.5781,27.2656 Q1153.3281,27.5 1152.7188,27.5 L1150.4219,27.5 Q1149.8125,27.5 1149.5469,27.2656 Q1149.2813,27.0313 1149.2813,26.6406 Q1149.2813,26.2656 1149.5469,26.0313 Q1149.8125,25.7969 1150.4219,25.7969 L1150.8438,25.7969 L1150.4375,24.7656 Z M1149.7188,23.0625 L1148.3594,19.6875 L1146.9844,23.0625 L1149.7188,23.0625 Z " fill="#000000"/><text fill="#000000" font-family="sans-serif" font-size="14" font-style="italic" lengthAdjust="spacing" textLength="171" x="1168.75" y="28.7285">DatabaseMetadataAdapter</text><line style="stroke:#181818;stroke-width:0.5;" x1="976.5" x2="1499.5" y1="39" y2="39"/><text fill="#000000" font-family="sans-serif" font-size="14" lengthAdjust="spacing" textLength="34" x="981.5" y="57.5332">id: int</text><text fill="#000000" font-family="sans-serif" font-size="14" lengthAdjust="spacing" textLength="142" x="981.5" y="75.1426">scans: list[ScanResult]</text><line style="stroke:#181818;stroke-width:0.5;" x1="976.5" x2="1499.5" y1="82.2188" y2="82.2188"/><text fill="#000000" font-family="sans-serif" font-size="14" lengthAdjust="spacing" textLength="295" x="981.5" y="100.752">scanStructure(dataSampleSize=0): ScanResult</text><text fill="#000000" font-family="sans-serif" font-size="14" lengthAdjust="spacing" textLength="513" x="981.5" y="118.3613">fetchSamples(dataSampleSize: int, structure:list[DatabaseSchema], cursor): None</text><text fill="#000000" font-family="sans-serif" font-size="14" lengthAdjust="spacing" textLength="193" x="981.5" y="135.9707">def getLastScan(): ScanResult</text></g><!--class ScanResult--><g id="elem_ScanResult"><rect codeLine="97" fill="#F1F1F1" height="171.2656" id="ScanResult" rx="2.5" ry="2.5" style="stroke:#181818;stroke-width:0.5;" width="389" x="840.5" y="203"/><ellipse cx="994.75" cy="219" fill="#ADD1B2" rx="11" ry="11" style="stroke:#181818;stroke-width:1.0;"/><path d="M997.5156,214.875 Q997.6719,214.6563 997.8594,214.5469 Q998.0469,214.4375 998.2656,214.4375 Q998.6406,214.4375 998.875,214.7031 Q999.1094,214.9531 999.1094,215.5625 L999.1094,217.0156 Q999.1094,217.625 998.875,217.8906 Q998.6406,218.1563 998.2656,218.1563 Q997.9219,218.1563 997.7188,217.9531 Q997.5156,217.7656 997.4063,217.25 Q997.3594,216.8906 997.1719,216.7031 Q996.8438,216.3281 996.2344,216.1094 Q995.625,215.8906 995,215.8906 Q994.2344,215.8906 993.5938,216.2188 Q992.9688,216.5469 992.4688,217.2969 Q991.9844,218.0469 991.9844,219.0781 L991.9844,220.1719 Q991.9844,221.4063 992.875,222.2344 Q993.7656,223.0469 995.3594,223.0469 Q996.2969,223.0469 996.9531,222.7969 Q997.3438,222.6406 997.7656,222.2031 Q998.0313,221.9375 998.1719,221.8594 Q998.3281,221.7813 998.5313,221.7813 Q998.8594,221.7813 999.1094,222.0469 Q999.375,222.2969 999.375,222.6406 Q999.375,222.9844 999.0313,223.3906 Q998.5313,223.9688 997.7344,224.2969 Q996.6563,224.75 995.3594,224.75 Q993.8438,224.75 992.6406,224.125 Q991.6563,223.625 990.9688,222.5625 Q990.2813,221.4844 990.2813,220.2031 L990.2813,219.0469 Q990.2813,217.7188 990.8906,216.5781 Q991.5156,215.4219 992.6094,214.8125 Q993.7031,214.1875 994.9375,214.1875 Q995.6719,214.1875 996.3125,214.3594 Q996.9688,214.5156 997.5156,214.875 Z " fill="#000000"/><text fill="#000000" font-family="sans-serif" font-size="14" lengthAdjust="spacing" textLength="72" x="1015.25" y="224.7285">ScanResult</text><line style="stroke:#181818;stroke-width:0.5;" x1="841.5" x2="1228.5" y1="235" y2="235"/><text fill="#000000" font-family="sans-serif" font-size="14" lengthAdjust="spacing" textLength="34" x="846.5" y="253.5332">id: int</text><text fill="#000000" font-family="sans-serif" font-size="14" lengthAdjust="spacing" textLength="59" x="846.5" y="271.1426">name: str</text><text fill="#000000" font-family="sans-serif" font-size="14" lengthAdjust="spacing" textLength="130" x="846.5" y="288.752">executeOn: datetime</text><text fill="#000000" font-family="sans-serif" font-size="14" lengthAdjust="spacing" textLength="201" x="846.5" y="306.3613">schemas: list[DatabaseSchema]</text><text fill="#000000" font-family="sans-serif" font-size="14" lengthAdjust="spacing" textLength="237" x="846.5" y="323.9707">database: DatabaseMetadataAdapter</text><line style="stroke:#181818;stroke-width:0.5;" x1="841.5" x2="1228.5" y1="331.0469" y2="331.0469"/><text fill="#000000" font-family="sans-serif" font-size="14" lengthAdjust="spacing" textLength="377" x="846.5" y="349.5801">__init__(database: DatabaseMetadataAdapter): ScanResult</text><text fill="#000000" font-family="sans-serif" font-size="14" lengthAdjust="spacing" textLength="201" x="846.5" y="367.1895">run(controls: list[Control]): None</text></g><!--class MySQLDatabaseMetadataAdapter--><g id="elem_MySQLDatabaseMetadataAdapter"><rect codeLine="13" fill="#F1F1F1" height="171.2656" id="MySQLDatabaseMetadataAdapter" rx="2.5" ry="2.5" style="stroke:#181818;stroke-width:0.5;" width="355" x="1264.5" y="203"/><ellipse cx="1329.75" cy="219" fill="#ADD1B2" rx="11" ry="11" style="stroke:#181818;stroke-width:1.0;"/><path d="M1332.5156,214.875 Q1332.6719,214.6563 1332.8594,214.5469 Q1333.0469,214.4375 1333.2656,214.4375 Q1333.6406,214.4375 1333.875,214.7031 Q1334.1094,214.9531 1334.1094,215.5625 L1334.1094,217.0156 Q1334.1094,217.625 1333.875,217.8906 Q1333.6406,218.1563 1333.2656,218.1563 Q1332.9219,218.1563 1332.7188,217.9531 Q1332.5156,217.7656 1332.4063,217.25 Q1332.3594,216.8906 1332.1719,216.7031 Q1331.8438,216.3281 1331.2344,216.1094 Q1330.625,215.8906 1330,215.8906 Q1329.2344,215.8906 1328.5938,216.2188 Q1327.9688,216.5469 1327.4688,217.2969 Q1326.9844,218.0469 1326.9844,219.0781 L1326.9844,220.1719 Q1326.9844,221.4063 1327.875,222.2344 Q1328.7656,223.0469 1330.3594,223.0469 Q1331.2969,223.0469 1331.9531,222.7969 Q1332.3438,222.6406 1332.7656,222.2031 Q1333.0313,221.9375 1333.1719,221.8594 Q1333.3281,221.7813 1333.5313,221.7813 Q1333.8594,221.7813 1334.1094,222.0469 Q1334.375,222.2969 1334.375,222.6406 Q1334.375,222.9844 1334.0313,223.3906 Q1333.5313,223.9688 1332.7344,224.2969 Q1331.6563,224.75 1330.3594,224.75 Q1328.8438,224.75 1327.6406,224.125 Q1326.6563,223.625 1325.9688,222.5625 Q1325.2813,221.4844 1325.2813,220.2031 L1325.2813,219.0469 Q1325.2813,217.7188 1325.8906,216.5781 Q1326.5156,215.4219 1327.6094,214.8125 Q1328.7031,214.1875 1329.9375,214.1875 Q1330.6719,214.1875 1331.3125,214.3594 Q1331.9688,214.5156 1332.5156,214.875 Z " fill="#000000"/><text fill="#000000" font-family="sans-serif" font-size="14" lengthAdjust="spacing" textLength="216" x="1350.25" y="224.7285">MySQLDatabaseMetadataAdapter</text><line style="stroke:#181818;stroke-width:0.5;" x1="1265.5" x2="1618.5" y1="235" y2="235"/><text fill="#000000" font-family="sans-serif" font-size="14" lengthAdjust="spacing" textLength="51" x="1270.5" y="253.5332">host: str</text><text fill="#000000" font-family="sans-serif" font-size="14" lengthAdjust="spacing" textLength="48" x="1270.5" y="271.1426">port: int</text><text fill="#000000" font-family="sans-serif" font-size="14" lengthAdjust="spacing" textLength="87" x="1270.5" y="288.752">username: str</text><text fill="#000000" font-family="sans-serif" font-size="14" lengthAdjust="spacing" textLength="84" x="1270.5" y="306.3613">password: str</text><text fill="#000000" font-family="sans-serif" font-size="14" lengthAdjust="spacing" textLength="4" x="1270.5" y="323.9707">&#160;</text><text fill="#000000" font-family="sans-serif" font-size="14" lengthAdjust="spacing" textLength="343" x="1270.5" y="341.5801">mysqlTypesToStandarTypes: dict[str, FieldDataTypes]</text><line style="stroke:#181818;stroke-width:0.5;" x1="1265.5" x2="1618.5" y1="348.6563" y2="348.6563"/><text fill="#000000" font-family="sans-serif" font-size="14" lengthAdjust="spacing" textLength="259" x="1270.5" y="367.1895">__init__(host, port, username, password)</text></g><!--class FieldDataTypes--><g id="elem_FieldDataTypes"><rect codeLine="23" fill="#F1F1F1" height="188.875" id="FieldDataTypes" rx="2.5" ry="2.5" style="stroke:#181818;stroke-width:0.5;" width="132" x="858" y="1251"/><ellipse cx="873" cy="1267" fill="#EB937F" rx="11" ry="11" style="stroke:#181818;stroke-width:1.0;"/><path d="M871.8594,1267.7969 L871.8594,1270.2969 L876.1875,1270.2969 L876.1875,1269.375 Q876.1875,1268.7656 876.4219,1268.5 Q876.6719,1268.2344 877.0469,1268.2344 Q877.4219,1268.2344 877.6563,1268.5 Q877.8906,1268.7656 877.8906,1269.375 L877.8906,1272 L869.8906,1272 Q869.2656,1272 869,1271.7656 Q868.75,1271.5313 868.75,1271.1406 Q868.75,1270.7656 869.0156,1270.5313 Q869.2813,1270.2969 869.8906,1270.2969 L870.1563,1270.2969 L870.1563,1263.6406 L869.8906,1263.6406 Q869.2656,1263.6406 869,1263.4063 Q868.75,1263.1719 868.75,1262.7813 Q868.75,1262.4063 869,1262.1719 Q869.2656,1261.9375 869.8906,1261.9375 L877.5156,1261.9375 L877.5156,1264.5313 Q877.5156,1265.1406 877.2813,1265.4063 Q877.0625,1265.6563 876.6719,1265.6563 Q876.2969,1265.6563 876.0625,1265.4063 Q875.8281,1265.1406 875.8281,1264.5313 L875.8281,1263.6406 L871.8594,1263.6406 L871.8594,1266.0938 L873.3438,1266.0938 Q873.3438,1265.4375 873.4688,1265.25 Q873.7344,1264.8438 874.2031,1264.8438 Q874.5781,1264.8438 874.8125,1265.1094 Q875.0469,1265.3594 875.0469,1265.9688 L875.0469,1267.9375 Q875.0469,1268.4844 874.9219,1268.6719 Q874.6563,1269.0625 874.2031,1269.0625 Q873.7344,1269.0625 873.4688,1268.6563 Q873.3438,1268.4688 873.3438,1267.7969 L871.8594,1267.7969 Z " fill="#000000"/><text fill="#000000" font-family="sans-serif" font-size="14" lengthAdjust="spacing" textLength="100" x="887" y="1272.7285">FieldDataTypes</text><line style="stroke:#181818;stroke-width:0.5;" x1="859" x2="989" y1="1283" y2="1283"/><text fill="#000000" font-family="sans-serif" font-size="14" lengthAdjust="spacing" textLength="51" x="864" y="1301.5332">STRING</text><text fill="#000000" font-family="sans-serif" font-size="14" lengthAdjust="spacing" textLength="60" x="864" y="1319.1426">INTEGER</text><text fill="#000000" font-family="sans-serif" font-size="14" lengthAdjust="spacing" textLength="60" x="864" y="1336.752">DECIMAL</text><text fill="#000000" font-family="sans-serif" font-size="14" lengthAdjust="spacing" textLength="66" x="864" y="1354.3613">BOOLEAN</text><text fill="#000000" font-family="sans-serif" font-size="14" lengthAdjust="spacing" textLength="49" x="864" y="1371.9707">BINARY</text><text fill="#000000" font-family="sans-serif" font-size="14" lengthAdjust="spacing" textLength="32" x="864" y="1389.5801">TIME</text><text fill="#000000" font-family="sans-serif" font-size="14" lengthAdjust="spacing" textLength="37" x="864" y="1407.1895">DATE</text><text fill="#000000" font-family="sans-serif" font-size="14" lengthAdjust="spacing" textLength="69" x="864" y="1424.7988">DATETIME</text><line style="stroke:#181818;stroke-width:0.5;" x1="859" x2="989" y1="1431.875" y2="1431.875"/></g><!--class FieldTag--><g id="elem_FieldTag"><rect codeLine="34" fill="#F1F1F1" height="136.0469" id="FieldTag" rx="2.5" ry="2.5" style="stroke:#181818;stroke-width:0.5;" width="510" x="313" y="1277.5"/><ellipse cx="535.75" cy="1293.5" fill="#ADD1B2" rx="11" ry="11" style="stroke:#181818;stroke-width:1.0;"/><path d="M538.5156,1289.375 Q538.6719,1289.1563 538.8594,1289.0469 Q539.0469,1288.9375 539.2656,1288.9375 Q539.6406,1288.9375 539.875,1289.2031 Q540.1094,1289.4531 540.1094,1290.0625 L540.1094,1291.5156 Q540.1094,1292.125 539.875,1292.3906 Q539.6406,1292.6563 539.2656,1292.6563 Q538.9219,1292.6563 538.7188,1292.4531 Q538.5156,1292.2656 538.4063,1291.75 Q538.3594,1291.3906 538.1719,1291.2031 Q537.8438,1290.8281 537.2344,1290.6094 Q536.625,1290.3906 536,1290.3906 Q535.2344,1290.3906 534.5938,1290.7188 Q533.9688,1291.0469 533.4688,1291.7969 Q532.9844,1292.5469 532.9844,1293.5781 L532.9844,1294.6719 Q532.9844,1295.9063 533.875,1296.7344 Q534.7656,1297.5469 536.3594,1297.5469 Q537.2969,1297.5469 537.9531,1297.2969 Q538.3438,1297.1406 538.7656,1296.7031 Q539.0313,1296.4375 539.1719,1296.3594 Q539.3281,1296.2813 539.5313,1296.2813 Q539.8594,1296.2813 540.1094,1296.5469 Q540.375,1296.7969 540.375,1297.1406 Q540.375,1297.4844 540.0313,1297.8906 Q539.5313,1298.4688 538.7344,1298.7969 Q537.6563,1299.25 536.3594,1299.25 Q534.8438,1299.25 533.6406,1298.625 Q532.6563,1298.125 531.9688,1297.0625 Q531.2813,1295.9844 531.2813,1294.7031 L531.2813,1293.5469 Q531.2813,1292.2188 531.8906,1291.0781 Q532.5156,1289.9219 533.6094,1289.3125 Q534.7031,1288.6875 535.9375,1288.6875 Q536.6719,1288.6875 537.3125,1288.8594 Q537.9688,1289.0156 538.5156,1289.375 Z " fill="#000000"/><text fill="#000000" font-family="sans-serif" font-size="14" lengthAdjust="spacing" textLength="56" x="556.25" y="1299.2285">FieldTag</text><line style="stroke:#181818;stroke-width:0.5;" x1="314" x2="822" y1="1309.5" y2="1309.5"/><text fill="#000000" font-family="sans-serif" font-size="14" lengthAdjust="spacing" textLength="35" x="319" y="1328.0332">id: str</text><text fill="#000000" font-family="sans-serif" font-size="14" lengthAdjust="spacing" textLength="126" x="319" y="1345.6426">field: DatabaseField</text><text fill="#000000" font-family="sans-serif" font-size="14" lengthAdjust="spacing" textLength="115" x="319" y="1363.252">tag: DataTypeTag</text><text fill="#000000" font-family="sans-serif" font-size="14" lengthAdjust="spacing" textLength="117" x="319" y="1380.8613">certanty_score: int</text><line style="stroke:#181818;stroke-width:0.5;" x1="314" x2="822" y1="1387.9375" y2="1387.9375"/><text fill="#000000" font-family="sans-serif" font-size="14" lengthAdjust="spacing" textLength="498" x="319" y="1406.4707">__init__(field: DatabaseField, tag: DataTypeTag, certanty_score: int): FieldTag</text></g><!--class DatabaseField--><g id="elem_DatabaseField"><rect codeLine="45" fill="#F1F1F1" height="241.7031" id="DatabaseField" rx="2.5" ry="2.5" style="stroke:#181818;stroke-width:0.5;" width="374" x="548" y="949"/><ellipse cx="684.75" cy="965" fill="#ADD1B2" rx="11" ry="11" style="stroke:#181818;stroke-width:1.0;"/><path d="M687.5156,960.875 Q687.6719,960.6563 687.8594,960.5469 Q688.0469,960.4375 688.2656,960.4375 Q688.6406,960.4375 688.875,960.7031 Q689.1094,960.9531 689.1094,961.5625 L689.1094,963.0156 Q689.1094,963.625 688.875,963.8906 Q688.6406,964.1563 688.2656,964.1563 Q687.9219,964.1563 687.7188,963.9531 Q687.5156,963.7656 687.4063,963.25 Q687.3594,962.8906 687.1719,962.7031 Q686.8438,962.3281 686.2344,962.1094 Q685.625,961.8906 685,961.8906 Q684.2344,961.8906 683.5938,962.2188 Q682.9688,962.5469 682.4688,963.2969 Q681.9844,964.0469 681.9844,965.0781 L681.9844,966.1719 Q681.9844,967.4063 682.875,968.2344 Q683.7656,969.0469 685.3594,969.0469 Q686.2969,969.0469 686.9531,968.7969 Q687.3438,968.6406 687.7656,968.2031 Q688.0313,967.9375 688.1719,967.8594 Q688.3281,967.7813 688.5313,967.7813 Q688.8594,967.7813 689.1094,968.0469 Q689.375,968.2969 689.375,968.6406 Q689.375,968.9844 689.0313,969.3906 Q688.5313,969.9688 687.7344,970.2969 Q686.6563,970.75 685.3594,970.75 Q683.8438,970.75 682.6406,970.125 Q681.6563,969.625 680.9688,968.5625 Q680.2813,967.4844 680.2813,966.2031 L680.2813,965.0469 Q680.2813,963.7188 680.8906,962.5781 Q681.5156,961.4219 682.6094,960.8125 Q683.7031,960.1875 684.9375,960.1875 Q685.6719,960.1875 686.3125,960.3594 Q686.9688,960.5156 687.5156,960.875 Z " fill="#000000"/><text fill="#000000" font-family="sans-serif" font-size="14" lengthAdjust="spacing" textLength="92" x="705.25" y="970.7285">DatabaseField</text><line style="stroke:#181818;stroke-width:0.5;" x1="549" x2="921" y1="981" y2="981"/><text fill="#000000" font-family="sans-serif" font-size="14" lengthAdjust="spacing" textLength="34" x="554" y="999.5332">id: int</text><text fill="#000000" font-family="sans-serif" font-size="14" lengthAdjust="spacing" textLength="59" x="554" y="1017.1426">name: str</text><text fill="#000000" font-family="sans-serif" font-size="14" lengthAdjust="spacing" textLength="135" x="554" y="1034.752">type: FieldDataTypes</text><text fill="#000000" font-family="sans-serif" font-size="14" lengthAdjust="spacing" textLength="136" x="554" y="1052.3613">table: DatabaseTable</text><text fill="#000000" font-family="sans-serif" font-size="14" lengthAdjust="spacing" textLength="116" x="554" y="1069.9707">tags: list[FieldTag]</text><text fill="#000000" font-family="sans-serif" font-size="14" lengthAdjust="spacing" textLength="132" x="554" y="1087.5801">dataSample: list[Any]</text><line style="stroke:#181818;stroke-width:0.5;" x1="549" x2="921" y1="1094.6563" y2="1094.6563"/><text fill="#000000" font-family="sans-serif" font-size="14" lengthAdjust="spacing" textLength="362" x="554" y="1113.1895">__init__(name: str, type: FieldDataTypes): DatabaseField</text><text fill="#000000" font-family="sans-serif" font-size="14" lengthAdjust="spacing" textLength="90" x="554" y="1130.7988">getName(): str</text><text fill="#000000" font-family="sans-serif" font-size="14" lengthAdjust="spacing" textLength="275" x="554" y="1148.4082">getOrAddTag(tag: DataTypeTag): FieldTag</text><text fill="#000000" font-family="sans-serif" font-size="14" lengthAdjust="spacing" textLength="301" x="554" y="1166.0176">updateTag(tag: DataTypeTag, score: int): None</text><text fill="#000000" font-family="sans-serif" font-size="14" lengthAdjust="spacing" textLength="201" x="554" y="1183.627">run(controls: list[Control]): None</text></g><!--class DataTypeTag--><g id="elem_DataTypeTag"><rect codeLine="111" fill="#F1F1F1" height="118.4375" id="DataTypeTag" rx="2.5" ry="2.5" style="stroke:#181818;stroke-width:0.5;" width="368" x="384" y="1500"/><ellipse cx="520.25" cy="1516" fill="#ADD1B2" rx="11" ry="11" style="stroke:#181818;stroke-width:1.0;"/><path d="M523.0156,1511.875 Q523.1719,1511.6563 523.3594,1511.5469 Q523.5469,1511.4375 523.7656,1511.4375 Q524.1406,1511.4375 524.375,1511.7031 Q524.6094,1511.9531 524.6094,1512.5625 L524.6094,1514.0156 Q524.6094,1514.625 524.375,1514.8906 Q524.1406,1515.1563 523.7656,1515.1563 Q523.4219,1515.1563 523.2188,1514.9531 Q523.0156,1514.7656 522.9063,1514.25 Q522.8594,1513.8906 522.6719,1513.7031 Q522.3438,1513.3281 521.7344,1513.1094 Q521.125,1512.8906 520.5,1512.8906 Q519.7344,1512.8906 519.0938,1513.2188 Q518.4688,1513.5469 517.9688,1514.2969 Q517.4844,1515.0469 517.4844,1516.0781 L517.4844,1517.1719 Q517.4844,1518.4063 518.375,1519.2344 Q519.2656,1520.0469 520.8594,1520.0469 Q521.7969,1520.0469 522.4531,1519.7969 Q522.8438,1519.6406 523.2656,1519.2031 Q523.5313,1518.9375 523.6719,1518.8594 Q523.8281,1518.7813 524.0313,1518.7813 Q524.3594,1518.7813 524.6094,1519.0469 Q524.875,1519.2969 524.875,1519.6406 Q524.875,1519.9844 524.5313,1520.3906 Q524.0313,1520.9688 523.2344,1521.2969 Q522.1563,1521.75 520.8594,1521.75 Q519.3438,1521.75 518.1406,1521.125 Q517.1563,1520.625 516.4688,1519.5625 Q515.7813,1518.4844 515.7813,1517.2031 L515.7813,1516.0469 Q515.7813,1514.7188 516.3906,1513.5781 Q517.0156,1512.4219 518.1094,1511.8125 Q519.2031,1511.1875 520.4375,1511.1875 Q521.1719,1511.1875 521.8125,1511.3594 Q522.4688,1511.5156 523.0156,1511.875 Z " fill="#000000"/><text fill="#000000" font-family="sans-serif" font-size="14" lengthAdjust="spacing" textLength="87" x="540.75" y="1521.7285">DataTypeTag</text><line style="stroke:#181818;stroke-width:0.5;" x1="385" x2="751" y1="1532" y2="1532"/><text fill="#000000" font-family="sans-serif" font-size="14" lengthAdjust="spacing" textLength="30" x="390" y="1550.5332">id: id</text><text fill="#000000" font-family="sans-serif" font-size="14" lengthAdjust="spacing" textLength="59" x="390" y="1568.1426">name: str</text><text fill="#000000" font-family="sans-serif" font-size="14" lengthAdjust="spacing" textLength="154" x="390" y="1585.752">description: Optional[str]</text><line style="stroke:#181818;stroke-width:0.5;" x1="385" x2="751" y1="1592.8281" y2="1592.8281"/><text fill="#000000" font-family="sans-serif" font-size="14" lengthAdjust="spacing" textLength="356" x="390" y="1611.3613">__init__(name: str, description: str=None): DataTypeTag</text></g><!--class DatabaseTable--><g id="elem_DatabaseTable"><rect codeLine="66" fill="#F1F1F1" height="188.875" id="DatabaseTable" rx="2.5" ry="2.5" style="stroke:#181818;stroke-width:0.5;" width="294" x="1481" y="1251"/><ellipse cx="1575.25" cy="1267" fill="#ADD1B2" rx="11" ry="11" style="stroke:#181818;stroke-width:1.0;"/><path d="M1578.0156,1262.875 Q1578.1719,1262.6563 1578.3594,1262.5469 Q1578.5469,1262.4375 1578.7656,1262.4375 Q1579.1406,1262.4375 1579.375,1262.7031 Q1579.6094,1262.9531 1579.6094,1263.5625 L1579.6094,1265.0156 Q1579.6094,1265.625 1579.375,1265.8906 Q1579.1406,1266.1563 1578.7656,1266.1563 Q1578.4219,1266.1563 1578.2188,1265.9531 Q1578.0156,1265.7656 1577.9063,1265.25 Q1577.8594,1264.8906 1577.6719,1264.7031 Q1577.3438,1264.3281 1576.7344,1264.1094 Q1576.125,1263.8906 1575.5,1263.8906 Q1574.7344,1263.8906 1574.0938,1264.2188 Q1573.4688,1264.5469 1572.9688,1265.2969 Q1572.4844,1266.0469 1572.4844,1267.0781 L1572.4844,1268.1719 Q1572.4844,1269.4063 1573.375,1270.2344 Q1574.2656,1271.0469 1575.8594,1271.0469 Q1576.7969,1271.0469 1577.4531,1270.7969 Q1577.8438,1270.6406 1578.2656,1270.2031 Q1578.5313,1269.9375 1578.6719,1269.8594 Q1578.8281,1269.7813 1579.0313,1269.7813 Q1579.3594,1269.7813 1579.6094,1270.0469 Q1579.875,1270.2969 1579.875,1270.6406 Q1579.875,1270.9844 1579.5313,1271.3906 Q1579.0313,1271.9688 1578.2344,1272.2969 Q1577.1563,1272.75 1575.8594,1272.75 Q1574.3438,1272.75 1573.1406,1272.125 Q1572.1563,1271.625 1571.4688,1270.5625 Q1570.7813,1269.4844 1570.7813,1268.2031 L1570.7813,1267.0469 Q1570.7813,1265.7188 1571.3906,1264.5781 Q1572.0156,1263.4219 1573.1094,1262.8125 Q1574.2031,1262.1875 1575.4375,1262.1875 Q1576.1719,1262.1875 1576.8125,1262.3594 Q1577.4688,1262.5156 1578.0156,1262.875 Z " fill="#000000"/><text fill="#000000" font-family="sans-serif" font-size="14" lengthAdjust="spacing" textLength="97" x="1595.75" y="1272.7285">DatabaseTable</text><line style="stroke:#181818;stroke-width:0.5;" x1="1482" x2="1774" y1="1283" y2="1283"/><text fill="#000000" font-family="sans-serif" font-size="14" lengthAdjust="spacing" textLength="35" x="1487" y="1301.5332">id: str</text><text fill="#000000" font-family="sans-serif" font-size="14" lengthAdjust="spacing" textLength="59" x="1487" y="1319.1426">name: str</text><text fill="#000000" font-family="sans-serif" font-size="14" lengthAdjust="spacing" textLength="158" x="1487" y="1336.752">fields: list[DatabaseField]</text><line style="stroke:#181818;stroke-width:0.5;" x1="1482" x2="1774" y1="1343.8281" y2="1343.8281"/><text fill="#000000" font-family="sans-serif" font-size="14" lengthAdjust="spacing" textLength="282" x="1487" y="1362.3613">__init__(name, fields=None): DatabaseTable</text><text fill="#000000" font-family="sans-serif" font-size="14" lengthAdjust="spacing" textLength="232" x="1487" y="1379.9707">addField(field: DatabaseField): None</text><text fill="#000000" font-family="sans-serif" font-size="14" lengthAdjust="spacing" textLength="90" x="1487" y="1397.5801">getName(): str</text><text fill="#000000" font-family="sans-serif" font-size="14" lengthAdjust="spacing" textLength="193" x="1487" y="1415.1895">getFields(): list[DatabaseField]</text><text fill="#000000" font-family="sans-serif" font-size="14" lengthAdjust="spacing" textLength="201" x="1487" y="1432.7988">run(controls: list[Control]): None</text></g><!--class Control--><g id="elem_Control"><rect codeLine="130" fill="#F1F1F1" height="188.875" id="Control" rx="2.5" ry="2.5" style="stroke:#181818;stroke-width:0.5;" width="370" x="593" y="700"/><ellipse cx="750.75" cy="716" fill="#A9DCDF" rx="11" ry="11" style="stroke:#181818;stroke-width:1.0;"/><path d="M752.9375,717.7656 L748.7969,717.7656 L748.375,718.7969 L748.7969,718.7969 Q749.4063,718.7969 749.6719,719.0313 Q749.9375,719.2656 749.9375,719.6563 Q749.9375,720.0313 749.6719,720.2656 Q749.4063,720.5 748.7969,720.5 L746.5,720.5 Q745.8906,720.5 745.6406,720.2656 Q745.375,720.0313 745.375,719.6406 Q745.375,719.2656 745.6563,719.0313 Q745.9219,718.7813 746.5469,718.7969 L749.2188,712.1406 L748.1094,712.1406 Q747.5,712.1406 747.2344,711.9063 Q746.9688,711.6719 746.9688,711.2813 Q746.9688,710.9063 747.2344,710.6719 Q747.5,710.4375 748.1094,710.4375 L751.7813,710.4375 L755.1719,718.7969 Q755.7656,718.7969 755.9531,718.9375 Q756.3438,719.2031 756.3438,719.6563 Q756.3438,720.0313 756.0781,720.2656 Q755.8281,720.5 755.2188,720.5 L752.9219,720.5 Q752.3125,720.5 752.0469,720.2656 Q751.7813,720.0313 751.7813,719.6406 Q751.7813,719.2656 752.0469,719.0313 Q752.3125,718.7969 752.9219,718.7969 L753.3438,718.7969 L752.9375,717.7656 Z M752.2188,716.0625 L750.8594,712.6875 L749.4844,716.0625 L752.2188,716.0625 Z " fill="#000000"/><text fill="#000000" font-family="sans-serif" font-size="14" font-style="italic" lengthAdjust="spacing" textLength="46" x="771.25" y="721.7285">Control</text><line style="stroke:#181818;stroke-width:0.5;" x1="594" x2="962" y1="732" y2="732"/><text fill="#000000" font-family="sans-serif" font-size="14" lengthAdjust="spacing" textLength="34" x="599" y="750.5332">id: int</text><text fill="#000000" font-family="sans-serif" font-size="14" lengthAdjust="spacing" textLength="59" x="599" y="768.1426">name: str</text><text fill="#000000" font-family="sans-serif" font-size="14" lengthAdjust="spacing" textLength="82" x="599" y="785.752">raw_data: str</text><text fill="#000000" font-family="sans-serif" font-size="14" lengthAdjust="spacing" textLength="239" x="599" y="803.3613">affectedTags: list[ControlAffectedTag]</text><line style="stroke:#181818;stroke-width:0.5;" x1="594" x2="962" y1="810.4375" y2="810.4375"/><text fill="#000000" font-family="sans-serif" font-size="14" lengthAdjust="spacing" textLength="358" x="599" y="828.9707">__init__(name: str, affectedTags: dict[DataTypeTag, int])</text><text fill="#000000" font-family="sans-serif" font-size="14" lengthAdjust="spacing" textLength="297" x="599" y="846.5801">__conditionMatches(field: DatabaseField): bool</text><text fill="#000000" font-family="sans-serif" font-size="14" lengthAdjust="spacing" textLength="146" x="599" y="864.1895">getData(): dict[str, Any]</text><text fill="#000000" font-family="sans-serif" font-size="14" lengthAdjust="spacing" textLength="245" x="599" y="881.7988">executeOn(field: DatabaseField): None</text></g><!--class DatabaseSchema--><g id="elem_DatabaseSchema"><rect codeLine="81" fill="#F1F1F1" height="206.4844" id="DatabaseSchema" rx="2.5" ry="2.5" style="stroke:#181818;stroke-width:0.5;" width="314" x="1516" y="434"/><ellipse cx="1612.75" cy="450" fill="#ADD1B2" rx="11" ry="11" style="stroke:#181818;stroke-width:1.0;"/><path d="M1615.5156,445.875 Q1615.6719,445.6563 1615.8594,445.5469 Q1616.0469,445.4375 1616.2656,445.4375 Q1616.6406,445.4375 1616.875,445.7031 Q1617.1094,445.9531 1617.1094,446.5625 L1617.1094,448.0156 Q1617.1094,448.625 1616.875,448.8906 Q1616.6406,449.1563 1616.2656,449.1563 Q1615.9219,449.1563 1615.7188,448.9531 Q1615.5156,448.7656 1615.4063,448.25 Q1615.3594,447.8906 1615.1719,447.7031 Q1614.8438,447.3281 1614.2344,447.1094 Q1613.625,446.8906 1613,446.8906 Q1612.2344,446.8906 1611.5938,447.2188 Q1610.9688,447.5469 1610.4688,448.2969 Q1609.9844,449.0469 1609.9844,450.0781 L1609.9844,451.1719 Q1609.9844,452.4063 1610.875,453.2344 Q1611.7656,454.0469 1613.3594,454.0469 Q1614.2969,454.0469 1614.9531,453.7969 Q1615.3438,453.6406 1615.7656,453.2031 Q1616.0313,452.9375 1616.1719,452.8594 Q1616.3281,452.7813 1616.5313,452.7813 Q1616.8594,452.7813 1617.1094,453.0469 Q1617.375,453.2969 1617.375,453.6406 Q1617.375,453.9844 1617.0313,454.3906 Q1616.5313,454.9688 1615.7344,455.2969 Q1614.6563,455.75 1613.3594,455.75 Q1611.8438,455.75 1610.6406,455.125 Q1609.6563,454.625 1608.9688,453.5625 Q1608.2813,452.4844 1608.2813,451.2031 L1608.2813,450.0469 Q1608.2813,448.7188 1608.8906,447.5781 Q1609.5156,446.4219 1610.6094,445.8125 Q1611.7031,445.1875 1612.9375,445.1875 Q1613.6719,445.1875 1614.3125,445.3594 Q1614.9688,445.5156 1615.5156,445.875 Z " fill="#000000"/><text fill="#000000" font-family="sans-serif" font-size="14" lengthAdjust="spacing" textLength="112" x="1633.25" y="455.7285">DatabaseSchema</text><line style="stroke:#181818;stroke-width:0.5;" x1="1517" x2="1829" y1="466" y2="466"/><text fill="#000000" font-family="sans-serif" font-size="14" lengthAdjust="spacing" textLength="34" x="1522" y="484.5332">id: int</text><text fill="#000000" font-family="sans-serif" font-size="14" lengthAdjust="spacing" textLength="59" x="1522" y="502.1426">name: str</text><text fill="#000000" font-family="sans-serif" font-size="14" lengthAdjust="spacing" textLength="168" x="1522" y="519.752">tables: list[DatabaseTable]</text><line style="stroke:#181818;stroke-width:0.5;" x1="1517" x2="1829" y1="526.8281" y2="526.8281"/><text fill="#000000" font-family="sans-serif" font-size="14" lengthAdjust="spacing" textLength="302" x="1522" y="545.3613">__init__(name, tables=None): DatabaseSchema</text><text fill="#000000" font-family="sans-serif" font-size="14" lengthAdjust="spacing" textLength="90" x="1522" y="562.9707">getName(): str</text><text fill="#000000" font-family="sans-serif" font-size="14" lengthAdjust="spacing" textLength="247" x="1522" y="580.5801">addTable(table: DatabaseTable): None</text><text fill="#000000" font-family="sans-serif" font-size="14" lengthAdjust="spacing" textLength="203" x="1522" y="598.1895">getTables(): list[DatabaseTable]</text><text fill="#000000" font-family="sans-serif" font-size="14" lengthAdjust="spacing" textLength="271" x="1522" y="615.7988">getOrAddTable(name: str): DatabaseTable</text><text fill="#000000" font-family="sans-serif" font-size="14" lengthAdjust="spacing" textLength="201" x="1522" y="633.4082">run(controls: list[Control]): None</text></g><!--class ControlAffectedTag--><g id="elem_ControlAffectedTag"><rect codeLine="120" fill="#F1F1F1" height="118.4375" id="ControlAffectedTag" rx="2.5" ry="2.5" style="stroke:#181818;stroke-width:0.5;" width="506" x="7" y="1011"/><ellipse cx="194.25" cy="1027" fill="#ADD1B2" rx="11" ry="11" style="stroke:#181818;stroke-width:1.0;"/><path d="M197.0156,1022.875 Q197.1719,1022.6563 197.3594,1022.5469 Q197.5469,1022.4375 197.7656,1022.4375 Q198.1406,1022.4375 198.375,1022.7031 Q198.6094,1022.9531 198.6094,1023.5625 L198.6094,1025.0156 Q198.6094,1025.625 198.375,1025.8906 Q198.1406,1026.1563 197.7656,1026.1563 Q197.4219,1026.1563 197.2188,1025.9531 Q197.0156,1025.7656 196.9063,1025.25 Q196.8594,1024.8906 196.6719,1024.7031 Q196.3438,1024.3281 195.7344,1024.1094 Q195.125,1023.8906 194.5,1023.8906 Q193.7344,1023.8906 193.0938,1024.2188 Q192.4688,1024.5469 191.9688,1025.2969 Q191.4844,1026.0469 191.4844,1027.0781 L191.4844,1028.1719 Q191.4844,1029.4063 192.375,1030.2344 Q193.2656,1031.0469 194.8594,1031.0469 Q195.7969,1031.0469 196.4531,1030.7969 Q196.8438,1030.6406 197.2656,1030.2031 Q197.5313,1029.9375 197.6719,1029.8594 Q197.8281,1029.7813 198.0313,1029.7813 Q198.3594,1029.7813 198.6094,1030.0469 Q198.875,1030.2969 198.875,1030.6406 Q198.875,1030.9844 198.5313,1031.3906 Q198.0313,1031.9688 197.2344,1032.2969 Q196.1563,1032.75 194.8594,1032.75 Q193.3438,1032.75 192.1406,1032.125 Q191.1563,1031.625 190.4688,1030.5625 Q189.7813,1029.4844 189.7813,1028.2031 L189.7813,1027.0469 Q189.7813,1025.7188 190.3906,1024.5781 Q191.0156,1023.4219 192.1094,1022.8125 Q193.2031,1022.1875 194.4375,1022.1875 Q195.1719,1022.1875 195.8125,1022.3594 Q196.4688,1022.5156 197.0156,1022.875 Z " fill="#000000"/><text fill="#000000" font-family="sans-serif" font-size="14" lengthAdjust="spacing" textLength="123" x="214.75" y="1032.7285">ControlAffectedTag</text><line style="stroke:#181818;stroke-width:0.5;" x1="8" x2="512" y1="1043" y2="1043"/><text fill="#000000" font-family="sans-serif" font-size="14" lengthAdjust="spacing" textLength="34" x="13" y="1061.5332">id: int</text><text fill="#000000" font-family="sans-serif" font-size="14" lengthAdjust="spacing" textLength="97" x="13" y="1079.1426">control: Control</text><text fill="#000000" font-family="sans-serif" font-size="14" lengthAdjust="spacing" textLength="115" x="13" y="1096.752">tag: DataTypeTag</text><line style="stroke:#181818;stroke-width:0.5;" x1="8" x2="512" y1="1103.8281" y2="1103.8281"/><text fill="#000000" font-family="sans-serif" font-size="14" lengthAdjust="spacing" textLength="494" x="13" y="1122.3613">__init__(control: Control, tag: DataTypeTag, affectedScoreBy: int): ControlTag</text></g><!--class RegExOnFieldNameControl--><g id="elem_RegExOnFieldNameControl"><rect codeLine="144" fill="#F1F1F1" height="83.2188" id="RegExOnFieldNameControl" rx="2.5" ry="2.5" style="stroke:#181818;stroke-width:0.5;" width="618" x="957" y="1028.5"/><ellipse cx="1175.25" cy="1044.5" fill="#ADD1B2" rx="11" ry="11" style="stroke:#181818;stroke-width:1.0;"/><path d="M1178.0156,1040.375 Q1178.1719,1040.1563 1178.3594,1040.0469 Q1178.5469,1039.9375 1178.7656,1039.9375 Q1179.1406,1039.9375 1179.375,1040.2031 Q1179.6094,1040.4531 1179.6094,1041.0625 L1179.6094,1042.5156 Q1179.6094,1043.125 1179.375,1043.3906 Q1179.1406,1043.6563 1178.7656,1043.6563 Q1178.4219,1043.6563 1178.2188,1043.4531 Q1178.0156,1043.2656 1177.9063,1042.75 Q1177.8594,1042.3906 1177.6719,1042.2031 Q1177.3438,1041.8281 1176.7344,1041.6094 Q1176.125,1041.3906 1175.5,1041.3906 Q1174.7344,1041.3906 1174.0938,1041.7188 Q1173.4688,1042.0469 1172.9688,1042.7969 Q1172.4844,1043.5469 1172.4844,1044.5781 L1172.4844,1045.6719 Q1172.4844,1046.9063 1173.375,1047.7344 Q1174.2656,1048.5469 1175.8594,1048.5469 Q1176.7969,1048.5469 1177.4531,1048.2969 Q1177.8438,1048.1406 1178.2656,1047.7031 Q1178.5313,1047.4375 1178.6719,1047.3594 Q1178.8281,1047.2813 1179.0313,1047.2813 Q1179.3594,1047.2813 1179.6094,1047.5469 Q1179.875,1047.7969 1179.875,1048.1406 Q1179.875,1048.4844 1179.5313,1048.8906 Q1179.0313,1049.4688 1178.2344,1049.7969 Q1177.1563,1050.25 1175.8594,1050.25 Q1174.3438,1050.25 1173.1406,1049.625 Q1172.1563,1049.125 1171.4688,1048.0625 Q1170.7813,1046.9844 1170.7813,1045.7031 L1170.7813,1044.5469 Q1170.7813,1043.2188 1171.3906,1042.0781 Q1172.0156,1040.9219 1173.1094,1040.3125 Q1174.2031,1039.6875 1175.4375,1039.6875 Q1176.1719,1039.6875 1176.8125,1039.8594 Q1177.4688,1040.0156 1178.0156,1040.375 Z " fill="#000000"/><text fill="#000000" font-family="sans-serif" font-size="14" lengthAdjust="spacing" textLength="173" x="1195.75" y="1050.2285">RegExOnFieldNameControl</text><line style="stroke:#181818;stroke-width:0.5;" x1="958" x2="1574" y1="1060.5" y2="1060.5"/><line style="stroke:#181818;stroke-width:0.5;" x1="958" x2="1574" y1="1068.5" y2="1068.5"/><text fill="#000000" font-family="sans-serif" font-size="14" lengthAdjust="spacing" textLength="606" x="963" y="1087.0332">__init__(name: str, affectedTags: dict[DataTypeTag, int], regex :str): RegExOnFieldNameControl</text><text fill="#000000" font-family="sans-serif" font-size="14" lengthAdjust="spacing" textLength="95" x="963" y="1104.6426">getRegEx(): str</text></g><!--link DatabaseMetadataAdapter to ScanResult--><g id="link_DatabaseMetadataAdapter_ScanResult"><path codeLine="11" d="M1161.53,143.21 C1142.49,162.2 1126.345,178.7341 1107.705,198.6041 " fill="none" id="DatabaseMetadataAdapter-to-ScanResult" style="stroke:#181818;stroke-width:1.0;"/><polygon fill="#181818" points="1103.6,202.98,1112.6748,199.1528,1107.0209,199.3334,1106.8403,193.6794,1103.6,202.98" style="stroke:#181818;stroke-width:1.0;"/><text fill="#000000" font-family="sans-serif" font-size="13" lengthAdjust="spacing" textLength="5" x="1104.487" y="192.1498">*</text></g><!--link ScanResult to DatabaseMetadataAdapter--><g id="link_ScanResult_DatabaseMetadataAdapter"><path codeLine="108" d="M1129.38,202.98 C1148.91,183.11 1164.7404,166.6273 1182.1104,147.6373 " fill="none" id="ScanResult-to-DatabaseMetadataAdapter" style="stroke:#181818;stroke-width:1.0;"/><polygon fill="#181818" points="1186.16,143.21,1177.1341,147.1512,1182.7853,146.8994,1183.0371,152.5506,1186.16,143.21" style="stroke:#181818;stroke-width:1.0;"/></g><!--reverse link DatabaseMetadataAdapter to MySQLDatabaseMetadataAdapter--><g id="link_DatabaseMetadataAdapter_MySQLDatabaseMetadataAdapter"><path d="M1315.3238,156.1678 C1333.6338,175.1578 1341.31,183.11 1360.48,202.98 " fill="none" id="DatabaseMetadataAdapter-backto-MySQLDatabaseMetadataAdapter" style="stroke:#181818;stroke-width:1.0;"/><polygon fill="none" points="1302.83,143.21,1311.0045,160.3324,1319.6431,152.0032,1302.83,143.21" style="stroke:#181818;stroke-width:1.0;"/></g><!--link FieldTag to DatabaseField--><g id="link_FieldTag_DatabaseField"><path codeLine="42" d="M620.76,1277.42 C638.01,1251.44 654.1233,1226.0251 671.8333,1196.5051 " fill="none" id="FieldTag-to-DatabaseField" style="stroke:#181818;stroke-width:1.0;"/><polygon fill="#181818" points="674.92,1191.36,666.8598,1197.0199,672.3477,1195.6476,673.72,1201.1355,674.92,1191.36" style="stroke:#181818;stroke-width:1.0;"/></g><!--link DatabaseField to FieldTag--><g id="link_DatabaseField_FieldTag"><path codeLine="62" d="M648.84,1191.36 C630.52,1220.88 615.3033,1246.2059 600.7433,1272.1859 " fill="none" id="DatabaseField-to-FieldTag" style="stroke:#181818;stroke-width:1.0;"/><polygon fill="#181818" points="597.81,1277.42,605.6994,1271.5244,600.2544,1273.0583,598.7206,1267.6133,597.81,1277.42" style="stroke:#181818;stroke-width:1.0;"/><text fill="#000000" font-family="sans-serif" font-size="13" lengthAdjust="spacing" textLength="5" x="595.797" y="1266.6105">*</text></g><!--link FieldTag to DataTypeTag--><g id="link_FieldTag_DataTypeTag"><path codeLine="43" d="M568,1413.71 C568,1441.41 568,1467.2 568,1493.87 " fill="none" id="FieldTag-to-DataTypeTag" style="stroke:#181818;stroke-width:1.0;"/><polygon fill="#181818" points="568,1499.87,572,1490.87,568,1494.87,564,1490.87,568,1499.87" style="stroke:#181818;stroke-width:1.0;"/></g><!--link DatabaseField to FieldDataTypes--><g id="link_DatabaseField_FieldDataTypes"><path codeLine="60" d="M818.17,1191.36 C831.94,1211.28 842.6184,1226.7343 855.8484,1245.8743 " fill="none" id="DatabaseField-to-FieldDataTypes" style="stroke:#181818;stroke-width:1.0;"/><polygon fill="#181818" points="859.26,1250.81,857.433,1241.1321,856.417,1246.697,850.8521,1245.6809,859.26,1250.81" style="stroke:#181818;stroke-width:1.0;"/></g><!--link DatabaseField to DatabaseTable--><g id="link_DatabaseField_DatabaseTable"><path codeLine="61" d="M922.43,1191.17 C1107.53,1264.06 1328.9015,1305.3129 1474.7515,1326.3629 " fill="none" id="DatabaseField-to-DatabaseTable" style="stroke:#181818;stroke-width:1.0;"/><polygon fill="#181818" points="1480.69,1327.22,1472.3537,1321.9754,1475.7413,1326.5058,1471.2109,1329.8934,1480.69,1327.22" style="stroke:#181818;stroke-width:1.0;"/></g><!--link DatabaseTable to DatabaseField--><g id="link_DatabaseTable_DatabaseField"><path codeLine="78" d="M1481,1323.18 C1342.44,1300.95 1131.01,1259.59 957,1191 C945.44,1186.44 939.1759,1183.8723 927.5359,1178.3223 " fill="none" id="DatabaseTable-to-DatabaseField" style="stroke:#181818;stroke-width:1.0;"/><polygon fill="#181818" points="922.12,1175.74,928.5223,1183.224,926.6332,1177.8919,931.9653,1176.0029,922.12,1175.74" style="stroke:#181818;stroke-width:1.0;"/><text fill="#000000" font-family="sans-serif" font-size="13" lengthAdjust="spacing" textLength="5" x="930.1196" y="1177.3722">*</text></g><!--link DatabaseField to DataTypeTag--><g id="link_DatabaseField_DataTypeTag"><path codeLine="63" d="M922.18,1185.74 C965.56,1214.2 1000.97,1239.78 1007,1251 C1046.76,1324.99 1058.11,1373.34 1007,1440 C975.04,1481.69 863.5006,1510.8425 758.1306,1530.2625 " fill="none" id="DatabaseField-to-DataTypeTag" style="stroke:#181818;stroke-width:1.0;stroke-dasharray:7.0,7.0;"/><polygon fill="#181818" points="752.23,1531.35,761.8059,1533.6525,757.1472,1530.4437,760.3559,1525.785,752.23,1531.35" style="stroke:#181818;stroke-width:1.0;"/></g><!--link DatabaseField to Control--><g id="link_DatabaseField_Control"><path codeLine="64" d="M767.31,948.8 C770.66,928.85 772.9398,914.3716 775.3898,895.1916 " fill="none" id="DatabaseField-to-Control" style="stroke:#181818;stroke-width:1.0;stroke-dasharray:7.0,7.0;"/><polygon fill="#181818" points="776.15,889.24,771.0419,897.6606,775.5165,894.1997,778.9774,898.6743,776.15,889.24" style="stroke:#181818;stroke-width:1.0;"/><text fill="#000000" font-family="sans-serif" font-size="13" lengthAdjust="spacing" textLength="5" x="770.8305" y="910.2976">*</text></g><!--link Control to DatabaseField--><g id="link_Control_DatabaseField"><path codeLine="142" d="M751.09,889.24 C747.54,908.42 745.0448,922.9141 742.1048,942.8641 " fill="none" id="Control-to-DatabaseField" style="stroke:#181818;stroke-width:1.0;stroke-dasharray:7.0,7.0;"/><polygon fill="#181818" points="741.23,948.8,746.4994,940.4793,741.959,943.8534,738.5849,939.313,741.23,948.8" style="stroke:#181818;stroke-width:1.0;"/></g><!--link DatabaseTable to DatabaseSchema--><g id="link_DatabaseTable_DatabaseSchema"><path codeLine="77" d="M1660.63,1250.93 C1663.75,1231.18 1666.27,1210.44 1668,1191 C1685.3,996.65 1689.946,774.6865 1685.526,646.0065 " fill="none" id="DatabaseTable-to-DatabaseSchema" style="stroke:#181818;stroke-width:1.0;"/><polygon fill="#181818" points="1685.32,640.01,1681.6313,649.142,1685.4916,645.0071,1689.6266,648.8674,1685.32,640.01" style="stroke:#181818;stroke-width:1.0;"/></g><!--link DatabaseSchema to DatabaseTable--><g id="link_DatabaseSchema_DatabaseTable"><path codeLine="94" d="M1660.94,640.01 C1654.74,768.69 1650.3,996.65 1633,1191 C1631.27,1210.44 1629.453,1225.2213 1627.123,1244.9713 " fill="none" id="DatabaseSchema-to-DatabaseTable" style="stroke:#181818;stroke-width:1.0;"/><polygon fill="#181818" points="1626.42,1250.93,1631.4469,1242.4606,1627.0058,1245.9644,1623.502,1241.5233,1626.42,1250.93" style="stroke:#181818;stroke-width:1.0;"/><text fill="#000000" font-family="sans-serif" font-size="13" lengthAdjust="spacing" textLength="5" x="1621.0949" y="1240.2706">*</text></g><!--link DatabaseTable to Control--><g id="link_DatabaseTable_Control"><path codeLine="79" d="M1648.64,1250.89 C1662.33,1161.85 1666.27,1029.82 1593,949 C1510.68,858.2 1183.3849,820.7053 969.3449,805.4953 " fill="none" id="DatabaseTable-to-Control" style="stroke:#181818;stroke-width:1.0;stroke-dasharray:7.0,7.0;"/><polygon fill="#181818" points="963.36,805.07,972.0538,809.6979,968.3474,805.4244,972.6209,801.718,963.36,805.07" style="stroke:#181818;stroke-width:1.0;"/><text fill="#000000" font-family="sans-serif" font-size="13" lengthAdjust="spacing" textLength="5" x="971.2853" y="802.6836">*</text></g><!--link DatabaseSchema to DatabaseMetadataAdapter--><g id="link_DatabaseSchema_DatabaseMetadataAdapter"><path codeLine="93" d="M1689.08,433.98 C1694.57,361.73 1689.07,266.71 1637,203 C1602.04,160.22 1558.3063,133.7071 1506.1663,114.6771 " fill="none" id="DatabaseSchema-to-DatabaseMetadataAdapter" style="stroke:#181818;stroke-width:1.0;"/><polygon fill="#181818" points="1500.53,112.62,1507.6131,119.4633,1505.2269,114.3343,1510.3559,111.9482,1500.53,112.62" style="stroke:#181818;stroke-width:1.0;"/></g><!--link DatabaseSchema to Control--><g id="link_DatabaseSchema_Control"><path codeLine="95" d="M1515.82,582.87 C1361.62,626.89 1132.2796,692.3631 969.0596,738.9531 " fill="none" id="DatabaseSchema-to-Control" style="stroke:#181818;stroke-width:1.0;stroke-dasharray:7.0,7.0;"/><polygon fill="#181818" points="963.29,740.6,973.0423,741.9761,968.098,739.2276,970.8464,734.2833,963.29,740.6" style="stroke:#181818;stroke-width:1.0;"/><text fill="#000000" font-family="sans-serif" font-size="13" lengthAdjust="spacing" textLength="5" x="971.2124" y="735.4938">*</text></g><!--link ScanResult to DatabaseSchema--><g id="link_ScanResult_DatabaseSchema"><path codeLine="107" d="M1229.61,367.21 C1235.47,369.5 1241.28,371.77 1247,374 C1335.85,408.6 1429.8278,444.3979 1510.3578,474.8479 " fill="none" id="ScanResult-to-DatabaseSchema" style="stroke:#181818;stroke-width:1.0;"/><polygon fill="#181818" points="1515.97,476.97,1508.9664,470.0454,1511.2932,475.2016,1506.137,477.5283,1515.97,476.97" style="stroke:#181818;stroke-width:1.0;"/><text fill="#000000" font-family="sans-serif" font-size="13" lengthAdjust="spacing" textLength="5" x="1503.2428" y="471.1667">*</text></g><!--link ScanResult to Control--><g id="link_ScanResult_Control"><path codeLine="109" d="M991.84,374.14 C945.87,464.29 876.0458,601.2249 828.4158,694.6249 " fill="none" id="ScanResult-to-Control" style="stroke:#181818;stroke-width:1.0;stroke-dasharray:7.0,7.0;"/><polygon fill="#181818" points="825.69,699.97,833.3421,693.7695,827.9615,695.5157,826.2153,690.1352,825.69,699.97" style="stroke:#181818;stroke-width:1.0;"/><text fill="#000000" font-family="sans-serif" font-size="13" lengthAdjust="spacing" textLength="5" x="824.4323" y="688.9941">*</text></g><!--link ControlAffectedTag to Control--><g id="link_ControlAffectedTag_Control"><path codeLine="127" d="M381.17,1010.97 C450.49,975.57 532.9925,932.3359 608.4125,891.8859 " fill="none" id="ControlAffectedTag-to-Control" style="stroke:#181818;stroke-width:1.0;"/><polygon fill="#181818" points="613.7,889.05,603.8781,889.7788,609.2937,891.4132,607.6593,896.8288,613.7,889.05" style="stroke:#181818;stroke-width:1.0;"/></g><!--link Control to ControlAffectedTag--><g id="link_Control_ControlAffectedTag"><path codeLine="141" d="M592.69,886.95 C513.98,927.87 430.6877,972.0176 364.6677,1008.0176 " fill="none" id="Control-to-ControlAffectedTag" style="stroke:#181818;stroke-width:1.0;"/><polygon fill="#181818" points="359.4,1010.89,369.2166,1010.0932,363.7898,1008.4963,365.3866,1003.0695,359.4,1010.89" style="stroke:#181818;stroke-width:1.0;"/><text fill="#000000" font-family="sans-serif" font-size="13" lengthAdjust="spacing" textLength="5" x="366.2097" y="1000.2008">*</text></g><!--link ControlAffectedTag to DataTypeTag--><g id="link_ControlAffectedTag_DataTypeTag"><path codeLine="128" d="M248.71,1129.08 C236.88,1207.54 228.21,1348.14 295,1440 C317.39,1470.8 344.1551,1491.0037 378.5851,1507.9237 " fill="none" id="ControlAffectedTag-to-DataTypeTag" style="stroke:#181818;stroke-width:1.0;"/><polygon fill="#181818" points="383.97,1510.57,377.6569,1503.0106,379.4826,1508.3647,374.1285,1510.1905,383.97,1510.57" style="stroke:#181818;stroke-width:1.0;"/></g><!--reverse link Control to RegExOnFieldNameControl--><g id="link_Control_RegExOnFieldNameControl"><path d="M960.6219,897.8507 C1045.3519,945.3407 1128.21,991.78 1193.55,1028.4 " fill="none" id="Control-backto-RegExOnFieldNameControl" style="stroke:#181818;stroke-width:1.0;"/><polygon fill="none" points="944.92,889.05,957.6883,903.0846,963.5554,892.6167,944.92,889.05" style="stroke:#181818;stroke-width:1.0;"/></g><!--SRC=[dLPRRvim57xdLw0-9HEjzepKIRJDgaYvQ24lKnL53foaI0GoswZDflxtsSSsO319jxp4-Dm-V-TYantZb2JSJtB2cFz4EDaH1dFW91NhA2Kd3lIFvujVbeP-Ld1SiuGKBFJpZF6NMAnNmAgSRxnQ67DQ9RoYC99-Od8yvH1dl-7-wpZq6mlKtmDFNfKAwwXZnC1dnbk84GtCE7c58za4Vb9HLbBXUL4MW3vJsFi7u3F2k8msigD-U0CdzMzll_atNsxQofxYPdwEVyo6pE2TGv5U8V2rP3oKPy6lKqbvGsZ5W1Ra22sv2FfMqbJjuDRnp7xbw_C9sBgCEIbIGl4hzDCiuIz2B_2_Pv2d4WPADcYttMP5nhVRaKGGOEIWZXZKaSQ25m-AwjXnej37wzLqyOpBwM8zUPwiSFqqUPpEenck7vRBsIHQgFLq4Qr-ud8zdK-KRhHk5hZxOTZ5Y6joQ4hDyB2Nah1c5XLHmCb1RKkGmXGt4w2267xUigIagdmycmENlw3dB71v4aLaS0haPearOyFhYGn4p-uprEjtbrq8NDY6dPHe0dOvD2TPoq_3Z6bEWqGLGjDSMXmLvqs7dpfuu8myTgL2TDf2cCakCwZ5rf96gOmzwfBRvX6B_oI0WKjJj7wR_RgzQLMCahBWjCpDIH_LvyQeYTAoW68kEYps5Mmo-t8v6shijlZkpivrNogDDSnk9M2yVl7RbO2bQyvhkNSbCT3wzvAEiQjEI9gYjRCdsdIxyujgJ6ww07qwJHOkAmbglZiK995s5TewLyXMVg_sdNJLPHlzkzbM-bsszHa6M2IoGOJPoDNBdGpWNfzkZSZkEUcoFeqpz_-K6dK8ApUT6ywbsiwItKzQQI1DpTrxBKNm3ad5OLc4ShG1puwWNo3IVpTt-hbGJqAv5muUo4xnLVt-i-PJ33SsFSfqvNGqXk2sr2vKlvvDBLvJ1wqfi8Hc9vwLWjWb_fDSFYykt1MMZTXfzu6PY68aQomQMhJVGyB1llXDgZLtONqEvwLl0-hQk2vseeF6ycPvE9kxHLied7ryIBv1CY2sS17xQQrDhbKq9MzRcTRMY6Y2TCge5Vv2OcnxV2XQT0WScx6s5lIbcKpXd8WdkHWs0nV3hjJf41D7okHGQfwW-AYmslFY1LEpNNT0_torYhbacyclAse5Xydxii0zEMMDWNcPM_p_Bq-1J-40xtwefkf0JCCCYisq__3-0W00]--></g></svg>