<?xml version="1.0" encoding="us-ascii" standalone="no"?><svg xmlns="http://www.w3.org/2000/svg" xmlns:xlink="http://www.w3.org/1999/xlink" contentStyleType="text/css" height="1625px" preserveAspectRatio="none" style="width:1885px;height:1625px;background:#FFFFFF;" version="1.1" viewBox="0 0 1885 1625" width="1885px" zoomAndPan="magnify"><defs/><g><!--class DatabaseMetadataAdapter--><g id="elem_DatabaseMetadataAdapter"><rect codeLine="3" fill="#F1F1F1" height="136.0469" id="DatabaseMetadataAdapter" rx="2.5" ry="2.5" style="stroke:#181818;stroke-width:0.5;" width="525" x="191.5" y="7"/><ellipse cx="364.25" cy="23" fill="#A9DCDF" rx="11" ry="11" style="stroke:#181818;stroke-width:1.0;"/><path d="M366.4375,24.7656 L362.2969,24.7656 L361.875,25.7969 L362.2969,25.7969 Q362.9063,25.7969 363.1719,26.0313 Q363.4375,26.2656 363.4375,26.6563 Q363.4375,27.0313 363.1719,27.2656 Q362.9063,27.5 362.2969,27.5 L360,27.5 Q359.3906,27.5 359.1406,27.2656 Q358.875,27.0313 358.875,26.6406 Q358.875,26.2656 359.1563,26.0313 Q359.4219,25.7813 360.0469,25.7969 L362.7188,19.1406 L361.6094,19.1406 Q361,19.1406 360.7344,18.9063 Q360.4688,18.6719 360.4688,18.2813 Q360.4688,17.9063 360.7344,17.6719 Q361,17.4375 361.6094,17.4375 L365.2813,17.4375 L368.6719,25.7969 Q369.2656,25.7969 369.4531,25.9375 Q369.8438,26.2031 369.8438,26.6563 Q369.8438,27.0313 369.5781,27.2656 Q369.3281,27.5 368.7188,27.5 L366.4219,27.5 Q365.8125,27.5 365.5469,27.2656 Q365.2813,27.0313 365.2813,26.6406 Q365.2813,26.2656 365.5469,26.0313 Q365.8125,25.7969 366.4219,25.7969 L366.8438,25.7969 L366.4375,24.7656 Z M365.7188,23.0625 L364.3594,19.6875 L362.9844,23.0625 L365.7188,23.0625 Z " fill="#000000"/><text fill="#000000" font-family="sans-serif" font-size="14" font-style="italic" lengthAdjust="spacing" textLength="171" x="384.75" y="28.7285">DatabaseMetadataAdapter</text><line style="stroke:#181818;stroke-width:0.5;" x1="192.5" x2="715.5" y1="39" y2="39"/><text fill="#000000" font-family="sans-serif" font-size="14" lengthAdjust="spacing" textLength="34" x="197.5" y="57.5332">id: int</text><text fill="#000000" font-family="sans-serif" font-size="14" lengthAdjust="spacing" textLength="142" x="197.5" y="75.1426">scans: list[ScanResult]</text><line style="stroke:#181818;stroke-width:0.5;" x1="192.5" x2="715.5" y1="82.2188" y2="82.2188"/><text fill="#000000" font-family="sans-serif" font-size="14" lengthAdjust="spacing" textLength="295" x="197.5" y="100.752">scanStructure(dataSampleSize=0): ScanResult</text><text fill="#000000" font-family="sans-serif" font-size="14" lengthAdjust="spacing" textLength="513" x="197.5" y="118.3613">fetchSamples(dataSampleSize: int, structure:list[DatabaseSchema], cursor): None</text><text fill="#000000" font-family="sans-serif" font-size="14" lengthAdjust="spacing" textLength="193" x="197.5" y="135.9707">def getLastScan(): ScanResult</text></g><!--class ScanResult--><g id="elem_ScanResult"><rect codeLine="89" fill="#F1F1F1" height="171.2656" id="ScanResult" rx="2.5" ry="2.5" style="stroke:#181818;stroke-width:0.5;" width="389" x="56.5" y="203"/><ellipse cx="210.75" cy="219" fill="#ADD1B2" rx="11" ry="11" style="stroke:#181818;stroke-width:1.0;"/><path d="M213.5156,214.875 Q213.6719,214.6563 213.8594,214.5469 Q214.0469,214.4375 214.2656,214.4375 Q214.6406,214.4375 214.875,214.7031 Q215.1094,214.9531 215.1094,215.5625 L215.1094,217.0156 Q215.1094,217.625 214.875,217.8906 Q214.6406,218.1563 214.2656,218.1563 Q213.9219,218.1563 213.7188,217.9531 Q213.5156,217.7656 213.4063,217.25 Q213.3594,216.8906 213.1719,216.7031 Q212.8438,216.3281 212.2344,216.1094 Q211.625,215.8906 211,215.8906 Q210.2344,215.8906 209.5938,216.2188 Q208.9688,216.5469 208.4688,217.2969 Q207.9844,218.0469 207.9844,219.0781 L207.9844,220.1719 Q207.9844,221.4063 208.875,222.2344 Q209.7656,223.0469 211.3594,223.0469 Q212.2969,223.0469 212.9531,222.7969 Q213.3438,222.6406 213.7656,222.2031 Q214.0313,221.9375 214.1719,221.8594 Q214.3281,221.7813 214.5313,221.7813 Q214.8594,221.7813 215.1094,222.0469 Q215.375,222.2969 215.375,222.6406 Q215.375,222.9844 215.0313,223.3906 Q214.5313,223.9688 213.7344,224.2969 Q212.6563,224.75 211.3594,224.75 Q209.8438,224.75 208.6406,224.125 Q207.6563,223.625 206.9688,222.5625 Q206.2813,221.4844 206.2813,220.2031 L206.2813,219.0469 Q206.2813,217.7188 206.8906,216.5781 Q207.5156,215.4219 208.6094,214.8125 Q209.7031,214.1875 210.9375,214.1875 Q211.6719,214.1875 212.3125,214.3594 Q212.9688,214.5156 213.5156,214.875 Z " fill="#000000"/><text fill="#000000" font-family="sans-serif" font-size="14" lengthAdjust="spacing" textLength="72" x="231.25" y="224.7285">ScanResult</text><line style="stroke:#181818;stroke-width:0.5;" x1="57.5" x2="444.5" y1="235" y2="235"/><text fill="#000000" font-family="sans-serif" font-size="14" lengthAdjust="spacing" textLength="34" x="62.5" y="253.5332">id: int</text><text fill="#000000" font-family="sans-serif" font-size="14" lengthAdjust="spacing" textLength="59" x="62.5" y="271.1426">name: str</text><text fill="#000000" font-family="sans-serif" font-size="14" lengthAdjust="spacing" textLength="130" x="62.5" y="288.752">executeOn: datetime</text><text fill="#000000" font-family="sans-serif" font-size="14" lengthAdjust="spacing" textLength="201" x="62.5" y="306.3613">schemas: list[DatabaseSchema]</text><text fill="#000000" font-family="sans-serif" font-size="14" lengthAdjust="spacing" textLength="237" x="62.5" y="323.9707">database: DatabaseMetadataAdapter</text><line style="stroke:#181818;stroke-width:0.5;" x1="57.5" x2="444.5" y1="331.0469" y2="331.0469"/><text fill="#000000" font-family="sans-serif" font-size="14" lengthAdjust="spacing" textLength="377" x="62.5" y="349.5801">__init__(database: DatabaseMetadataAdapter): ScanResult</text><text fill="#000000" font-family="sans-serif" font-size="14" lengthAdjust="spacing" textLength="201" x="62.5" y="367.1895">run(controls: list[Control]): None</text></g><!--class MySQLDatabaseMetadataAdapter--><g id="elem_MySQLDatabaseMetadataAdapter"><rect codeLine="13" fill="#F1F1F1" height="171.2656" id="MySQLDatabaseMetadataAdapter" rx="2.5" ry="2.5" style="stroke:#181818;stroke-width:0.5;" width="355" x="480.5" y="203"/><ellipse cx="545.75" cy="219" fill="#ADD1B2" rx="11" ry="11" style="stroke:#181818;stroke-width:1.0;"/><path d="M548.5156,214.875 Q548.6719,214.6563 548.8594,214.5469 Q549.0469,214.4375 549.2656,214.4375 Q549.6406,214.4375 549.875,214.7031 Q550.1094,214.9531 550.1094,215.5625 L550.1094,217.0156 Q550.1094,217.625 549.875,217.8906 Q549.6406,218.1563 549.2656,218.1563 Q548.9219,218.1563 548.7188,217.9531 Q548.5156,217.7656 548.4063,217.25 Q548.3594,216.8906 548.1719,216.7031 Q547.8438,216.3281 547.2344,216.1094 Q546.625,215.8906 546,215.8906 Q545.2344,215.8906 544.5938,216.2188 Q543.9688,216.5469 543.4688,217.2969 Q542.9844,218.0469 542.9844,219.0781 L542.9844,220.1719 Q542.9844,221.4063 543.875,222.2344 Q544.7656,223.0469 546.3594,223.0469 Q547.2969,223.0469 547.9531,222.7969 Q548.3438,222.6406 548.7656,222.2031 Q549.0313,221.9375 549.1719,221.8594 Q549.3281,221.7813 549.5313,221.7813 Q549.8594,221.7813 550.1094,222.0469 Q550.375,222.2969 550.375,222.6406 Q550.375,222.9844 550.0313,223.3906 Q549.5313,223.9688 548.7344,224.2969 Q547.6563,224.75 546.3594,224.75 Q544.8438,224.75 543.6406,224.125 Q542.6563,223.625 541.9688,222.5625 Q541.2813,221.4844 541.2813,220.2031 L541.2813,219.0469 Q541.2813,217.7188 541.8906,216.5781 Q542.5156,215.4219 543.6094,214.8125 Q544.7031,214.1875 545.9375,214.1875 Q546.6719,214.1875 547.3125,214.3594 Q547.9688,214.5156 548.5156,214.875 Z " fill="#000000"/><text fill="#000000" font-family="sans-serif" font-size="14" lengthAdjust="spacing" textLength="216" x="566.25" y="224.7285">MySQLDatabaseMetadataAdapter</text><line style="stroke:#181818;stroke-width:0.5;" x1="481.5" x2="834.5" y1="235" y2="235"/><text fill="#000000" font-family="sans-serif" font-size="14" lengthAdjust="spacing" textLength="51" x="486.5" y="253.5332">host: str</text><text fill="#000000" font-family="sans-serif" font-size="14" lengthAdjust="spacing" textLength="48" x="486.5" y="271.1426">port: int</text><text fill="#000000" font-family="sans-serif" font-size="14" lengthAdjust="spacing" textLength="87" x="486.5" y="288.752">username: str</text><text fill="#000000" font-family="sans-serif" font-size="14" lengthAdjust="spacing" textLength="84" x="486.5" y="306.3613">password: str</text><text fill="#000000" font-family="sans-serif" font-size="14" lengthAdjust="spacing" textLength="4" x="486.5" y="323.9707">&#160;</text><text fill="#000000" font-family="sans-serif" font-size="14" lengthAdjust="spacing" textLength="343" x="486.5" y="341.5801">mysqlTypesToStandarTypes: dict[str, FieldDataTypes]</text><line style="stroke:#181818;stroke-width:0.5;" x1="481.5" x2="834.5" y1="348.6563" y2="348.6563"/><text fill="#000000" font-family="sans-serif" font-size="14" lengthAdjust="spacing" textLength="259" x="486.5" y="367.1895">__init__(host, port, username, password)</text></g><!--class FieldDataTypes--><g id="elem_FieldDataTypes"><rect codeLine="23" fill="#F1F1F1" height="188.875" id="FieldDataTypes" rx="2.5" ry="2.5" style="stroke:#181818;stroke-width:0.5;" width="132" x="7" y="1251"/><ellipse cx="22" cy="1267" fill="#EB937F" rx="11" ry="11" style="stroke:#181818;stroke-width:1.0;"/><path d="M20.8594,1267.7969 L20.8594,1270.2969 L25.1875,1270.2969 L25.1875,1269.375 Q25.1875,1268.7656 25.4219,1268.5 Q25.6719,1268.2344 26.0469,1268.2344 Q26.4219,1268.2344 26.6563,1268.5 Q26.8906,1268.7656 26.8906,1269.375 L26.8906,1272 L18.8906,1272 Q18.2656,1272 18,1271.7656 Q17.75,1271.5313 17.75,1271.1406 Q17.75,1270.7656 18.0156,1270.5313 Q18.2813,1270.2969 18.8906,1270.2969 L19.1563,1270.2969 L19.1563,1263.6406 L18.8906,1263.6406 Q18.2656,1263.6406 18,1263.4063 Q17.75,1263.1719 17.75,1262.7813 Q17.75,1262.4063 18,1262.1719 Q18.2656,1261.9375 18.8906,1261.9375 L26.5156,1261.9375 L26.5156,1264.5313 Q26.5156,1265.1406 26.2813,1265.4063 Q26.0625,1265.6563 25.6719,1265.6563 Q25.2969,1265.6563 25.0625,1265.4063 Q24.8281,1265.1406 24.8281,1264.5313 L24.8281,1263.6406 L20.8594,1263.6406 L20.8594,1266.0938 L22.3438,1266.0938 Q22.3438,1265.4375 22.4688,1265.25 Q22.7344,1264.8438 23.2031,1264.8438 Q23.5781,1264.8438 23.8125,1265.1094 Q24.0469,1265.3594 24.0469,1265.9688 L24.0469,1267.9375 Q24.0469,1268.4844 23.9219,1268.6719 Q23.6563,1269.0625 23.2031,1269.0625 Q22.7344,1269.0625 22.4688,1268.6563 Q22.3438,1268.4688 22.3438,1267.7969 L20.8594,1267.7969 Z " fill="#000000"/><text fill="#000000" font-family="sans-serif" font-size="14" lengthAdjust="spacing" textLength="100" x="36" y="1272.7285">FieldDataTypes</text><line style="stroke:#181818;stroke-width:0.5;" x1="8" x2="138" y1="1283" y2="1283"/><text fill="#000000" font-family="sans-serif" font-size="14" lengthAdjust="spacing" textLength="51" x="13" y="1301.5332">STRING</text><text fill="#000000" font-family="sans-serif" font-size="14" lengthAdjust="spacing" textLength="60" x="13" y="1319.1426">INTEGER</text><text fill="#000000" font-family="sans-serif" font-size="14" lengthAdjust="spacing" textLength="60" x="13" y="1336.752">DECIMAL</text><text fill="#000000" font-family="sans-serif" font-size="14" lengthAdjust="spacing" textLength="66" x="13" y="1354.3613">BOOLEAN</text><text fill="#000000" font-family="sans-serif" font-size="14" lengthAdjust="spacing" textLength="49" x="13" y="1371.9707">BINARY</text><text fill="#000000" font-family="sans-serif" font-size="14" lengthAdjust="spacing" textLength="32" x="13" y="1389.5801">TIME</text><text fill="#000000" font-family="sans-serif" font-size="14" lengthAdjust="spacing" textLength="37" x="13" y="1407.1895">DATE</text><text fill="#000000" font-family="sans-serif" font-size="14" lengthAdjust="spacing" textLength="69" x="13" y="1424.7988">DATETIME</text><line style="stroke:#181818;stroke-width:0.5;" x1="8" x2="138" y1="1431.875" y2="1431.875"/></g><!--class FieldTag--><g id="elem_FieldTag"><rect codeLine="34" fill="#F1F1F1" height="136.0469" id="FieldTag" rx="2.5" ry="2.5" style="stroke:#181818;stroke-width:0.5;" width="510" x="174" y="1277.5"/><ellipse cx="396.75" cy="1293.5" fill="#ADD1B2" rx="11" ry="11" style="stroke:#181818;stroke-width:1.0;"/><path d="M399.5156,1289.375 Q399.6719,1289.1563 399.8594,1289.0469 Q400.0469,1288.9375 400.2656,1288.9375 Q400.6406,1288.9375 400.875,1289.2031 Q401.1094,1289.4531 401.1094,1290.0625 L401.1094,1291.5156 Q401.1094,1292.125 400.875,1292.3906 Q400.6406,1292.6563 400.2656,1292.6563 Q399.9219,1292.6563 399.7188,1292.4531 Q399.5156,1292.2656 399.4063,1291.75 Q399.3594,1291.3906 399.1719,1291.2031 Q398.8438,1290.8281 398.2344,1290.6094 Q397.625,1290.3906 397,1290.3906 Q396.2344,1290.3906 395.5938,1290.7188 Q394.9688,1291.0469 394.4688,1291.7969 Q393.9844,1292.5469 393.9844,1293.5781 L393.9844,1294.6719 Q393.9844,1295.9063 394.875,1296.7344 Q395.7656,1297.5469 397.3594,1297.5469 Q398.2969,1297.5469 398.9531,1297.2969 Q399.3438,1297.1406 399.7656,1296.7031 Q400.0313,1296.4375 400.1719,1296.3594 Q400.3281,1296.2813 400.5313,1296.2813 Q400.8594,1296.2813 401.1094,1296.5469 Q401.375,1296.7969 401.375,1297.1406 Q401.375,1297.4844 401.0313,1297.8906 Q400.5313,1298.4688 399.7344,1298.7969 Q398.6563,1299.25 397.3594,1299.25 Q395.8438,1299.25 394.6406,1298.625 Q393.6563,1298.125 392.9688,1297.0625 Q392.2813,1295.9844 392.2813,1294.7031 L392.2813,1293.5469 Q392.2813,1292.2188 392.8906,1291.0781 Q393.5156,1289.9219 394.6094,1289.3125 Q395.7031,1288.6875 396.9375,1288.6875 Q397.6719,1288.6875 398.3125,1288.8594 Q398.9688,1289.0156 399.5156,1289.375 Z " fill="#000000"/><text fill="#000000" font-family="sans-serif" font-size="14" lengthAdjust="spacing" textLength="56" x="417.25" y="1299.2285">FieldTag</text><line style="stroke:#181818;stroke-width:0.5;" x1="175" x2="683" y1="1309.5" y2="1309.5"/><text fill="#000000" font-family="sans-serif" font-size="14" lengthAdjust="spacing" textLength="35" x="180" y="1328.0332">id: str</text><text fill="#000000" font-family="sans-serif" font-size="14" lengthAdjust="spacing" textLength="126" x="180" y="1345.6426">field: DatabaseField</text><text fill="#000000" font-family="sans-serif" font-size="14" lengthAdjust="spacing" textLength="115" x="180" y="1363.252">tag: DataTypeTag</text><text fill="#000000" font-family="sans-serif" font-size="14" lengthAdjust="spacing" textLength="117" x="180" y="1380.8613">certanty_score: int</text><line style="stroke:#181818;stroke-width:0.5;" x1="175" x2="683" y1="1387.9375" y2="1387.9375"/><text fill="#000000" font-family="sans-serif" font-size="14" lengthAdjust="spacing" textLength="498" x="180" y="1406.4707">__init__(field: DatabaseField, tag: DataTypeTag, certanty_score: int): FieldTag</text></g><!--class DataTypeTag--><g id="elem_DataTypeTag"><rect codeLine="101" fill="#F1F1F1" height="118.4375" id="DataTypeTag" rx="2.5" ry="2.5" style="stroke:#181818;stroke-width:0.5;" width="368" x="516" y="1500"/><ellipse cx="652.25" cy="1516" fill="#ADD1B2" rx="11" ry="11" style="stroke:#181818;stroke-width:1.0;"/><path d="M655.0156,1511.875 Q655.1719,1511.6563 655.3594,1511.5469 Q655.5469,1511.4375 655.7656,1511.4375 Q656.1406,1511.4375 656.375,1511.7031 Q656.6094,1511.9531 656.6094,1512.5625 L656.6094,1514.0156 Q656.6094,1514.625 656.375,1514.8906 Q656.1406,1515.1563 655.7656,1515.1563 Q655.4219,1515.1563 655.2188,1514.9531 Q655.0156,1514.7656 654.9063,1514.25 Q654.8594,1513.8906 654.6719,1513.7031 Q654.3438,1513.3281 653.7344,1513.1094 Q653.125,1512.8906 652.5,1512.8906 Q651.7344,1512.8906 651.0938,1513.2188 Q650.4688,1513.5469 649.9688,1514.2969 Q649.4844,1515.0469 649.4844,1516.0781 L649.4844,1517.1719 Q649.4844,1518.4063 650.375,1519.2344 Q651.2656,1520.0469 652.8594,1520.0469 Q653.7969,1520.0469 654.4531,1519.7969 Q654.8438,1519.6406 655.2656,1519.2031 Q655.5313,1518.9375 655.6719,1518.8594 Q655.8281,1518.7813 656.0313,1518.7813 Q656.3594,1518.7813 656.6094,1519.0469 Q656.875,1519.2969 656.875,1519.6406 Q656.875,1519.9844 656.5313,1520.3906 Q656.0313,1520.9688 655.2344,1521.2969 Q654.1563,1521.75 652.8594,1521.75 Q651.3438,1521.75 650.1406,1521.125 Q649.1563,1520.625 648.4688,1519.5625 Q647.7813,1518.4844 647.7813,1517.2031 L647.7813,1516.0469 Q647.7813,1514.7188 648.3906,1513.5781 Q649.0156,1512.4219 650.1094,1511.8125 Q651.2031,1511.1875 652.4375,1511.1875 Q653.1719,1511.1875 653.8125,1511.3594 Q654.4688,1511.5156 655.0156,1511.875 Z " fill="#000000"/><text fill="#000000" font-family="sans-serif" font-size="14" lengthAdjust="spacing" textLength="87" x="672.75" y="1521.7285">DataTypeTag</text><line style="stroke:#181818;stroke-width:0.5;" x1="517" x2="883" y1="1532" y2="1532"/><text fill="#000000" font-family="sans-serif" font-size="14" lengthAdjust="spacing" textLength="30" x="522" y="1550.5332">id: id</text><text fill="#000000" font-family="sans-serif" font-size="14" lengthAdjust="spacing" textLength="59" x="522" y="1568.1426">name: str</text><text fill="#000000" font-family="sans-serif" font-size="14" lengthAdjust="spacing" textLength="154" x="522" y="1585.752">description: Optional[str]</text><line style="stroke:#181818;stroke-width:0.5;" x1="517" x2="883" y1="1592.8281" y2="1592.8281"/><text fill="#000000" font-family="sans-serif" font-size="14" lengthAdjust="spacing" textLength="356" x="522" y="1611.3613">__init__(name: str, description: str=None): DataTypeTag</text></g><!--class DatabaseField--><g id="elem_DatabaseField"><rect codeLine="44" fill="#F1F1F1" height="241.7031" id="DatabaseField" rx="2.5" ry="2.5" style="stroke:#181818;stroke-width:0.5;" width="374" x="64" y="949"/><ellipse cx="200.75" cy="965" fill="#ADD1B2" rx="11" ry="11" style="stroke:#181818;stroke-width:1.0;"/><path d="M203.5156,960.875 Q203.6719,960.6563 203.8594,960.5469 Q204.0469,960.4375 204.2656,960.4375 Q204.6406,960.4375 204.875,960.7031 Q205.1094,960.9531 205.1094,961.5625 L205.1094,963.0156 Q205.1094,963.625 204.875,963.8906 Q204.6406,964.1563 204.2656,964.1563 Q203.9219,964.1563 203.7188,963.9531 Q203.5156,963.7656 203.4063,963.25 Q203.3594,962.8906 203.1719,962.7031 Q202.8438,962.3281 202.2344,962.1094 Q201.625,961.8906 201,961.8906 Q200.2344,961.8906 199.5938,962.2188 Q198.9688,962.5469 198.4688,963.2969 Q197.9844,964.0469 197.9844,965.0781 L197.9844,966.1719 Q197.9844,967.4063 198.875,968.2344 Q199.7656,969.0469 201.3594,969.0469 Q202.2969,969.0469 202.9531,968.7969 Q203.3438,968.6406 203.7656,968.2031 Q204.0313,967.9375 204.1719,967.8594 Q204.3281,967.7813 204.5313,967.7813 Q204.8594,967.7813 205.1094,968.0469 Q205.375,968.2969 205.375,968.6406 Q205.375,968.9844 205.0313,969.3906 Q204.5313,969.9688 203.7344,970.2969 Q202.6563,970.75 201.3594,970.75 Q199.8438,970.75 198.6406,970.125 Q197.6563,969.625 196.9688,968.5625 Q196.2813,967.4844 196.2813,966.2031 L196.2813,965.0469 Q196.2813,963.7188 196.8906,962.5781 Q197.5156,961.4219 198.6094,960.8125 Q199.7031,960.1875 200.9375,960.1875 Q201.6719,960.1875 202.3125,960.3594 Q202.9688,960.5156 203.5156,960.875 Z " fill="#000000"/><text fill="#000000" font-family="sans-serif" font-size="14" lengthAdjust="spacing" textLength="92" x="221.25" y="970.7285">DatabaseField</text><line style="stroke:#181818;stroke-width:0.5;" x1="65" x2="437" y1="981" y2="981"/><text fill="#000000" font-family="sans-serif" font-size="14" lengthAdjust="spacing" textLength="34" x="70" y="999.5332">id: int</text><text fill="#000000" font-family="sans-serif" font-size="14" lengthAdjust="spacing" textLength="59" x="70" y="1017.1426">name: str</text><text fill="#000000" font-family="sans-serif" font-size="14" lengthAdjust="spacing" textLength="135" x="70" y="1034.752">type: FieldDataTypes</text><text fill="#000000" font-family="sans-serif" font-size="14" lengthAdjust="spacing" textLength="136" x="70" y="1052.3613">table: DatabaseTable</text><text fill="#000000" font-family="sans-serif" font-size="14" lengthAdjust="spacing" textLength="116" x="70" y="1069.9707">tags: list[FieldTag]</text><text fill="#000000" font-family="sans-serif" font-size="14" lengthAdjust="spacing" textLength="132" x="70" y="1087.5801">dataSample: list[Any]</text><line style="stroke:#181818;stroke-width:0.5;" x1="65" x2="437" y1="1094.6563" y2="1094.6563"/><text fill="#000000" font-family="sans-serif" font-size="14" lengthAdjust="spacing" textLength="362" x="70" y="1113.1895">__init__(name: str, type: FieldDataTypes): DatabaseField</text><text fill="#000000" font-family="sans-serif" font-size="14" lengthAdjust="spacing" textLength="90" x="70" y="1130.7988">getName(): str</text><text fill="#000000" font-family="sans-serif" font-size="14" lengthAdjust="spacing" textLength="275" x="70" y="1148.4082">getOrAddTag(tag: DataTypeTag): FieldTag</text><text fill="#000000" font-family="sans-serif" font-size="14" lengthAdjust="spacing" textLength="301" x="70" y="1166.0176">updateTag(tag: DataTypeTag, score: int): None</text><text fill="#000000" font-family="sans-serif" font-size="14" lengthAdjust="spacing" textLength="201" x="70" y="1183.627">run(controls: list[Control]): None</text></g><!--class DatabaseTable--><g id="elem_DatabaseTable"><rect codeLine="62" fill="#F1F1F1" height="188.875" id="DatabaseTable" rx="2.5" ry="2.5" style="stroke:#181818;stroke-width:0.5;" width="294" x="104" y="700"/><ellipse cx="198.25" cy="716" fill="#ADD1B2" rx="11" ry="11" style="stroke:#181818;stroke-width:1.0;"/><path d="M201.0156,711.875 Q201.1719,711.6563 201.3594,711.5469 Q201.5469,711.4375 201.7656,711.4375 Q202.1406,711.4375 202.375,711.7031 Q202.6094,711.9531 202.6094,712.5625 L202.6094,714.0156 Q202.6094,714.625 202.375,714.8906 Q202.1406,715.1563 201.7656,715.1563 Q201.4219,715.1563 201.2188,714.9531 Q201.0156,714.7656 200.9063,714.25 Q200.8594,713.8906 200.6719,713.7031 Q200.3438,713.3281 199.7344,713.1094 Q199.125,712.8906 198.5,712.8906 Q197.7344,712.8906 197.0938,713.2188 Q196.4688,713.5469 195.9688,714.2969 Q195.4844,715.0469 195.4844,716.0781 L195.4844,717.1719 Q195.4844,718.4063 196.375,719.2344 Q197.2656,720.0469 198.8594,720.0469 Q199.7969,720.0469 200.4531,719.7969 Q200.8438,719.6406 201.2656,719.2031 Q201.5313,718.9375 201.6719,718.8594 Q201.8281,718.7813 202.0313,718.7813 Q202.3594,718.7813 202.6094,719.0469 Q202.875,719.2969 202.875,719.6406 Q202.875,719.9844 202.5313,720.3906 Q202.0313,720.9688 201.2344,721.2969 Q200.1563,721.75 198.8594,721.75 Q197.3438,721.75 196.1406,721.125 Q195.1563,720.625 194.4688,719.5625 Q193.7813,718.4844 193.7813,717.2031 L193.7813,716.0469 Q193.7813,714.7188 194.3906,713.5781 Q195.0156,712.4219 196.1094,711.8125 Q197.2031,711.1875 198.4375,711.1875 Q199.1719,711.1875 199.8125,711.3594 Q200.4688,711.5156 201.0156,711.875 Z " fill="#000000"/><text fill="#000000" font-family="sans-serif" font-size="14" lengthAdjust="spacing" textLength="97" x="218.75" y="721.7285">DatabaseTable</text><line style="stroke:#181818;stroke-width:0.5;" x1="105" x2="397" y1="732" y2="732"/><text fill="#000000" font-family="sans-serif" font-size="14" lengthAdjust="spacing" textLength="35" x="110" y="750.5332">id: str</text><text fill="#000000" font-family="sans-serif" font-size="14" lengthAdjust="spacing" textLength="59" x="110" y="768.1426">name: str</text><text fill="#000000" font-family="sans-serif" font-size="14" lengthAdjust="spacing" textLength="158" x="110" y="785.752">fields: list[DatabaseField]</text><line style="stroke:#181818;stroke-width:0.5;" x1="105" x2="397" y1="792.8281" y2="792.8281"/><text fill="#000000" font-family="sans-serif" font-size="14" lengthAdjust="spacing" textLength="282" x="110" y="811.3613">__init__(name, fields=None): DatabaseTable</text><text fill="#000000" font-family="sans-serif" font-size="14" lengthAdjust="spacing" textLength="232" x="110" y="828.9707">addField(field: DatabaseField): None</text><text fill="#000000" font-family="sans-serif" font-size="14" lengthAdjust="spacing" textLength="90" x="110" y="846.5801">getName(): str</text><text fill="#000000" font-family="sans-serif" font-size="14" lengthAdjust="spacing" textLength="193" x="110" y="864.1895">getFields(): list[DatabaseField]</text><text fill="#000000" font-family="sans-serif" font-size="14" lengthAdjust="spacing" textLength="201" x="110" y="881.7988">run(controls: list[Control]): None</text></g><!--class DatabaseSchema--><g id="elem_DatabaseSchema"><rect codeLine="75" fill="#F1F1F1" height="206.4844" id="DatabaseSchema" rx="2.5" ry="2.5" style="stroke:#181818;stroke-width:0.5;" width="314" x="94" y="434"/><ellipse cx="190.75" cy="450" fill="#ADD1B2" rx="11" ry="11" style="stroke:#181818;stroke-width:1.0;"/><path d="M193.5156,445.875 Q193.6719,445.6563 193.8594,445.5469 Q194.0469,445.4375 194.2656,445.4375 Q194.6406,445.4375 194.875,445.7031 Q195.1094,445.9531 195.1094,446.5625 L195.1094,448.0156 Q195.1094,448.625 194.875,448.8906 Q194.6406,449.1563 194.2656,449.1563 Q193.9219,449.1563 193.7188,448.9531 Q193.5156,448.7656 193.4063,448.25 Q193.3594,447.8906 193.1719,447.7031 Q192.8438,447.3281 192.2344,447.1094 Q191.625,446.8906 191,446.8906 Q190.2344,446.8906 189.5938,447.2188 Q188.9688,447.5469 188.4688,448.2969 Q187.9844,449.0469 187.9844,450.0781 L187.9844,451.1719 Q187.9844,452.4063 188.875,453.2344 Q189.7656,454.0469 191.3594,454.0469 Q192.2969,454.0469 192.9531,453.7969 Q193.3438,453.6406 193.7656,453.2031 Q194.0313,452.9375 194.1719,452.8594 Q194.3281,452.7813 194.5313,452.7813 Q194.8594,452.7813 195.1094,453.0469 Q195.375,453.2969 195.375,453.6406 Q195.375,453.9844 195.0313,454.3906 Q194.5313,454.9688 193.7344,455.2969 Q192.6563,455.75 191.3594,455.75 Q189.8438,455.75 188.6406,455.125 Q187.6563,454.625 186.9688,453.5625 Q186.2813,452.4844 186.2813,451.2031 L186.2813,450.0469 Q186.2813,448.7188 186.8906,447.5781 Q187.5156,446.4219 188.6094,445.8125 Q189.7031,445.1875 190.9375,445.1875 Q191.6719,445.1875 192.3125,445.3594 Q192.9688,445.5156 193.5156,445.875 Z " fill="#000000"/><text fill="#000000" font-family="sans-serif" font-size="14" lengthAdjust="spacing" textLength="112" x="211.25" y="455.7285">DatabaseSchema</text><line style="stroke:#181818;stroke-width:0.5;" x1="95" x2="407" y1="466" y2="466"/><text fill="#000000" font-family="sans-serif" font-size="14" lengthAdjust="spacing" textLength="34" x="100" y="484.5332">id: int</text><text fill="#000000" font-family="sans-serif" font-size="14" lengthAdjust="spacing" textLength="59" x="100" y="502.1426">name: str</text><text fill="#000000" font-family="sans-serif" font-size="14" lengthAdjust="spacing" textLength="168" x="100" y="519.752">tables: list[DatabaseTable]</text><line style="stroke:#181818;stroke-width:0.5;" x1="95" x2="407" y1="526.8281" y2="526.8281"/><text fill="#000000" font-family="sans-serif" font-size="14" lengthAdjust="spacing" textLength="302" x="100" y="545.3613">__init__(name, tables=None): DatabaseSchema</text><text fill="#000000" font-family="sans-serif" font-size="14" lengthAdjust="spacing" textLength="90" x="100" y="562.9707">getName(): str</text><text fill="#000000" font-family="sans-serif" font-size="14" lengthAdjust="spacing" textLength="247" x="100" y="580.5801">addTable(table: DatabaseTable): None</text><text fill="#000000" font-family="sans-serif" font-size="14" lengthAdjust="spacing" textLength="203" x="100" y="598.1895">getTables(): list[DatabaseTable]</text><text fill="#000000" font-family="sans-serif" font-size="14" lengthAdjust="spacing" textLength="271" x="100" y="615.7988">getOrAddTable(name: str): DatabaseTable</text><text fill="#000000" font-family="sans-serif" font-size="14" lengthAdjust="spacing" textLength="201" x="100" y="633.4082">run(controls: list[Control]): None</text></g><!--class ControlAffectedTag--><g id="elem_ControlAffectedTag"><rect codeLine="110" fill="#F1F1F1" height="118.4375" id="ControlAffectedTag" rx="2.5" ry="2.5" style="stroke:#181818;stroke-width:0.5;" width="506" x="719" y="1286.5"/><ellipse cx="906.25" cy="1302.5" fill="#ADD1B2" rx="11" ry="11" style="stroke:#181818;stroke-width:1.0;"/><path d="M909.0156,1298.375 Q909.1719,1298.1563 909.3594,1298.0469 Q909.5469,1297.9375 909.7656,1297.9375 Q910.1406,1297.9375 910.375,1298.2031 Q910.6094,1298.4531 910.6094,1299.0625 L910.6094,1300.5156 Q910.6094,1301.125 910.375,1301.3906 Q910.1406,1301.6563 909.7656,1301.6563 Q909.4219,1301.6563 909.2188,1301.4531 Q909.0156,1301.2656 908.9063,1300.75 Q908.8594,1300.3906 908.6719,1300.2031 Q908.3438,1299.8281 907.7344,1299.6094 Q907.125,1299.3906 906.5,1299.3906 Q905.7344,1299.3906 905.0938,1299.7188 Q904.4688,1300.0469 903.9688,1300.7969 Q903.4844,1301.5469 903.4844,1302.5781 L903.4844,1303.6719 Q903.4844,1304.9063 904.375,1305.7344 Q905.2656,1306.5469 906.8594,1306.5469 Q907.7969,1306.5469 908.4531,1306.2969 Q908.8438,1306.1406 909.2656,1305.7031 Q909.5313,1305.4375 909.6719,1305.3594 Q909.8281,1305.2813 910.0313,1305.2813 Q910.3594,1305.2813 910.6094,1305.5469 Q910.875,1305.7969 910.875,1306.1406 Q910.875,1306.4844 910.5313,1306.8906 Q910.0313,1307.4688 909.2344,1307.7969 Q908.1563,1308.25 906.8594,1308.25 Q905.3438,1308.25 904.1406,1307.625 Q903.1563,1307.125 902.4688,1306.0625 Q901.7813,1304.9844 901.7813,1303.7031 L901.7813,1302.5469 Q901.7813,1301.2188 902.3906,1300.0781 Q903.0156,1298.9219 904.1094,1298.3125 Q905.2031,1297.6875 906.4375,1297.6875 Q907.1719,1297.6875 907.8125,1297.8594 Q908.4688,1298.0156 909.0156,1298.375 Z " fill="#000000"/><text fill="#000000" font-family="sans-serif" font-size="14" lengthAdjust="spacing" textLength="123" x="926.75" y="1308.2285">ControlAffectedTag</text><line style="stroke:#181818;stroke-width:0.5;" x1="720" x2="1224" y1="1318.5" y2="1318.5"/><text fill="#000000" font-family="sans-serif" font-size="14" lengthAdjust="spacing" textLength="34" x="725" y="1337.0332">id: int</text><text fill="#000000" font-family="sans-serif" font-size="14" lengthAdjust="spacing" textLength="97" x="725" y="1354.6426">control: Control</text><text fill="#000000" font-family="sans-serif" font-size="14" lengthAdjust="spacing" textLength="115" x="725" y="1372.252">tag: DataTypeTag</text><line style="stroke:#181818;stroke-width:0.5;" x1="720" x2="1224" y1="1379.3281" y2="1379.3281"/><text fill="#000000" font-family="sans-serif" font-size="14" lengthAdjust="spacing" textLength="494" x="725" y="1397.8613">__init__(control: Control, tag: DataTypeTag, affectedScoreBy: int): ControlTag</text></g><!--class Control--><g id="elem_Control"><rect codeLine="119" fill="#F1F1F1" height="188.875" id="Control" rx="2.5" ry="2.5" style="stroke:#181818;stroke-width:0.5;" width="370" x="1085" y="975.5"/><ellipse cx="1242.75" cy="991.5" fill="#A9DCDF" rx="11" ry="11" style="stroke:#181818;stroke-width:1.0;"/><path d="M1244.9375,993.2656 L1240.7969,993.2656 L1240.375,994.2969 L1240.7969,994.2969 Q1241.4063,994.2969 1241.6719,994.5313 Q1241.9375,994.7656 1241.9375,995.1563 Q1241.9375,995.5313 1241.6719,995.7656 Q1241.4063,996 1240.7969,996 L1238.5,996 Q1237.8906,996 1237.6406,995.7656 Q1237.375,995.5313 1237.375,995.1406 Q1237.375,994.7656 1237.6563,994.5313 Q1237.9219,994.2813 1238.5469,994.2969 L1241.2188,987.6406 L1240.1094,987.6406 Q1239.5,987.6406 1239.2344,987.4063 Q1238.9688,987.1719 1238.9688,986.7813 Q1238.9688,986.4063 1239.2344,986.1719 Q1239.5,985.9375 1240.1094,985.9375 L1243.7813,985.9375 L1247.1719,994.2969 Q1247.7656,994.2969 1247.9531,994.4375 Q1248.3438,994.7031 1248.3438,995.1563 Q1248.3438,995.5313 1248.0781,995.7656 Q1247.8281,996 1247.2188,996 L1244.9219,996 Q1244.3125,996 1244.0469,995.7656 Q1243.7813,995.5313 1243.7813,995.1406 Q1243.7813,994.7656 1244.0469,994.5313 Q1244.3125,994.2969 1244.9219,994.2969 L1245.3438,994.2969 L1244.9375,993.2656 Z M1244.2188,991.5625 L1242.8594,988.1875 L1241.4844,991.5625 L1244.2188,991.5625 Z " fill="#000000"/><text fill="#000000" font-family="sans-serif" font-size="14" font-style="italic" lengthAdjust="spacing" textLength="46" x="1263.25" y="997.2285">Control</text><line style="stroke:#181818;stroke-width:0.5;" x1="1086" x2="1454" y1="1007.5" y2="1007.5"/><text fill="#000000" font-family="sans-serif" font-size="14" lengthAdjust="spacing" textLength="34" x="1091" y="1026.0332">id: int</text><text fill="#000000" font-family="sans-serif" font-size="14" lengthAdjust="spacing" textLength="59" x="1091" y="1043.6426">name: str</text><text fill="#000000" font-family="sans-serif" font-size="14" lengthAdjust="spacing" textLength="82" x="1091" y="1061.252">raw_data: str</text><text fill="#000000" font-family="sans-serif" font-size="14" lengthAdjust="spacing" textLength="239" x="1091" y="1078.8613">affectedTags: list[ControlAffectedTag]</text><line style="stroke:#181818;stroke-width:0.5;" x1="1086" x2="1454" y1="1085.9375" y2="1085.9375"/><text fill="#000000" font-family="sans-serif" font-size="14" lengthAdjust="spacing" textLength="358" x="1091" y="1104.4707">__init__(name: str, affectedTags: dict[DataTypeTag, int])</text><text fill="#000000" font-family="sans-serif" font-size="14" lengthAdjust="spacing" textLength="297" x="1091" y="1122.0801">__conditionMatches(field: DatabaseField): bool</text><text fill="#000000" font-family="sans-serif" font-size="14" lengthAdjust="spacing" textLength="146" x="1091" y="1139.6895">getData(): dict[str, Any]</text><text fill="#000000" font-family="sans-serif" font-size="14" lengthAdjust="spacing" textLength="245" x="1091" y="1157.2988">executeOn(field: DatabaseField): None</text></g><!--class RegExOnFieldNameControl--><g id="elem_RegExOnFieldNameControl"><rect codeLine="132" fill="#F1F1F1" height="83.2188" id="RegExOnFieldNameControl" rx="2.5" ry="2.5" style="stroke:#181818;stroke-width:0.5;" width="618" x="1260" y="1304"/><ellipse cx="1478.25" cy="1320" fill="#ADD1B2" rx="11" ry="11" style="stroke:#181818;stroke-width:1.0;"/><path d="M1481.0156,1315.875 Q1481.1719,1315.6563 1481.3594,1315.5469 Q1481.5469,1315.4375 1481.7656,1315.4375 Q1482.1406,1315.4375 1482.375,1315.7031 Q1482.6094,1315.9531 1482.6094,1316.5625 L1482.6094,1318.0156 Q1482.6094,1318.625 1482.375,1318.8906 Q1482.1406,1319.1563 1481.7656,1319.1563 Q1481.4219,1319.1563 1481.2188,1318.9531 Q1481.0156,1318.7656 1480.9063,1318.25 Q1480.8594,1317.8906 1480.6719,1317.7031 Q1480.3438,1317.3281 1479.7344,1317.1094 Q1479.125,1316.8906 1478.5,1316.8906 Q1477.7344,1316.8906 1477.0938,1317.2188 Q1476.4688,1317.5469 1475.9688,1318.2969 Q1475.4844,1319.0469 1475.4844,1320.0781 L1475.4844,1321.1719 Q1475.4844,1322.4063 1476.375,1323.2344 Q1477.2656,1324.0469 1478.8594,1324.0469 Q1479.7969,1324.0469 1480.4531,1323.7969 Q1480.8438,1323.6406 1481.2656,1323.2031 Q1481.5313,1322.9375 1481.6719,1322.8594 Q1481.8281,1322.7813 1482.0313,1322.7813 Q1482.3594,1322.7813 1482.6094,1323.0469 Q1482.875,1323.2969 1482.875,1323.6406 Q1482.875,1323.9844 1482.5313,1324.3906 Q1482.0313,1324.9688 1481.2344,1325.2969 Q1480.1563,1325.75 1478.8594,1325.75 Q1477.3438,1325.75 1476.1406,1325.125 Q1475.1563,1324.625 1474.4688,1323.5625 Q1473.7813,1322.4844 1473.7813,1321.2031 L1473.7813,1320.0469 Q1473.7813,1318.7188 1474.3906,1317.5781 Q1475.0156,1316.4219 1476.1094,1315.8125 Q1477.2031,1315.1875 1478.4375,1315.1875 Q1479.1719,1315.1875 1479.8125,1315.3594 Q1480.4688,1315.5156 1481.0156,1315.875 Z " fill="#000000"/><text fill="#000000" font-family="sans-serif" font-size="14" lengthAdjust="spacing" textLength="173" x="1498.75" y="1325.7285">RegExOnFieldNameControl</text><line style="stroke:#181818;stroke-width:0.5;" x1="1261" x2="1877" y1="1336" y2="1336"/><line style="stroke:#181818;stroke-width:0.5;" x1="1261" x2="1877" y1="1344" y2="1344"/><text fill="#000000" font-family="sans-serif" font-size="14" lengthAdjust="spacing" textLength="606" x="1266" y="1362.5332">__init__(name: str, affectedTags: dict[DataTypeTag, int], regex :str): RegExOnFieldNameControl</text><text fill="#000000" font-family="sans-serif" font-size="14" lengthAdjust="spacing" textLength="95" x="1266" y="1380.1426">getRegEx(): str</text></g><!--link DatabaseMetadataAdapter to ScanResult--><g id="link_DatabaseMetadataAdapter_ScanResult"><path codeLine="11" d="M389.49,143.21 C371.26,162.2 355.3446,178.7811 336.2746,198.6511 " fill="none" id="DatabaseMetadataAdapter-to-ScanResult" style="stroke:#181818;stroke-width:1.0;"/><polygon fill="#181818" points="332.12,202.98,341.2378,199.2564,335.5822,199.3726,335.466,193.7169,332.12,202.98" style="stroke:#181818;stroke-width:1.0;"/><text fill="#000000" font-family="sans-serif" font-size="13" lengthAdjust="spacing" textLength="5" x="334.1221" y="192.1498">*</text></g><!--reverse link DatabaseMetadataAdapter to MySQLDatabaseMetadataAdapter--><g id="link_DatabaseMetadataAdapter_MySQLDatabaseMetadataAdapter"><path d="M531.3238,156.1678 C549.6338,175.1578 557.31,183.11 576.48,202.98 " fill="none" id="DatabaseMetadataAdapter-backto-MySQLDatabaseMetadataAdapter" style="stroke:#181818;stroke-width:1.0;"/><polygon fill="none" points="518.83,143.21,527.0045,160.3324,535.6431,152.0032,518.83,143.21" style="stroke:#181818;stroke-width:1.0;"/></g><!--link FieldTag to DataTypeTag--><g id="link_FieldTag_DataTypeTag"><path codeLine="42" d="M515.12,1413.71 C550.61,1441.41 586.6096,1469.509 620.7896,1496.179 " fill="none" id="FieldTag-to-DataTypeTag" style="stroke:#181818;stroke-width:1.0;"/><polygon fill="#181818" points="625.52,1499.87,620.8851,1491.1799,621.578,1496.7942,615.9638,1497.4871,625.52,1499.87" style="stroke:#181818;stroke-width:1.0;"/></g><!--link DatabaseField to FieldDataTypes--><g id="link_DatabaseField_FieldDataTypes"><path codeLine="59" d="M172.67,1191.36 C159.7,1211.28 149.7016,1226.6404 137.2516,1245.7804 " fill="none" id="DatabaseField-to-FieldDataTypes" style="stroke:#181818;stroke-width:1.0;"/><polygon fill="#181818" points="133.98,1250.81,142.2404,1245.4467,136.7063,1246.6187,135.5343,1241.0846,133.98,1250.81" style="stroke:#181818;stroke-width:1.0;"/></g><!--link DatabaseField to FieldTag--><g id="link_DatabaseField_FieldTag"><path codeLine="60" d="M329.33,1191.36 C348.55,1220.88 365.1569,1246.4114 382.0669,1272.3914 " fill="none" id="DatabaseField-to-FieldTag" style="stroke:#181818;stroke-width:1.0;"/><polygon fill="#181818" points="385.34,1277.42,383.7828,1267.695,382.6125,1273.2295,377.078,1272.0591,385.34,1277.42" style="stroke:#181818;stroke-width:1.0;"/><text fill="#000000" font-family="sans-serif" font-size="13" lengthAdjust="spacing" textLength="5" x="375.2913" y="1266.6105">*</text></g><!--link DatabaseTable to DatabaseField--><g id="link_DatabaseTable_DatabaseField"><path codeLine="73" d="M251,889.24 C251,908.42 251,922.85 251,942.8 " fill="none" id="DatabaseTable-to-DatabaseField" style="stroke:#181818;stroke-width:1.0;"/><polygon fill="#181818" points="251,948.8,255,939.8,251,943.8,247,939.8,251,948.8" style="stroke:#181818;stroke-width:1.0;"/><text fill="#000000" font-family="sans-serif" font-size="13" lengthAdjust="spacing" textLength="5" x="245.8398" y="938.039">*</text></g><!--link DatabaseSchema to DatabaseTable--><g id="link_DatabaseSchema_DatabaseTable"><path codeLine="87" d="M251,640.08 C251,659.82 251,674.41 251,693.86 " fill="none" id="DatabaseSchema-to-DatabaseTable" style="stroke:#181818;stroke-width:1.0;"/><polygon fill="#181818" points="251,699.86,255,690.86,251,694.86,247,690.86,251,699.86" style="stroke:#181818;stroke-width:1.0;"/><text fill="#000000" font-family="sans-serif" font-size="13" lengthAdjust="spacing" textLength="5" x="245.8008" y="689.195">*</text></g><!--link ScanResult to DatabaseSchema--><g id="link_ScanResult_DatabaseSchema"><path codeLine="99" d="M251,374.33 C251,393.55 251,408.15 251,428 " fill="none" id="ScanResult-to-DatabaseSchema" style="stroke:#181818;stroke-width:1.0;"/><polygon fill="#181818" points="251,434,255,425,251,429,247,425,251,434" style="stroke:#181818;stroke-width:1.0;"/><text fill="#000000" font-family="sans-serif" font-size="13" lengthAdjust="spacing" textLength="5" x="245.8086" y="422.9916">*</text></g><!--link ControlAffectedTag to DataTypeTag--><g id="link_ControlAffectedTag_DataTypeTag"><path codeLine="117" d="M897.32,1404.57 C859.26,1434.17 817.8263,1466.3766 779.7263,1496.0066 " fill="none" id="ControlAffectedTag-to-DataTypeTag" style="stroke:#181818;stroke-width:1.0;"/><polygon fill="#181818" points="774.99,1499.69,784.5501,1497.3225,778.9369,1496.6205,779.6389,1491.0074,774.99,1499.69" style="stroke:#181818;stroke-width:1.0;"/></g><!--link Control to ControlAffectedTag--><g id="link_Control_ControlAffectedTag"><path codeLine="130" d="M1167.86,1164.74 C1123.89,1205.1 1078.2702,1246.9627 1039.7802,1282.2927 " fill="none" id="Control-to-ControlAffectedTag" style="stroke:#181818;stroke-width:1.0;"/><polygon fill="#181818" points="1035.36,1286.35,1044.6952,1283.2108,1039.0435,1282.9689,1039.2854,1277.3172,1035.36,1286.35" style="stroke:#181818;stroke-width:1.0;"/><text fill="#000000" font-family="sans-serif" font-size="13" lengthAdjust="spacing" textLength="5" x="1037.7773" y="1275.656">*</text></g><!--reverse link Control to RegExOnFieldNameControl--><g id="link_Control_RegExOnFieldNameControl"><path d="M1385.7622,1176.8884 C1437.6622,1224.3584 1484.7,1267.38 1524.67,1303.95 " fill="none" id="Control-backto-RegExOnFieldNameControl" style="stroke:#181818;stroke-width:1.0;"/><polygon fill="none" points="1372.48,1164.74,1381.7127,1181.3158,1389.8116,1172.4611,1372.48,1164.74" style="stroke:#181818;stroke-width:1.0;"/></g><!--SRC=[dLPRRvim57xdLw0-9HELzepKIRJDgaYvQ86NgOeY1qvI90APRTHaK__xx6CRC3X9jxp4sEVodUzSRB9bd9AK-sb16FEV2ITRmc0Ed6HY7MNao87-yNpnoxFGpqkEQvQIaeL-aJF-6elr2bXTyBNN7CQSrYclAOoadPWSZWN4-Mzu-3eE_LO3vNV0qpSbmdhYw37mcR4MeaS3CqxVu43MWP_Mb5LKM5vK9Q3D37R-7lYCC2wzZMol7zw5IFtx-s_-tPUxhh2dk9cVun-pIsfmub1cDmXygnWFPIpuTQmeRmcj6T2I7A1pBfo-LpHJExXrEBDVHN8-0akgc9Co8nI_GZ_BK_ugv0B_Umv59c7WoHhrDfkypFbcCv880lGSD1w3njDOyE91MHzwHXJwE5bD5o-ud2wIoSjaXUldoTDq7irm_RXSpYRHGgsdYsZr4vV9T3vHib7IBd3tmx2B7XEoRqlDyB2J9s73B0hY0ITxjIr12bNSJ84AOlXvmzAAglBnR0vSzeA1iS1bIHIHmIcGcoNMJ1U7PpSJoWrRoCus5xfXZtSTvRQ05cuYFqtufWCD4fNjjeFqSLIUrpqI6kU1q_FOnRTefuLGawraK8kj9OqowNlKPx1B5bRuKG03bwJexox5JG_JkXobLSbfLPX8dzJdseY9-h60OYvwB0u5P8Cts7hPGeA7LMXd2sl8OBBikuWEjFo3X3nsvP9a6MexYxDBYJi7ACRafWlGfwcqS3L4sONGOqjDu9l5BGtswK8lRhgKV9ykvUiI3KHMeL0RkHgcHo7k3VdIYEp2bYQRQ9p9-oTkLH03SfKrJMvxzzmY5awGrXoMPIYx7dX-07q3IozznlLrsGm9kHTUkh9wYRafFxpMFyLBgpFWHEUxKt5wNdHOoHoaPC1IcXzvNWbQblXF2davNXc2bexOwTQU6UjYrcWiEenejuEKWtrjcKJfo4CZxBwoR41z7TUrHBJJM8xCnxCPcbf3uHpY6zvHn7xvQPLR1KV9-qOclTDthPDUbZlkhp1lw-CxnefNu5YFjRRW9yjbZkP4l1X51ryObzjAyotQM9x9JczVI7WTMjrpTUmsT3O5EepF5COAzfFJiaHzEQ2CfdaUMYp_Bnk1Js4F9pzK0-c2JnC_7fj1-U7z1G00]--></g></svg>