<?xml version="1.0" encoding="us-ascii" standalone="no"?><svg xmlns="http://www.w3.org/2000/svg" xmlns:xlink="http://www.w3.org/1999/xlink" contentStyleType="text/css" height="2176px" preserveAspectRatio="none" style="width:2576px;height:2176px;background:#FFFFFF;" version="1.1" viewBox="0 0 2576 2176" width="2576px" zoomAndPan="magnify"><defs/><g><!--class User--><g id="elem_User"><rect codeLine="3" fill="#F1F1F1" height="171.2656" id="User" rx="2.5" ry="2.5" style="stroke:#181818;stroke-width:0.5;" width="384" x="7" y="1998"/><ellipse cx="180.25" cy="2014" fill="#ADD1B2" rx="11" ry="11" style="stroke:#181818;stroke-width:1.0;"/><path d="M183.0156,2009.875 Q183.1719,2009.6563 183.3594,2009.5469 Q183.5469,2009.4375 183.7656,2009.4375 Q184.1406,2009.4375 184.375,2009.7031 Q184.6094,2009.9531 184.6094,2010.5625 L184.6094,2012.0156 Q184.6094,2012.625 184.375,2012.8906 Q184.1406,2013.1563 183.7656,2013.1563 Q183.4219,2013.1563 183.2188,2012.9531 Q183.0156,2012.7656 182.9063,2012.25 Q182.8594,2011.8906 182.6719,2011.7031 Q182.3438,2011.3281 181.7344,2011.1094 Q181.125,2010.8906 180.5,2010.8906 Q179.7344,2010.8906 179.0938,2011.2188 Q178.4688,2011.5469 177.9688,2012.2969 Q177.4844,2013.0469 177.4844,2014.0781 L177.4844,2015.1719 Q177.4844,2016.4063 178.375,2017.2344 Q179.2656,2018.0469 180.8594,2018.0469 Q181.7969,2018.0469 182.4531,2017.7969 Q182.8438,2017.6406 183.2656,2017.2031 Q183.5313,2016.9375 183.6719,2016.8594 Q183.8281,2016.7813 184.0313,2016.7813 Q184.3594,2016.7813 184.6094,2017.0469 Q184.875,2017.2969 184.875,2017.6406 Q184.875,2017.9844 184.5313,2018.3906 Q184.0313,2018.9688 183.2344,2019.2969 Q182.1563,2019.75 180.8594,2019.75 Q179.3438,2019.75 178.1406,2019.125 Q177.1563,2018.625 176.4688,2017.5625 Q175.7813,2016.4844 175.7813,2015.2031 L175.7813,2014.0469 Q175.7813,2012.7188 176.3906,2011.5781 Q177.0156,2010.4219 178.1094,2009.8125 Q179.2031,2009.1875 180.4375,2009.1875 Q181.1719,2009.1875 181.8125,2009.3594 Q182.4688,2009.5156 183.0156,2009.875 Z " fill="#000000"/><text fill="#000000" font-family="sans-serif" font-size="14" lengthAdjust="spacing" textLength="29" x="200.75" y="2019.7285">User</text><line style="stroke:#181818;stroke-width:0.5;" x1="8" x2="390" y1="2030" y2="2030"/><text fill="#000000" font-family="sans-serif" font-size="14" lengthAdjust="spacing" textLength="34" x="13" y="2048.5332">id: int</text><text fill="#000000" font-family="sans-serif" font-size="14" lengthAdjust="spacing" textLength="87" x="13" y="2066.1426">username: str</text><text fill="#000000" font-family="sans-serif" font-size="14" lengthAdjust="spacing" textLength="131" x="13" y="2083.752">_password_hash: str</text><text fill="#000000" font-family="sans-serif" font-size="14" lengthAdjust="spacing" textLength="92" x="13" y="2101.3613">id_admin: bool</text><text fill="#000000" font-family="sans-serif" font-size="14" lengthAdjust="spacing" textLength="183" x="13" y="2118.9707">last_login: Optional[datetime]</text><text fill="#000000" font-family="sans-serif" font-size="14" lengthAdjust="spacing" textLength="130" x="13" y="2136.5801">created_at: datetime</text><line style="stroke:#181818;stroke-width:0.5;" x1="8" x2="390" y1="2143.6563" y2="2143.6563"/><text fill="#000000" font-family="sans-serif" font-size="14" lengthAdjust="spacing" textLength="372" x="13" y="2162.1895">__init__(username: str, password: str , isAdmin: bool): User</text></g><!--class DatabaseMetadataAdapter--><g id="elem_DatabaseMetadataAdapter"><rect codeLine="15" fill="#F1F1F1" height="188.875" id="DatabaseMetadataAdapter" rx="2.5" ry="2.5" style="stroke:#181818;stroke-width:0.5;" width="525" x="541.5" y="7"/><ellipse cx="714.25" cy="23" fill="#A9DCDF" rx="11" ry="11" style="stroke:#181818;stroke-width:1.0;"/><path d="M716.4375,24.7656 L712.2969,24.7656 L711.875,25.7969 L712.2969,25.7969 Q712.9063,25.7969 713.1719,26.0313 Q713.4375,26.2656 713.4375,26.6563 Q713.4375,27.0313 713.1719,27.2656 Q712.9063,27.5 712.2969,27.5 L710,27.5 Q709.3906,27.5 709.1406,27.2656 Q708.875,27.0313 708.875,26.6406 Q708.875,26.2656 709.1563,26.0313 Q709.4219,25.7813 710.0469,25.7969 L712.7188,19.1406 L711.6094,19.1406 Q711,19.1406 710.7344,18.9063 Q710.4688,18.6719 710.4688,18.2813 Q710.4688,17.9063 710.7344,17.6719 Q711,17.4375 711.6094,17.4375 L715.2813,17.4375 L718.6719,25.7969 Q719.2656,25.7969 719.4531,25.9375 Q719.8438,26.2031 719.8438,26.6563 Q719.8438,27.0313 719.5781,27.2656 Q719.3281,27.5 718.7188,27.5 L716.4219,27.5 Q715.8125,27.5 715.5469,27.2656 Q715.2813,27.0313 715.2813,26.6406 Q715.2813,26.2656 715.5469,26.0313 Q715.8125,25.7969 716.4219,25.7969 L716.8438,25.7969 L716.4375,24.7656 Z M715.7188,23.0625 L714.3594,19.6875 L712.9844,23.0625 L715.7188,23.0625 Z " fill="#000000"/><text fill="#000000" font-family="sans-serif" font-size="14" font-style="italic" lengthAdjust="spacing" textLength="171" x="734.75" y="28.7285">DatabaseMetadataAdapter</text><line style="stroke:#181818;stroke-width:0.5;" x1="542.5" x2="1065.5" y1="39" y2="39"/><text fill="#000000" font-family="sans-serif" font-size="14" lengthAdjust="spacing" textLength="34" x="547.5" y="57.5332">id: int</text><text fill="#000000" font-family="sans-serif" font-size="14" lengthAdjust="spacing" textLength="142" x="547.5" y="75.1426">scans: list[ScanResult]</text><text fill="#000000" font-family="sans-serif" font-size="14" lengthAdjust="spacing" textLength="162" x="547.5" y="92.752">createdBy: Optional[User]</text><line style="stroke:#181818;stroke-width:0.5;" x1="542.5" x2="1065.5" y1="99.8281" y2="99.8281"/><text fill="#000000" font-family="sans-serif" font-size="14" lengthAdjust="spacing" textLength="202" x="547.5" y="118.3613">__init__(createdBy: User=None)</text><text fill="#000000" font-family="sans-serif" font-size="14" lengthAdjust="spacing" textLength="295" x="547.5" y="135.9707">scanStructure(dataSampleSize=0): ScanResult</text><text fill="#000000" font-family="sans-serif" font-size="14" lengthAdjust="spacing" textLength="513" x="547.5" y="153.5801">fetchSamples(dataSampleSize: int, structure:list[DatabaseSchema], cursor): None</text><text fill="#000000" font-family="sans-serif" font-size="14" lengthAdjust="spacing" textLength="193" x="547.5" y="171.1895">def getLastScan(): ScanResult</text><text fill="#000000" font-family="sans-serif" font-size="14" lengthAdjust="spacing" textLength="332" x="547.5" y="188.7988">runControlsOnLastScan(controls: list[Control]): None</text></g><!--class ScanResult--><g id="elem_ScanResult"><rect codeLine="112" fill="#F1F1F1" height="188.875" id="ScanResult" rx="2.5" ry="2.5" style="stroke:#181818;stroke-width:0.5;" width="389" x="609.5" y="256"/><ellipse cx="763.75" cy="272" fill="#ADD1B2" rx="11" ry="11" style="stroke:#181818;stroke-width:1.0;"/><path d="M766.5156,267.875 Q766.6719,267.6563 766.8594,267.5469 Q767.0469,267.4375 767.2656,267.4375 Q767.6406,267.4375 767.875,267.7031 Q768.1094,267.9531 768.1094,268.5625 L768.1094,270.0156 Q768.1094,270.625 767.875,270.8906 Q767.6406,271.1563 767.2656,271.1563 Q766.9219,271.1563 766.7188,270.9531 Q766.5156,270.7656 766.4063,270.25 Q766.3594,269.8906 766.1719,269.7031 Q765.8438,269.3281 765.2344,269.1094 Q764.625,268.8906 764,268.8906 Q763.2344,268.8906 762.5938,269.2188 Q761.9688,269.5469 761.4688,270.2969 Q760.9844,271.0469 760.9844,272.0781 L760.9844,273.1719 Q760.9844,274.4063 761.875,275.2344 Q762.7656,276.0469 764.3594,276.0469 Q765.2969,276.0469 765.9531,275.7969 Q766.3438,275.6406 766.7656,275.2031 Q767.0313,274.9375 767.1719,274.8594 Q767.3281,274.7813 767.5313,274.7813 Q767.8594,274.7813 768.1094,275.0469 Q768.375,275.2969 768.375,275.6406 Q768.375,275.9844 768.0313,276.3906 Q767.5313,276.9688 766.7344,277.2969 Q765.6563,277.75 764.3594,277.75 Q762.8438,277.75 761.6406,277.125 Q760.6563,276.625 759.9688,275.5625 Q759.2813,274.4844 759.2813,273.2031 L759.2813,272.0469 Q759.2813,270.7188 759.8906,269.5781 Q760.5156,268.4219 761.6094,267.8125 Q762.7031,267.1875 763.9375,267.1875 Q764.6719,267.1875 765.3125,267.3594 Q765.9688,267.5156 766.5156,267.875 Z " fill="#000000"/><text fill="#000000" font-family="sans-serif" font-size="14" lengthAdjust="spacing" textLength="72" x="784.25" y="277.7285">ScanResult</text><line style="stroke:#181818;stroke-width:0.5;" x1="610.5" x2="997.5" y1="288" y2="288"/><text fill="#000000" font-family="sans-serif" font-size="14" lengthAdjust="spacing" textLength="34" x="615.5" y="306.5332">id: int</text><text fill="#000000" font-family="sans-serif" font-size="14" lengthAdjust="spacing" textLength="59" x="615.5" y="324.1426">name: str</text><text fill="#000000" font-family="sans-serif" font-size="14" lengthAdjust="spacing" textLength="143" x="615.5" y="341.752">executed_on: datetime</text><text fill="#000000" font-family="sans-serif" font-size="14" lengthAdjust="spacing" textLength="201" x="615.5" y="359.3613">schemas: list[DatabaseSchema]</text><text fill="#000000" font-family="sans-serif" font-size="14" lengthAdjust="spacing" textLength="237" x="615.5" y="376.9707">database: DatabaseMetadataAdapter</text><text fill="#000000" font-family="sans-serif" font-size="14" lengthAdjust="spacing" textLength="178" x="615.5" y="394.5801">requestedBy: Optional[User]</text><line style="stroke:#181818;stroke-width:0.5;" x1="610.5" x2="997.5" y1="401.6563" y2="401.6563"/><text fill="#000000" font-family="sans-serif" font-size="14" lengthAdjust="spacing" textLength="377" x="615.5" y="420.1895">__init__(database: DatabaseMetadataAdapter): ScanResult</text><text fill="#000000" font-family="sans-serif" font-size="14" lengthAdjust="spacing" textLength="367" x="615.5" y="437.7988">run(controls: list[Control], requestedBy: User=None): None</text></g><!--class MySQLDatabaseMetadataAdapter--><g id="elem_MySQLDatabaseMetadataAdapter"><rect codeLine="29" fill="#F1F1F1" height="171.2656" id="MySQLDatabaseMetadataAdapter" rx="2.5" ry="2.5" style="stroke:#181818;stroke-width:0.5;" width="421" x="1033.5" y="265"/><ellipse cx="1131.75" cy="281" fill="#ADD1B2" rx="11" ry="11" style="stroke:#181818;stroke-width:1.0;"/><path d="M1134.5156,276.875 Q1134.6719,276.6563 1134.8594,276.5469 Q1135.0469,276.4375 1135.2656,276.4375 Q1135.6406,276.4375 1135.875,276.7031 Q1136.1094,276.9531 1136.1094,277.5625 L1136.1094,279.0156 Q1136.1094,279.625 1135.875,279.8906 Q1135.6406,280.1563 1135.2656,280.1563 Q1134.9219,280.1563 1134.7188,279.9531 Q1134.5156,279.7656 1134.4063,279.25 Q1134.3594,278.8906 1134.1719,278.7031 Q1133.8438,278.3281 1133.2344,278.1094 Q1132.625,277.8906 1132,277.8906 Q1131.2344,277.8906 1130.5938,278.2188 Q1129.9688,278.5469 1129.4688,279.2969 Q1128.9844,280.0469 1128.9844,281.0781 L1128.9844,282.1719 Q1128.9844,283.4063 1129.875,284.2344 Q1130.7656,285.0469 1132.3594,285.0469 Q1133.2969,285.0469 1133.9531,284.7969 Q1134.3438,284.6406 1134.7656,284.2031 Q1135.0313,283.9375 1135.1719,283.8594 Q1135.3281,283.7813 1135.5313,283.7813 Q1135.8594,283.7813 1136.1094,284.0469 Q1136.375,284.2969 1136.375,284.6406 Q1136.375,284.9844 1136.0313,285.3906 Q1135.5313,285.9688 1134.7344,286.2969 Q1133.6563,286.75 1132.3594,286.75 Q1130.8438,286.75 1129.6406,286.125 Q1128.6563,285.625 1127.9688,284.5625 Q1127.2813,283.4844 1127.2813,282.2031 L1127.2813,281.0469 Q1127.2813,279.7188 1127.8906,278.5781 Q1128.5156,277.4219 1129.6094,276.8125 Q1130.7031,276.1875 1131.9375,276.1875 Q1132.6719,276.1875 1133.3125,276.3594 Q1133.9688,276.5156 1134.5156,276.875 Z " fill="#000000"/><text fill="#000000" font-family="sans-serif" font-size="14" lengthAdjust="spacing" textLength="216" x="1152.25" y="286.7285">MySQLDatabaseMetadataAdapter</text><line style="stroke:#181818;stroke-width:0.5;" x1="1034.5" x2="1453.5" y1="297" y2="297"/><text fill="#000000" font-family="sans-serif" font-size="14" lengthAdjust="spacing" textLength="51" x="1039.5" y="315.5332">host: str</text><text fill="#000000" font-family="sans-serif" font-size="14" lengthAdjust="spacing" textLength="48" x="1039.5" y="333.1426">port: int</text><text fill="#000000" font-family="sans-serif" font-size="14" lengthAdjust="spacing" textLength="87" x="1039.5" y="350.752">username: str</text><text fill="#000000" font-family="sans-serif" font-size="14" lengthAdjust="spacing" textLength="84" x="1039.5" y="368.3613">password: str</text><text fill="#000000" font-family="sans-serif" font-size="14" lengthAdjust="spacing" textLength="4" x="1039.5" y="385.9707">&#160;</text><text fill="#000000" font-family="sans-serif" font-size="14" lengthAdjust="spacing" textLength="343" x="1039.5" y="403.5801">mysqlTypesToStandarTypes: dict[str, FieldDataTypes]</text><line style="stroke:#181818;stroke-width:0.5;" x1="1034.5" x2="1453.5" y1="410.6563" y2="410.6563"/><text fill="#000000" font-family="sans-serif" font-size="14" lengthAdjust="spacing" textLength="409" x="1039.5" y="429.1895">__init__(host, port, username, password, createdBy: User=None)</text></g><!--class FieldDataTypes--><g id="elem_FieldDataTypes"><rect codeLine="39" fill="#F1F1F1" height="188.875" id="FieldDataTypes" rx="2.5" ry="2.5" style="stroke:#181818;stroke-width:0.5;" width="132" x="2320" y="1339.5"/><ellipse cx="2335" cy="1355.5" fill="#EB937F" rx="11" ry="11" style="stroke:#181818;stroke-width:1.0;"/><path d="M2333.8594,1356.2969 L2333.8594,1358.7969 L2338.1875,1358.7969 L2338.1875,1357.875 Q2338.1875,1357.2656 2338.4219,1357 Q2338.6719,1356.7344 2339.0469,1356.7344 Q2339.4219,1356.7344 2339.6563,1357 Q2339.8906,1357.2656 2339.8906,1357.875 L2339.8906,1360.5 L2331.8906,1360.5 Q2331.2656,1360.5 2331,1360.2656 Q2330.75,1360.0313 2330.75,1359.6406 Q2330.75,1359.2656 2331.0156,1359.0313 Q2331.2813,1358.7969 2331.8906,1358.7969 L2332.1563,1358.7969 L2332.1563,1352.1406 L2331.8906,1352.1406 Q2331.2656,1352.1406 2331,1351.9063 Q2330.75,1351.6719 2330.75,1351.2813 Q2330.75,1350.9063 2331,1350.6719 Q2331.2656,1350.4375 2331.8906,1350.4375 L2339.5156,1350.4375 L2339.5156,1353.0313 Q2339.5156,1353.6406 2339.2813,1353.9063 Q2339.0625,1354.1563 2338.6719,1354.1563 Q2338.2969,1354.1563 2338.0625,1353.9063 Q2337.8281,1353.6406 2337.8281,1353.0313 L2337.8281,1352.1406 L2333.8594,1352.1406 L2333.8594,1354.5938 L2335.3438,1354.5938 Q2335.3438,1353.9375 2335.4688,1353.75 Q2335.7344,1353.3438 2336.2031,1353.3438 Q2336.5781,1353.3438 2336.8125,1353.6094 Q2337.0469,1353.8594 2337.0469,1354.4688 L2337.0469,1356.4375 Q2337.0469,1356.9844 2336.9219,1357.1719 Q2336.6563,1357.5625 2336.2031,1357.5625 Q2335.7344,1357.5625 2335.4688,1357.1563 Q2335.3438,1356.9688 2335.3438,1356.2969 L2333.8594,1356.2969 Z " fill="#000000"/><text fill="#000000" font-family="sans-serif" font-size="14" lengthAdjust="spacing" textLength="100" x="2349" y="1361.2285">FieldDataTypes</text><line style="stroke:#181818;stroke-width:0.5;" x1="2321" x2="2451" y1="1371.5" y2="1371.5"/><text fill="#000000" font-family="sans-serif" font-size="14" lengthAdjust="spacing" textLength="51" x="2326" y="1390.0332">STRING</text><text fill="#000000" font-family="sans-serif" font-size="14" lengthAdjust="spacing" textLength="60" x="2326" y="1407.6426">INTEGER</text><text fill="#000000" font-family="sans-serif" font-size="14" lengthAdjust="spacing" textLength="60" x="2326" y="1425.252">DECIMAL</text><text fill="#000000" font-family="sans-serif" font-size="14" lengthAdjust="spacing" textLength="66" x="2326" y="1442.8613">BOOLEAN</text><text fill="#000000" font-family="sans-serif" font-size="14" lengthAdjust="spacing" textLength="49" x="2326" y="1460.4707">BINARY</text><text fill="#000000" font-family="sans-serif" font-size="14" lengthAdjust="spacing" textLength="32" x="2326" y="1478.0801">TIME</text><text fill="#000000" font-family="sans-serif" font-size="14" lengthAdjust="spacing" textLength="37" x="2326" y="1495.6895">DATE</text><text fill="#000000" font-family="sans-serif" font-size="14" lengthAdjust="spacing" textLength="69" x="2326" y="1513.2988">DATETIME</text><line style="stroke:#181818;stroke-width:0.5;" x1="2321" x2="2451" y1="1520.375" y2="1520.375"/></g><!--class FieldTag--><g id="elem_FieldTag"><rect codeLine="50" fill="#F1F1F1" height="136.0469" id="FieldTag" rx="2.5" ry="2.5" style="stroke:#181818;stroke-width:0.5;" width="510" x="1775" y="1366"/><ellipse cx="1997.75" cy="1382" fill="#ADD1B2" rx="11" ry="11" style="stroke:#181818;stroke-width:1.0;"/><path d="M2000.5156,1377.875 Q2000.6719,1377.6563 2000.8594,1377.5469 Q2001.0469,1377.4375 2001.2656,1377.4375 Q2001.6406,1377.4375 2001.875,1377.7031 Q2002.1094,1377.9531 2002.1094,1378.5625 L2002.1094,1380.0156 Q2002.1094,1380.625 2001.875,1380.8906 Q2001.6406,1381.1563 2001.2656,1381.1563 Q2000.9219,1381.1563 2000.7188,1380.9531 Q2000.5156,1380.7656 2000.4063,1380.25 Q2000.3594,1379.8906 2000.1719,1379.7031 Q1999.8438,1379.3281 1999.2344,1379.1094 Q1998.625,1378.8906 1998,1378.8906 Q1997.2344,1378.8906 1996.5938,1379.2188 Q1995.9688,1379.5469 1995.4688,1380.2969 Q1994.9844,1381.0469 1994.9844,1382.0781 L1994.9844,1383.1719 Q1994.9844,1384.4063 1995.875,1385.2344 Q1996.7656,1386.0469 1998.3594,1386.0469 Q1999.2969,1386.0469 1999.9531,1385.7969 Q2000.3438,1385.6406 2000.7656,1385.2031 Q2001.0313,1384.9375 2001.1719,1384.8594 Q2001.3281,1384.7813 2001.5313,1384.7813 Q2001.8594,1384.7813 2002.1094,1385.0469 Q2002.375,1385.2969 2002.375,1385.6406 Q2002.375,1385.9844 2002.0313,1386.3906 Q2001.5313,1386.9688 2000.7344,1387.2969 Q1999.6563,1387.75 1998.3594,1387.75 Q1996.8438,1387.75 1995.6406,1387.125 Q1994.6563,1386.625 1993.9688,1385.5625 Q1993.2813,1384.4844 1993.2813,1383.2031 L1993.2813,1382.0469 Q1993.2813,1380.7188 1993.8906,1379.5781 Q1994.5156,1378.4219 1995.6094,1377.8125 Q1996.7031,1377.1875 1997.9375,1377.1875 Q1998.6719,1377.1875 1999.3125,1377.3594 Q1999.9688,1377.5156 2000.5156,1377.875 Z " fill="#000000"/><text fill="#000000" font-family="sans-serif" font-size="14" lengthAdjust="spacing" textLength="56" x="2018.25" y="1387.7285">FieldTag</text><line style="stroke:#181818;stroke-width:0.5;" x1="1776" x2="2284" y1="1398" y2="1398"/><text fill="#000000" font-family="sans-serif" font-size="14" lengthAdjust="spacing" textLength="35" x="1781" y="1416.5332">id: str</text><text fill="#000000" font-family="sans-serif" font-size="14" lengthAdjust="spacing" textLength="126" x="1781" y="1434.1426">field: DatabaseField</text><text fill="#000000" font-family="sans-serif" font-size="14" lengthAdjust="spacing" textLength="115" x="1781" y="1451.752">tag: DataTypeTag</text><text fill="#000000" font-family="sans-serif" font-size="14" lengthAdjust="spacing" textLength="117" x="1781" y="1469.3613">certanty_score: int</text><line style="stroke:#181818;stroke-width:0.5;" x1="1776" x2="2284" y1="1476.4375" y2="1476.4375"/><text fill="#000000" font-family="sans-serif" font-size="14" lengthAdjust="spacing" textLength="498" x="1781" y="1494.9707">__init__(field: DatabaseField, tag: DataTypeTag, certanty_score: int): FieldTag</text></g><!--class DatabaseField--><g id="elem_DatabaseField"><rect codeLine="61" fill="#F1F1F1" height="241.7031" id="DatabaseField" rx="2.5" ry="2.5" style="stroke:#181818;stroke-width:0.5;" width="374" x="1843" y="1020"/><ellipse cx="1979.75" cy="1036" fill="#ADD1B2" rx="11" ry="11" style="stroke:#181818;stroke-width:1.0;"/><path d="M1982.5156,1031.875 Q1982.6719,1031.6563 1982.8594,1031.5469 Q1983.0469,1031.4375 1983.2656,1031.4375 Q1983.6406,1031.4375 1983.875,1031.7031 Q1984.1094,1031.9531 1984.1094,1032.5625 L1984.1094,1034.0156 Q1984.1094,1034.625 1983.875,1034.8906 Q1983.6406,1035.1563 1983.2656,1035.1563 Q1982.9219,1035.1563 1982.7188,1034.9531 Q1982.5156,1034.7656 1982.4063,1034.25 Q1982.3594,1033.8906 1982.1719,1033.7031 Q1981.8438,1033.3281 1981.2344,1033.1094 Q1980.625,1032.8906 1980,1032.8906 Q1979.2344,1032.8906 1978.5938,1033.2188 Q1977.9688,1033.5469 1977.4688,1034.2969 Q1976.9844,1035.0469 1976.9844,1036.0781 L1976.9844,1037.1719 Q1976.9844,1038.4063 1977.875,1039.2344 Q1978.7656,1040.0469 1980.3594,1040.0469 Q1981.2969,1040.0469 1981.9531,1039.7969 Q1982.3438,1039.6406 1982.7656,1039.2031 Q1983.0313,1038.9375 1983.1719,1038.8594 Q1983.3281,1038.7813 1983.5313,1038.7813 Q1983.8594,1038.7813 1984.1094,1039.0469 Q1984.375,1039.2969 1984.375,1039.6406 Q1984.375,1039.9844 1984.0313,1040.3906 Q1983.5313,1040.9688 1982.7344,1041.2969 Q1981.6563,1041.75 1980.3594,1041.75 Q1978.8438,1041.75 1977.6406,1041.125 Q1976.6563,1040.625 1975.9688,1039.5625 Q1975.2813,1038.4844 1975.2813,1037.2031 L1975.2813,1036.0469 Q1975.2813,1034.7188 1975.8906,1033.5781 Q1976.5156,1032.4219 1977.6094,1031.8125 Q1978.7031,1031.1875 1979.9375,1031.1875 Q1980.6719,1031.1875 1981.3125,1031.3594 Q1981.9688,1031.5156 1982.5156,1031.875 Z " fill="#000000"/><text fill="#000000" font-family="sans-serif" font-size="14" lengthAdjust="spacing" textLength="92" x="2000.25" y="1041.7285">DatabaseField</text><line style="stroke:#181818;stroke-width:0.5;" x1="1844" x2="2216" y1="1052" y2="1052"/><text fill="#000000" font-family="sans-serif" font-size="14" lengthAdjust="spacing" textLength="34" x="1849" y="1070.5332">id: int</text><text fill="#000000" font-family="sans-serif" font-size="14" lengthAdjust="spacing" textLength="59" x="1849" y="1088.1426">name: str</text><text fill="#000000" font-family="sans-serif" font-size="14" lengthAdjust="spacing" textLength="135" x="1849" y="1105.752">type: FieldDataTypes</text><text fill="#000000" font-family="sans-serif" font-size="14" lengthAdjust="spacing" textLength="116" x="1849" y="1123.3613">tags: list[FieldTag]</text><text fill="#000000" font-family="sans-serif" font-size="14" lengthAdjust="spacing" textLength="132" x="1849" y="1140.9707">dataSample: list[Any]</text><line style="stroke:#181818;stroke-width:0.5;" x1="1844" x2="2216" y1="1148.0469" y2="1148.0469"/><text fill="#000000" font-family="sans-serif" font-size="14" lengthAdjust="spacing" textLength="362" x="1849" y="1166.5801">__init__(name: str, type: FieldDataTypes): DatabaseField</text><text fill="#000000" font-family="sans-serif" font-size="14" lengthAdjust="spacing" textLength="90" x="1849" y="1184.1895">getName(): str</text><text fill="#000000" font-family="sans-serif" font-size="14" lengthAdjust="spacing" textLength="275" x="1849" y="1201.7988">getOrAddTag(tag: DataTypeTag): FieldTag</text><text fill="#000000" font-family="sans-serif" font-size="14" lengthAdjust="spacing" textLength="301" x="1849" y="1219.4082">updateTag(tag: DataTypeTag, score: int): None</text><text fill="#000000" font-family="sans-serif" font-size="14" lengthAdjust="spacing" textLength="201" x="1849" y="1237.0176">run(controls: list[Control]): None</text><text fill="#000000" font-family="sans-serif" font-size="14" lengthAdjust="spacing" textLength="252" x="1849" y="1254.627">getDataSampleWithoutNones(): list[Any]</text></g><!--class DataTypeTag--><g id="elem_DataTypeTag"><rect codeLine="128" fill="#F1F1F1" height="153.6563" id="DataTypeTag" rx="2.5" ry="2.5" style="stroke:#181818;stroke-width:0.5;" width="518" x="2039" y="1784"/><ellipse cx="2250.25" cy="1800" fill="#ADD1B2" rx="11" ry="11" style="stroke:#181818;stroke-width:1.0;"/><path d="M2253.0156,1795.875 Q2253.1719,1795.6563 2253.3594,1795.5469 Q2253.5469,1795.4375 2253.7656,1795.4375 Q2254.1406,1795.4375 2254.375,1795.7031 Q2254.6094,1795.9531 2254.6094,1796.5625 L2254.6094,1798.0156 Q2254.6094,1798.625 2254.375,1798.8906 Q2254.1406,1799.1563 2253.7656,1799.1563 Q2253.4219,1799.1563 2253.2188,1798.9531 Q2253.0156,1798.7656 2252.9063,1798.25 Q2252.8594,1797.8906 2252.6719,1797.7031 Q2252.3438,1797.3281 2251.7344,1797.1094 Q2251.125,1796.8906 2250.5,1796.8906 Q2249.7344,1796.8906 2249.0938,1797.2188 Q2248.4688,1797.5469 2247.9688,1798.2969 Q2247.4844,1799.0469 2247.4844,1800.0781 L2247.4844,1801.1719 Q2247.4844,1802.4063 2248.375,1803.2344 Q2249.2656,1804.0469 2250.8594,1804.0469 Q2251.7969,1804.0469 2252.4531,1803.7969 Q2252.8438,1803.6406 2253.2656,1803.2031 Q2253.5313,1802.9375 2253.6719,1802.8594 Q2253.8281,1802.7813 2254.0313,1802.7813 Q2254.3594,1802.7813 2254.6094,1803.0469 Q2254.875,1803.2969 2254.875,1803.6406 Q2254.875,1803.9844 2254.5313,1804.3906 Q2254.0313,1804.9688 2253.2344,1805.2969 Q2252.1563,1805.75 2250.8594,1805.75 Q2249.3438,1805.75 2248.1406,1805.125 Q2247.1563,1804.625 2246.4688,1803.5625 Q2245.7813,1802.4844 2245.7813,1801.2031 L2245.7813,1800.0469 Q2245.7813,1798.7188 2246.3906,1797.5781 Q2247.0156,1796.4219 2248.1094,1795.8125 Q2249.2031,1795.1875 2250.4375,1795.1875 Q2251.1719,1795.1875 2251.8125,1795.3594 Q2252.4688,1795.5156 2253.0156,1795.875 Z " fill="#000000"/><text fill="#000000" font-family="sans-serif" font-size="14" lengthAdjust="spacing" textLength="87" x="2270.75" y="1805.7285">DataTypeTag</text><line style="stroke:#181818;stroke-width:0.5;" x1="2040" x2="2556" y1="1816" y2="1816"/><text fill="#000000" font-family="sans-serif" font-size="14" lengthAdjust="spacing" textLength="30" x="2045" y="1834.5332">id: id</text><text fill="#000000" font-family="sans-serif" font-size="14" lengthAdjust="spacing" textLength="59" x="2045" y="1852.1426">name: str</text><text fill="#000000" font-family="sans-serif" font-size="14" lengthAdjust="spacing" textLength="154" x="2045" y="1869.752">description: Optional[str]</text><text fill="#000000" font-family="sans-serif" font-size="14" lengthAdjust="spacing" textLength="162" x="2045" y="1887.3613">createdBy: Optional[User]</text><text fill="#000000" font-family="sans-serif" font-size="14" lengthAdjust="spacing" textLength="130" x="2045" y="1904.9707">created_at: datetime</text><line style="stroke:#181818;stroke-width:0.5;" x1="2040" x2="2556" y1="1912.0469" y2="1912.0469"/><text fill="#000000" font-family="sans-serif" font-size="14" lengthAdjust="spacing" textLength="506" x="2045" y="1930.5801">__init__(name: str, description: str=None, createdBy: User=None): DataTypeTag</text></g><!--class Control--><g id="elem_Control"><rect codeLine="149" fill="#F1F1F1" height="224.0938" id="Control" rx="2.5" ry="2.5" style="stroke:#181818;stroke-width:0.5;" width="528" x="1212" y="1322"/><ellipse cx="1448.75" cy="1338" fill="#A9DCDF" rx="11" ry="11" style="stroke:#181818;stroke-width:1.0;"/><path d="M1450.9375,1339.7656 L1446.7969,1339.7656 L1446.375,1340.7969 L1446.7969,1340.7969 Q1447.4063,1340.7969 1447.6719,1341.0313 Q1447.9375,1341.2656 1447.9375,1341.6563 Q1447.9375,1342.0313 1447.6719,1342.2656 Q1447.4063,1342.5 1446.7969,1342.5 L1444.5,1342.5 Q1443.8906,1342.5 1443.6406,1342.2656 Q1443.375,1342.0313 1443.375,1341.6406 Q1443.375,1341.2656 1443.6563,1341.0313 Q1443.9219,1340.7813 1444.5469,1340.7969 L1447.2188,1334.1406 L1446.1094,1334.1406 Q1445.5,1334.1406 1445.2344,1333.9063 Q1444.9688,1333.6719 1444.9688,1333.2813 Q1444.9688,1332.9063 1445.2344,1332.6719 Q1445.5,1332.4375 1446.1094,1332.4375 L1449.7813,1332.4375 L1453.1719,1340.7969 Q1453.7656,1340.7969 1453.9531,1340.9375 Q1454.3438,1341.2031 1454.3438,1341.6563 Q1454.3438,1342.0313 1454.0781,1342.2656 Q1453.8281,1342.5 1453.2188,1342.5 L1450.9219,1342.5 Q1450.3125,1342.5 1450.0469,1342.2656 Q1449.7813,1342.0313 1449.7813,1341.6406 Q1449.7813,1341.2656 1450.0469,1341.0313 Q1450.3125,1340.7969 1450.9219,1340.7969 L1451.3438,1340.7969 L1450.9375,1339.7656 Z M1450.2188,1338.0625 L1448.8594,1334.6875 L1447.4844,1338.0625 L1450.2188,1338.0625 Z " fill="#000000"/><text fill="#000000" font-family="sans-serif" font-size="14" font-style="italic" lengthAdjust="spacing" textLength="46" x="1469.25" y="1343.7285">Control</text><line style="stroke:#181818;stroke-width:0.5;" x1="1213" x2="1739" y1="1354" y2="1354"/><text fill="#000000" font-family="sans-serif" font-size="14" lengthAdjust="spacing" textLength="34" x="1218" y="1372.5332">id: int</text><text fill="#000000" font-family="sans-serif" font-size="14" lengthAdjust="spacing" textLength="59" x="1218" y="1390.1426">name: str</text><text fill="#000000" font-family="sans-serif" font-size="14" lengthAdjust="spacing" textLength="82" x="1218" y="1407.752">raw_data: str</text><text fill="#000000" font-family="sans-serif" font-size="14" lengthAdjust="spacing" textLength="239" x="1218" y="1425.3613">affectedTags: list[ControlAffectedTag]</text><text fill="#000000" font-family="sans-serif" font-size="14" lengthAdjust="spacing" textLength="162" x="1218" y="1442.9707">createdBy: Optional[User]</text><text fill="#000000" font-family="sans-serif" font-size="14" lengthAdjust="spacing" textLength="130" x="1218" y="1460.5801">created_at: datetime</text><line style="stroke:#181818;stroke-width:0.5;" x1="1213" x2="1739" y1="1467.6563" y2="1467.6563"/><text fill="#000000" font-family="sans-serif" font-size="14" lengthAdjust="spacing" textLength="516" x="1218" y="1486.1895">__init__(name: str, affectedTags: dict[DataTypeTag, int], createdBy: User = None)</text><text fill="#000000" font-family="sans-serif" font-size="14" lengthAdjust="spacing" textLength="297" x="1218" y="1503.7988">__conditionMatches(field: DatabaseField): bool</text><text fill="#000000" font-family="sans-serif" font-size="14" lengthAdjust="spacing" textLength="146" x="1218" y="1521.4082">getData(): dict[str, Any]</text><text fill="#000000" font-family="sans-serif" font-size="14" lengthAdjust="spacing" textLength="245" x="1218" y="1539.0176">executeOn(field: DatabaseField): None</text></g><!--class DatabaseTable--><g id="elem_DatabaseTable"><rect codeLine="81" fill="#F1F1F1" height="188.875" id="DatabaseTable" rx="2.5" ry="2.5" style="stroke:#181818;stroke-width:0.5;" width="294" x="1461" y="771"/><ellipse cx="1555.25" cy="787" fill="#ADD1B2" rx="11" ry="11" style="stroke:#181818;stroke-width:1.0;"/><path d="M1558.0156,782.875 Q1558.1719,782.6563 1558.3594,782.5469 Q1558.5469,782.4375 1558.7656,782.4375 Q1559.1406,782.4375 1559.375,782.7031 Q1559.6094,782.9531 1559.6094,783.5625 L1559.6094,785.0156 Q1559.6094,785.625 1559.375,785.8906 Q1559.1406,786.1563 1558.7656,786.1563 Q1558.4219,786.1563 1558.2188,785.9531 Q1558.0156,785.7656 1557.9063,785.25 Q1557.8594,784.8906 1557.6719,784.7031 Q1557.3438,784.3281 1556.7344,784.1094 Q1556.125,783.8906 1555.5,783.8906 Q1554.7344,783.8906 1554.0938,784.2188 Q1553.4688,784.5469 1552.9688,785.2969 Q1552.4844,786.0469 1552.4844,787.0781 L1552.4844,788.1719 Q1552.4844,789.4063 1553.375,790.2344 Q1554.2656,791.0469 1555.8594,791.0469 Q1556.7969,791.0469 1557.4531,790.7969 Q1557.8438,790.6406 1558.2656,790.2031 Q1558.5313,789.9375 1558.6719,789.8594 Q1558.8281,789.7813 1559.0313,789.7813 Q1559.3594,789.7813 1559.6094,790.0469 Q1559.875,790.2969 1559.875,790.6406 Q1559.875,790.9844 1559.5313,791.3906 Q1559.0313,791.9688 1558.2344,792.2969 Q1557.1563,792.75 1555.8594,792.75 Q1554.3438,792.75 1553.1406,792.125 Q1552.1563,791.625 1551.4688,790.5625 Q1550.7813,789.4844 1550.7813,788.2031 L1550.7813,787.0469 Q1550.7813,785.7188 1551.3906,784.5781 Q1552.0156,783.4219 1553.1094,782.8125 Q1554.2031,782.1875 1555.4375,782.1875 Q1556.1719,782.1875 1556.8125,782.3594 Q1557.4688,782.5156 1558.0156,782.875 Z " fill="#000000"/><text fill="#000000" font-family="sans-serif" font-size="14" lengthAdjust="spacing" textLength="97" x="1575.75" y="792.7285">DatabaseTable</text><line style="stroke:#181818;stroke-width:0.5;" x1="1462" x2="1754" y1="803" y2="803"/><text fill="#000000" font-family="sans-serif" font-size="14" lengthAdjust="spacing" textLength="35" x="1467" y="821.5332">id: str</text><text fill="#000000" font-family="sans-serif" font-size="14" lengthAdjust="spacing" textLength="59" x="1467" y="839.1426">name: str</text><text fill="#000000" font-family="sans-serif" font-size="14" lengthAdjust="spacing" textLength="158" x="1467" y="856.752">fields: list[DatabaseField]</text><line style="stroke:#181818;stroke-width:0.5;" x1="1462" x2="1754" y1="863.8281" y2="863.8281"/><text fill="#000000" font-family="sans-serif" font-size="14" lengthAdjust="spacing" textLength="282" x="1467" y="882.3613">__init__(name, fields=None): DatabaseTable</text><text fill="#000000" font-family="sans-serif" font-size="14" lengthAdjust="spacing" textLength="232" x="1467" y="899.9707">addField(field: DatabaseField): None</text><text fill="#000000" font-family="sans-serif" font-size="14" lengthAdjust="spacing" textLength="90" x="1467" y="917.5801">getName(): str</text><text fill="#000000" font-family="sans-serif" font-size="14" lengthAdjust="spacing" textLength="193" x="1467" y="935.1895">getFields(): list[DatabaseField]</text><text fill="#000000" font-family="sans-serif" font-size="14" lengthAdjust="spacing" textLength="201" x="1467" y="952.7988">run(controls: list[Control]): None</text></g><!--class DatabaseSchema--><g id="elem_DatabaseSchema"><rect codeLine="96" fill="#F1F1F1" height="206.4844" id="DatabaseSchema" rx="2.5" ry="2.5" style="stroke:#181818;stroke-width:0.5;" width="314" x="1351" y="505"/><ellipse cx="1447.75" cy="521" fill="#ADD1B2" rx="11" ry="11" style="stroke:#181818;stroke-width:1.0;"/><path d="M1450.5156,516.875 Q1450.6719,516.6563 1450.8594,516.5469 Q1451.0469,516.4375 1451.2656,516.4375 Q1451.6406,516.4375 1451.875,516.7031 Q1452.1094,516.9531 1452.1094,517.5625 L1452.1094,519.0156 Q1452.1094,519.625 1451.875,519.8906 Q1451.6406,520.1563 1451.2656,520.1563 Q1450.9219,520.1563 1450.7188,519.9531 Q1450.5156,519.7656 1450.4063,519.25 Q1450.3594,518.8906 1450.1719,518.7031 Q1449.8438,518.3281 1449.2344,518.1094 Q1448.625,517.8906 1448,517.8906 Q1447.2344,517.8906 1446.5938,518.2188 Q1445.9688,518.5469 1445.4688,519.2969 Q1444.9844,520.0469 1444.9844,521.0781 L1444.9844,522.1719 Q1444.9844,523.4063 1445.875,524.2344 Q1446.7656,525.0469 1448.3594,525.0469 Q1449.2969,525.0469 1449.9531,524.7969 Q1450.3438,524.6406 1450.7656,524.2031 Q1451.0313,523.9375 1451.1719,523.8594 Q1451.3281,523.7813 1451.5313,523.7813 Q1451.8594,523.7813 1452.1094,524.0469 Q1452.375,524.2969 1452.375,524.6406 Q1452.375,524.9844 1452.0313,525.3906 Q1451.5313,525.9688 1450.7344,526.2969 Q1449.6563,526.75 1448.3594,526.75 Q1446.8438,526.75 1445.6406,526.125 Q1444.6563,525.625 1443.9688,524.5625 Q1443.2813,523.4844 1443.2813,522.2031 L1443.2813,521.0469 Q1443.2813,519.7188 1443.8906,518.5781 Q1444.5156,517.4219 1445.6094,516.8125 Q1446.7031,516.1875 1447.9375,516.1875 Q1448.6719,516.1875 1449.3125,516.3594 Q1449.9688,516.5156 1450.5156,516.875 Z " fill="#000000"/><text fill="#000000" font-family="sans-serif" font-size="14" lengthAdjust="spacing" textLength="112" x="1468.25" y="526.7285">DatabaseSchema</text><line style="stroke:#181818;stroke-width:0.5;" x1="1352" x2="1664" y1="537" y2="537"/><text fill="#000000" font-family="sans-serif" font-size="14" lengthAdjust="spacing" textLength="34" x="1357" y="555.5332">id: int</text><text fill="#000000" font-family="sans-serif" font-size="14" lengthAdjust="spacing" textLength="59" x="1357" y="573.1426">name: str</text><text fill="#000000" font-family="sans-serif" font-size="14" lengthAdjust="spacing" textLength="168" x="1357" y="590.752">tables: list[DatabaseTable]</text><line style="stroke:#181818;stroke-width:0.5;" x1="1352" x2="1664" y1="597.8281" y2="597.8281"/><text fill="#000000" font-family="sans-serif" font-size="14" lengthAdjust="spacing" textLength="302" x="1357" y="616.3613">__init__(name, tables=None): DatabaseSchema</text><text fill="#000000" font-family="sans-serif" font-size="14" lengthAdjust="spacing" textLength="90" x="1357" y="633.9707">getName(): str</text><text fill="#000000" font-family="sans-serif" font-size="14" lengthAdjust="spacing" textLength="247" x="1357" y="651.5801">addTable(table: DatabaseTable): None</text><text fill="#000000" font-family="sans-serif" font-size="14" lengthAdjust="spacing" textLength="203" x="1357" y="669.1895">getTables(): list[DatabaseTable]</text><text fill="#000000" font-family="sans-serif" font-size="14" lengthAdjust="spacing" textLength="271" x="1357" y="686.7988">getOrAddTable(name: str): DatabaseTable</text><text fill="#000000" font-family="sans-serif" font-size="14" lengthAdjust="spacing" textLength="201" x="1357" y="704.4082">run(controls: list[Control]): None</text></g><!--class ControlAffectedTag--><g id="elem_ControlAffectedTag"><rect codeLine="139" fill="#F1F1F1" height="118.4375" id="ControlAffectedTag" rx="2.5" ry="2.5" style="stroke:#181818;stroke-width:0.5;" width="506" x="1892" y="1606"/><ellipse cx="2079.25" cy="1622" fill="#ADD1B2" rx="11" ry="11" style="stroke:#181818;stroke-width:1.0;"/><path d="M2082.0156,1617.875 Q2082.1719,1617.6563 2082.3594,1617.5469 Q2082.5469,1617.4375 2082.7656,1617.4375 Q2083.1406,1617.4375 2083.375,1617.7031 Q2083.6094,1617.9531 2083.6094,1618.5625 L2083.6094,1620.0156 Q2083.6094,1620.625 2083.375,1620.8906 Q2083.1406,1621.1563 2082.7656,1621.1563 Q2082.4219,1621.1563 2082.2188,1620.9531 Q2082.0156,1620.7656 2081.9063,1620.25 Q2081.8594,1619.8906 2081.6719,1619.7031 Q2081.3438,1619.3281 2080.7344,1619.1094 Q2080.125,1618.8906 2079.5,1618.8906 Q2078.7344,1618.8906 2078.0938,1619.2188 Q2077.4688,1619.5469 2076.9688,1620.2969 Q2076.4844,1621.0469 2076.4844,1622.0781 L2076.4844,1623.1719 Q2076.4844,1624.4063 2077.375,1625.2344 Q2078.2656,1626.0469 2079.8594,1626.0469 Q2080.7969,1626.0469 2081.4531,1625.7969 Q2081.8438,1625.6406 2082.2656,1625.2031 Q2082.5313,1624.9375 2082.6719,1624.8594 Q2082.8281,1624.7813 2083.0313,1624.7813 Q2083.3594,1624.7813 2083.6094,1625.0469 Q2083.875,1625.2969 2083.875,1625.6406 Q2083.875,1625.9844 2083.5313,1626.3906 Q2083.0313,1626.9688 2082.2344,1627.2969 Q2081.1563,1627.75 2079.8594,1627.75 Q2078.3438,1627.75 2077.1406,1627.125 Q2076.1563,1626.625 2075.4688,1625.5625 Q2074.7813,1624.4844 2074.7813,1623.2031 L2074.7813,1622.0469 Q2074.7813,1620.7188 2075.3906,1619.5781 Q2076.0156,1618.4219 2077.1094,1617.8125 Q2078.2031,1617.1875 2079.4375,1617.1875 Q2080.1719,1617.1875 2080.8125,1617.3594 Q2081.4688,1617.5156 2082.0156,1617.875 Z " fill="#000000"/><text fill="#000000" font-family="sans-serif" font-size="14" lengthAdjust="spacing" textLength="123" x="2099.75" y="1627.7285">ControlAffectedTag</text><line style="stroke:#181818;stroke-width:0.5;" x1="1893" x2="2397" y1="1638" y2="1638"/><text fill="#000000" font-family="sans-serif" font-size="14" lengthAdjust="spacing" textLength="34" x="1898" y="1656.5332">id: int</text><text fill="#000000" font-family="sans-serif" font-size="14" lengthAdjust="spacing" textLength="97" x="1898" y="1674.1426">control: Control</text><text fill="#000000" font-family="sans-serif" font-size="14" lengthAdjust="spacing" textLength="115" x="1898" y="1691.752">tag: DataTypeTag</text><line style="stroke:#181818;stroke-width:0.5;" x1="1893" x2="2397" y1="1698.8281" y2="1698.8281"/><text fill="#000000" font-family="sans-serif" font-size="14" lengthAdjust="spacing" textLength="494" x="1898" y="1717.3613">__init__(control: Control, tag: DataTypeTag, affectedScoreBy: int): ControlTag</text></g><!--class RegExOnFieldNameControl--><g id="elem_RegExOnFieldNameControl"><rect codeLine="165" fill="#F1F1F1" height="83.2188" id="RegExOnFieldNameControl" rx="2.5" ry="2.5" style="stroke:#181818;stroke-width:0.5;" width="776" x="252" y="1623.5"/><ellipse cx="549.25" cy="1639.5" fill="#ADD1B2" rx="11" ry="11" style="stroke:#181818;stroke-width:1.0;"/><path d="M552.0156,1635.375 Q552.1719,1635.1563 552.3594,1635.0469 Q552.5469,1634.9375 552.7656,1634.9375 Q553.1406,1634.9375 553.375,1635.2031 Q553.6094,1635.4531 553.6094,1636.0625 L553.6094,1637.5156 Q553.6094,1638.125 553.375,1638.3906 Q553.1406,1638.6563 552.7656,1638.6563 Q552.4219,1638.6563 552.2188,1638.4531 Q552.0156,1638.2656 551.9063,1637.75 Q551.8594,1637.3906 551.6719,1637.2031 Q551.3438,1636.8281 550.7344,1636.6094 Q550.125,1636.3906 549.5,1636.3906 Q548.7344,1636.3906 548.0938,1636.7188 Q547.4688,1637.0469 546.9688,1637.7969 Q546.4844,1638.5469 546.4844,1639.5781 L546.4844,1640.6719 Q546.4844,1641.9063 547.375,1642.7344 Q548.2656,1643.5469 549.8594,1643.5469 Q550.7969,1643.5469 551.4531,1643.2969 Q551.8438,1643.1406 552.2656,1642.7031 Q552.5313,1642.4375 552.6719,1642.3594 Q552.8281,1642.2813 553.0313,1642.2813 Q553.3594,1642.2813 553.6094,1642.5469 Q553.875,1642.7969 553.875,1643.1406 Q553.875,1643.4844 553.5313,1643.8906 Q553.0313,1644.4688 552.2344,1644.7969 Q551.1563,1645.25 549.8594,1645.25 Q548.3438,1645.25 547.1406,1644.625 Q546.1563,1644.125 545.4688,1643.0625 Q544.7813,1641.9844 544.7813,1640.7031 L544.7813,1639.5469 Q544.7813,1638.2188 545.3906,1637.0781 Q546.0156,1635.9219 547.1094,1635.3125 Q548.2031,1634.6875 549.4375,1634.6875 Q550.1719,1634.6875 550.8125,1634.8594 Q551.4688,1635.0156 552.0156,1635.375 Z " fill="#000000"/><text fill="#000000" font-family="sans-serif" font-size="14" lengthAdjust="spacing" textLength="173" x="569.75" y="1645.2285">RegExOnFieldNameControl</text><line style="stroke:#181818;stroke-width:0.5;" x1="253" x2="1027" y1="1655.5" y2="1655.5"/><line style="stroke:#181818;stroke-width:0.5;" x1="253" x2="1027" y1="1663.5" y2="1663.5"/><text fill="#000000" font-family="sans-serif" font-size="14" lengthAdjust="spacing" textLength="764" x="258" y="1682.0332">__init__(name: str, affectedTags: dict[DataTypeTag, int], regex :str, createdBy: User = None): RegExOnFieldNameControl</text><text fill="#000000" font-family="sans-serif" font-size="14" lengthAdjust="spacing" textLength="95" x="258" y="1699.6426">getRegEx(): str</text></g><!--class RegExOnSampledDataControl--><g id="elem_RegExOnSampledDataControl"><rect codeLine="170" fill="#F1F1F1" height="83.2188" id="RegExOnSampledDataControl" rx="2.5" ry="2.5" style="stroke:#181818;stroke-width:0.5;" width="794" x="1063" y="1623.5"/><ellipse cx="1360.25" cy="1639.5" fill="#ADD1B2" rx="11" ry="11" style="stroke:#181818;stroke-width:1.0;"/><path d="M1363.0156,1635.375 Q1363.1719,1635.1563 1363.3594,1635.0469 Q1363.5469,1634.9375 1363.7656,1634.9375 Q1364.1406,1634.9375 1364.375,1635.2031 Q1364.6094,1635.4531 1364.6094,1636.0625 L1364.6094,1637.5156 Q1364.6094,1638.125 1364.375,1638.3906 Q1364.1406,1638.6563 1363.7656,1638.6563 Q1363.4219,1638.6563 1363.2188,1638.4531 Q1363.0156,1638.2656 1362.9063,1637.75 Q1362.8594,1637.3906 1362.6719,1637.2031 Q1362.3438,1636.8281 1361.7344,1636.6094 Q1361.125,1636.3906 1360.5,1636.3906 Q1359.7344,1636.3906 1359.0938,1636.7188 Q1358.4688,1637.0469 1357.9688,1637.7969 Q1357.4844,1638.5469 1357.4844,1639.5781 L1357.4844,1640.6719 Q1357.4844,1641.9063 1358.375,1642.7344 Q1359.2656,1643.5469 1360.8594,1643.5469 Q1361.7969,1643.5469 1362.4531,1643.2969 Q1362.8438,1643.1406 1363.2656,1642.7031 Q1363.5313,1642.4375 1363.6719,1642.3594 Q1363.8281,1642.2813 1364.0313,1642.2813 Q1364.3594,1642.2813 1364.6094,1642.5469 Q1364.875,1642.7969 1364.875,1643.1406 Q1364.875,1643.4844 1364.5313,1643.8906 Q1364.0313,1644.4688 1363.2344,1644.7969 Q1362.1563,1645.25 1360.8594,1645.25 Q1359.3438,1645.25 1358.1406,1644.625 Q1357.1563,1644.125 1356.4688,1643.0625 Q1355.7813,1641.9844 1355.7813,1640.7031 L1355.7813,1639.5469 Q1355.7813,1638.2188 1356.3906,1637.0781 Q1357.0156,1635.9219 1358.1094,1635.3125 Q1359.2031,1634.6875 1360.4375,1634.6875 Q1361.1719,1634.6875 1361.8125,1634.8594 Q1362.4688,1635.0156 1363.0156,1635.375 Z " fill="#000000"/><text fill="#000000" font-family="sans-serif" font-size="14" lengthAdjust="spacing" textLength="191" x="1380.75" y="1645.2285">RegExOnSampledDataControl</text><line style="stroke:#181818;stroke-width:0.5;" x1="1064" x2="1856" y1="1655.5" y2="1655.5"/><line style="stroke:#181818;stroke-width:0.5;" x1="1064" x2="1856" y1="1663.5" y2="1663.5"/><text fill="#000000" font-family="sans-serif" font-size="14" lengthAdjust="spacing" textLength="782" x="1069" y="1682.0332">__init__(name: str, affectedTags: dict[DataTypeTag, int], regex :str, createdBy: User = None): RegExOnSampledDataControl</text><text fill="#000000" font-family="sans-serif" font-size="14" lengthAdjust="spacing" textLength="95" x="1069" y="1699.6426">getRegEx(): str</text></g><!--link DatabaseMetadataAdapter to ScanResult--><g id="link_DatabaseMetadataAdapter_ScanResult"><path codeLine="26" d="M791.59,196.23 C791.14,215.75 791.0016,230.3216 791.4516,249.8316 " fill="none" id="DatabaseMetadataAdapter-to-ScanResult" style="stroke:#181818;stroke-width:1.0;"/><polygon fill="#181818" points="791.59,255.83,795.3814,246.7402,791.4747,250.8313,787.3835,246.9246,791.59,255.83" style="stroke:#181818;stroke-width:1.0;"/><text fill="#000000" font-family="sans-serif" font-size="13" lengthAdjust="spacing" textLength="5" x="785.4019" y="245.1626">*</text></g><!--link ScanResult to DatabaseMetadataAdapter--><g id="link_ScanResult_DatabaseMetadataAdapter"><path codeLine="124" d="M817.14,255.83 C817.62,236.32 817.7644,221.7483 817.2944,202.2283 " fill="none" id="ScanResult-to-DatabaseMetadataAdapter" style="stroke:#181818;stroke-width:1.0;"/><polygon fill="#181818" points="817.15,196.23,813.3678,205.3237,817.2704,201.2286,821.3655,205.1311,817.15,196.23" style="stroke:#181818;stroke-width:1.0;"/></g><!--link DatabaseMetadataAdapter to User--><g id="link_DatabaseMetadataAdapter_User"><path codeLine="27" d="M541.19,181.73 C351.27,257.11 128,391.55 128,607 C128,607 128,607 128,1666 C128,1782.26 153.7767,1908.3962 174.5067,1992.0462 " fill="none" id="DatabaseMetadataAdapter-to-User" style="stroke:#181818;stroke-width:1.0;"/><polygon fill="#181818" points="175.95,1997.87,177.6677,1988.1721,174.7473,1993.0168,169.9026,1990.0964,175.95,1997.87" style="stroke:#181818;stroke-width:1.0;"/></g><!--reverse link DatabaseMetadataAdapter to MySQLDatabaseMetadataAdapter--><g id="link_DatabaseMetadataAdapter_MySQLDatabaseMetadataAdapter"><path d="M986.3568,204.8697 C1026.6068,227.4597 1053.71,242.68 1093.19,264.84 " fill="none" id="DatabaseMetadataAdapter-backto-MySQLDatabaseMetadataAdapter" style="stroke:#181818;stroke-width:1.0;"/><polygon fill="none" points="970.66,196.06,983.4202,210.102,989.2934,199.6374,970.66,196.06" style="stroke:#181818;stroke-width:1.0;"/></g><!--link FieldTag to DatabaseField--><g id="link_FieldTag_DatabaseField"><path codeLine="58" d="M2041.59,1365.68 C2043.26,1334.88 2043.9182,1303.4194 2043.3982,1268.0394 " fill="none" id="FieldTag-to-DatabaseField" style="stroke:#181818;stroke-width:1.0;"/><polygon fill="#181818" points="2043.31,1262.04,2039.4427,1271.0978,2043.3835,1267.0395,2047.4418,1270.9802,2043.31,1262.04" style="stroke:#181818;stroke-width:1.0;"/></g><!--link DatabaseField to FieldTag--><g id="link_DatabaseField_FieldTag"><path codeLine="77" d="M2017.43,1262.04 C2016.93,1297.42 2017.1746,1328.8878 2018.7446,1359.6878 " fill="none" id="DatabaseField-to-FieldTag" style="stroke:#181818;stroke-width:1.0;"/><polygon fill="#181818" points="2019.05,1365.68,2022.5866,1356.488,2018.7955,1360.6865,2014.597,1356.8953,2019.05,1365.68" style="stroke:#181818;stroke-width:1.0;"/><text fill="#000000" font-family="sans-serif" font-size="13" lengthAdjust="spacing" textLength="5" x="2012.663" y="1355.3203">*</text></g><!--link FieldTag to DataTypeTag--><g id="link_FieldTag_DataTypeTag"><path codeLine="59" d="M2191.9,1502.01 C2294.42,1545.21 2409.01,1595.26 2416,1606 C2444.6,1649.96 2434.34,1674.87 2416,1724 C2408.02,1745.38 2398.7577,1760.9505 2384.2177,1778.9705 " fill="none" id="FieldTag-to-DataTypeTag" style="stroke:#181818;stroke-width:1.0;"/><polygon fill="#181818" points="2380.45,1783.64,2389.2146,1779.1476,2383.5898,1779.7488,2382.9886,1774.1239,2380.45,1783.64" style="stroke:#181818;stroke-width:1.0;"/></g><!--link DatabaseField to FieldDataTypes--><g id="link_DatabaseField_FieldDataTypes"><path codeLine="76" d="M2217.16,1252.83 C2247.22,1274.11 2276.97,1297.47 2303,1322 C2308.78,1327.45 2310.4471,1328.8605 2315.9371,1334.9905 " fill="none" id="DatabaseField-to-FieldDataTypes" style="stroke:#181818;stroke-width:1.0;"/><polygon fill="#181818" points="2319.94,1339.46,2316.9153,1330.0871,2316.6043,1335.7354,2310.956,1335.4243,2319.94,1339.46" style="stroke:#181818;stroke-width:1.0;"/></g><!--link DatabaseField to DataTypeTag--><g id="link_DatabaseField_DataTypeTag"><path codeLine="78" d="M2217.07,1169.02 C2309.63,1192.87 2413.42,1237.72 2470,1322 C2569.71,1470.52 2532.03,1565.03 2450,1724 C2438.63,1746.03 2426.4041,1761.9792 2408.4041,1779.6292 " fill="none" id="DatabaseField-to-DataTypeTag" style="stroke:#181818;stroke-width:1.0;stroke-dasharray:7.0,7.0;"/><polygon fill="#181818" points="2404.12,1783.83,2413.3467,1780.3849,2407.6901,1780.3293,2407.7456,1774.6728,2404.12,1783.83" style="stroke:#181818;stroke-width:1.0;"/></g><!--link DatabaseField to Control--><g id="link_DatabaseField_Control"><path codeLine="79" d="M1842.76,1234.07 C1788.79,1261.96 1735.04,1290.0876 1680.39,1319.0876 " fill="none" id="DatabaseField-to-Control" style="stroke:#181818;stroke-width:1.0;stroke-dasharray:7.0,7.0;"/><polygon fill="#181818" points="1675.09,1321.9,1684.915,1321.2147,1679.5067,1319.5563,1681.1651,1314.148,1675.09,1321.9" style="stroke:#181818;stroke-width:1.0;"/><text fill="#000000" font-family="sans-serif" font-size="13" lengthAdjust="spacing" textLength="5" x="1683.9127" y="1310.9596">*</text></g><!--link Control to DatabaseField--><g id="link_Control_DatabaseField"><path codeLine="163" d="M1700.74,1321.86 C1747.86,1297.37 1791.753,1274.3282 1837.333,1250.0782 " fill="none" id="Control-to-DatabaseField" style="stroke:#181818;stroke-width:1.0;stroke-dasharray:7.0,7.0;"/><polygon fill="#181818" points="1842.63,1247.26,1832.8058,1247.9559,1838.2159,1249.6085,1836.5633,1255.0186,1842.63,1247.26" style="stroke:#181818;stroke-width:1.0;"/></g><!--link DatabaseTable to DatabaseSchema--><g id="link_DatabaseTable_DatabaseSchema"><path codeLine="92" d="M1584.41,770.86 C1577.31,751.41 1571.6001,736.3699 1563.4901,716.6299 " fill="none" id="DatabaseTable-to-DatabaseSchema" style="stroke:#181818;stroke-width:1.0;"/><polygon fill="#181818" points="1561.21,711.08,1560.9303,720.9249,1563.1101,715.7049,1568.3301,717.8847,1561.21,711.08" style="stroke:#181818;stroke-width:1.0;"/></g><!--link DatabaseSchema to DatabaseTable--><g id="link_DatabaseSchema_DatabaseTable"><path codeLine="109" d="M1535.44,711.08 C1542.8,730.82 1548.6157,745.8701 1556.7057,765.3201 " fill="none" id="DatabaseSchema-to-DatabaseTable" style="stroke:#181818;stroke-width:1.0;"/><polygon fill="#181818" points="1559.01,770.86,1559.2469,761.014,1557.0898,766.2434,1551.8604,764.0863,1559.01,770.86" style="stroke:#181818;stroke-width:1.0;"/><text fill="#000000" font-family="sans-serif" font-size="13" lengthAdjust="spacing" textLength="5" x="1549.9069" y="760.195">*</text></g><!--link DatabaseTable to DatabaseField--><g id="link_DatabaseTable_DatabaseField"><path codeLine="93" d="M1752.34,960.05 C1782.06,979.31 1808.7048,996.5771 1839.6448,1016.6271 " fill="none" id="DatabaseTable-to-DatabaseField" style="stroke:#181818;stroke-width:1.0;"/><polygon fill="#181818" points="1844.68,1019.89,1839.3025,1011.6388,1840.484,1017.1709,1834.9519,1018.3524,1844.68,1019.89" style="stroke:#181818;stroke-width:1.0;"/><text fill="#000000" font-family="sans-serif" font-size="13" lengthAdjust="spacing" textLength="5" x="1829.9955" y="1010.7446">*</text></g><!--link DatabaseTable to Control--><g id="link_DatabaseTable_Control"><path codeLine="94" d="M1586.2,960.05 C1563.06,1059.35 1527.8718,1210.3966 1503.2718,1315.9566 " fill="none" id="DatabaseTable-to-Control" style="stroke:#181818;stroke-width:1.0;stroke-dasharray:7.0,7.0;"/><polygon fill="#181818" points="1501.91,1321.8,1507.8483,1313.9427,1503.0448,1316.9305,1500.057,1312.127,1501.91,1321.8" style="stroke:#181818;stroke-width:1.0;"/><text fill="#000000" font-family="sans-serif" font-size="13" lengthAdjust="spacing" textLength="5" x="1498.4829" y="1311.2278">*</text></g><!--link DatabaseSchema to DatabaseMetadataAdapter--><g id="link_DatabaseSchema_DatabaseMetadataAdapter"><path codeLine="108" d="M1526.65,504.6 C1534.57,427.05 1531.01,322.8 1472,256 C1417.89,194.74 1235.4278,155.892 1072.4478,132.232 " fill="none" id="DatabaseSchema-to-DatabaseMetadataAdapter" style="stroke:#181818;stroke-width:1.0;"/><polygon fill="#181818" points="1066.51,131.37,1074.842,136.6215,1071.4581,132.0883,1075.9913,128.7045,1066.51,131.37" style="stroke:#181818;stroke-width:1.0;"/></g><!--link DatabaseSchema to Control--><g id="link_DatabaseSchema_Control"><path codeLine="110" d="M1460.89,711.41 C1453.89,730.82 1447.76,751.25 1444,771 C1407.63,962.03 1432.2646,1183.4182 1453.8546,1315.8582 " fill="none" id="DatabaseSchema-to-Control" style="stroke:#181818;stroke-width:1.0;stroke-dasharray:7.0,7.0;"/><polygon fill="#181818" points="1454.82,1321.78,1457.3198,1312.2537,1454.0155,1316.8451,1449.4241,1313.5408,1454.82,1321.78" style="stroke:#181818;stroke-width:1.0;"/><text fill="#000000" font-family="sans-serif" font-size="13" lengthAdjust="spacing" textLength="5" x="1448.229" y="1311.2065">*</text></g><!--link ScanResult to DatabaseSchema--><g id="link_ScanResult_DatabaseSchema"><path codeLine="123" d="M998.64,438.21 C1004.48,440.53 1010.27,442.8 1016,445 C1126.6,487.48 1247.9435,527.3591 1345.2435,557.7891 " fill="none" id="ScanResult-to-DatabaseSchema" style="stroke:#181818;stroke-width:1.0;"/><polygon fill="#181818" points="1350.97,559.58,1343.5742,553.076,1346.1979,558.0876,1341.1863,560.7113,1350.97,559.58" style="stroke:#181818;stroke-width:1.0;"/><text fill="#000000" font-family="sans-serif" font-size="13" lengthAdjust="spacing" textLength="5" x="1338.2428" y="554.3391">*</text></g><!--link ScanResult to Control--><g id="link_ScanResult_Control"><path codeLine="125" d="M862.17,445.11 C985.8,644.08 1271.0634,1103.1837 1403.7734,1316.7637 " fill="none" id="ScanResult-to-Control" style="stroke:#181818;stroke-width:1.0;stroke-dasharray:7.0,7.0;"/><polygon fill="#181818" points="1406.94,1321.86,1405.5876,1312.1044,1404.3011,1317.6131,1398.7925,1316.3266,1406.94,1321.86" style="stroke:#181818;stroke-width:1.0;"/><text fill="#000000" font-family="sans-serif" font-size="13" lengthAdjust="spacing" textLength="5" x="1397.1321" y="1311.2919">*</text></g><!--link ScanResult to User--><g id="link_ScanResult_User"><path codeLine="126" d="M609.24,422.33 C432.38,500.67 199,645.54 199,864.5 C199,864.5 199,864.5 199,1666 C199,1780.97 199,1907.79 199,1991.94 " fill="none" id="ScanResult-to-User" style="stroke:#181818;stroke-width:1.0;"/><polygon fill="#181818" points="199,1997.94,203,1988.94,199,1992.94,195,1988.94,199,1997.94" style="stroke:#181818;stroke-width:1.0;"/></g><!--link DataTypeTag to User--><g id="link_DataTypeTag_User"><path codeLine="137" d="M2038.78,1889.23 C1611.66,1934.1 775.6272,2021.9231 397.1672,2061.6831 " fill="none" id="DataTypeTag-to-User" style="stroke:#181818;stroke-width:1.0;"/><polygon fill="#181818" points="391.2,2062.31,400.5687,2065.3478,396.1726,2061.7876,399.7328,2057.3916,391.2,2062.31" style="stroke:#181818;stroke-width:1.0;"/></g><!--link ControlAffectedTag to Control--><g id="link_ControlAffectedTag_Control"><path codeLine="146" d="M1960.87,1605.9 C1901.61,1587.69 1835.86,1566.87 1776,1546 C1764.2,1541.89 1757.7965,1539.6368 1745.6565,1535.2068 " fill="none" id="ControlAffectedTag-to-Control" style="stroke:#181818;stroke-width:1.0;"/><polygon fill="#181818" points="1740.02,1533.15,1747.1035,1539.9928,1744.717,1534.864,1749.8459,1532.4776,1740.02,1533.15" style="stroke:#181818;stroke-width:1.0;"/></g><!--link Control to ControlAffectedTag--><g id="link_Control_ControlAffectedTag"><path codeLine="162" d="M1740.25,1545.74 C1740.5,1545.83 1740.75,1545.91 1741,1546 C1800.94,1566.9 1861.0422,1586.0286 1921.9122,1604.2586 " fill="none" id="Control-to-ControlAffectedTag" style="stroke:#181818;stroke-width:1.0;"/><polygon fill="#181818" points="1927.66,1605.98,1920.186,1599.5661,1922.8702,1604.5455,1917.8908,1607.2297,1927.66,1605.98" style="stroke:#181818;stroke-width:1.0;"/><text fill="#000000" font-family="sans-serif" font-size="13" lengthAdjust="spacing" textLength="5" x="1895.867" y="1595.3018">*</text></g><!--link ControlAffectedTag to DataTypeTag--><g id="link_ControlAffectedTag_DataTypeTag"><path codeLine="147" d="M2190.91,1724.21 C2205.69,1742.96 2218.5952,1759.3083 2234.2452,1779.1583 " fill="none" id="ControlAffectedTag-to-DataTypeTag" style="stroke:#181818;stroke-width:1.0;"/><polygon fill="#181818" points="2237.96,1783.87,2235.529,1774.3259,2234.8643,1779.9436,2229.2467,1779.2789,2237.96,1783.87" style="stroke:#181818;stroke-width:1.0;"/></g><!--reverse link Control to RegExOnFieldNameControl--><g id="link_Control_RegExOnFieldNameControl"><path d="M1194.4094,1512.1351 C1054.4694,1550.4651 905.17,1591.36 788,1623.46 " fill="none" id="Control-backto-RegExOnFieldNameControl" style="stroke:#181818;stroke-width:1.0;"/><polygon fill="none" points="1211.77,1507.38,1192.8244,1506.3483,1195.9945,1517.922,1211.77,1507.38" style="stroke:#181818;stroke-width:1.0;"/></g><!--reverse link Control to RegExOnSampledDataControl--><g id="link_Control_RegExOnSampledDataControl"><path d="M1466.9795,1564.1065 C1465.0595,1591.6765 1464.36,1601.56 1462.85,1623.25 " fill="none" id="Control-backto-RegExOnSampledDataControl" style="stroke:#181818;stroke-width:1.0;"/><polygon fill="none" points="1468.23,1546.15,1460.994,1563.6897,1472.965,1564.5233,1468.23,1546.15" style="stroke:#181818;stroke-width:1.0;"/></g><!--SRC=[pLVVYziu47xtNo7wb2rkkMV37hZTt1BO95oSKieIZDPM4eDZPoMPRdhi_txIIB8iMTxqIXykJueqcX_VDpCQ5pLc37rXXA9_8YH-LPcWgk6mxiHsWqyaGOnJsCdFGlnxIylyYDdHxbTbZijJrIJegMrhs1AAULwt1xcvFlEgRN3zM69EU7KYEn0fA17_nLMU87C21yfMNZKLp_EPuqQCZ0lm5yMeOgarVPD0CD5h54NuIGZWWgC2Whp373zXHfQ4Os4DfoK-SqB7ORC2Don1TSNuOoRM6yAwcZikVxeCWf86Tv7hyq1E7j-kseRSzDepJhk2TvJCf2CPFfrhabK_oEqVmdzh4kJtX1T79S8ySN0vbZ0eRGcuREBCYYCvuLsCYewobWhDqWdGMP8zEX3-82YIrcPZgxHhFhSDfstDraqlL-Wj3OwMs1dLhz44nkZ3Xp_Hk_VlXbRU4WKA8qNRyfBz_J0bJ5uuQSeht1vRncsgdblAtqfn9xqKgwSBUwwtbpDXspRZk2anXNyYQwk2Fq9M_bMHkfHkmCdEpGRfGGoMuzwYJUGOXRD5v31fkfEdMiMKRJUBrJqi5wlj_7w-WVNT_FDYcJx0-jDw_J1FLsgzMAMRRx3SBfPp9PjkxG9sNmtcO76B3xOs33fxUPBqU8CW771yKDlIIN5LLGkX0Yv-oLdHKfMkNfs4zCKZPN58ayWwuwVmt2mXVrptHaV6nSXj320tRWTkUd1nD_4eCG2OkZ06LHROcjN7QNFnsyMWlOKCt8GG5mMy4jTayHhdnDQQfgMqFVCn7C85cN-MBJSaAJhA4EI-QuYUSAq3Q2Vk-f2_LlpOTbmUCkcf1K0acnCJiEFXEXQGJQGFmpt- -D5bTtmgBskFVUwt-AacutHtkOTaDQ4xwaDynbfULNFYcW9nN9PmErW57gG1ga7Cekevz9ECsPuDVZdberwGW804qar8L-OAs4hlrKgJgdoqGNyORINlewrZc40HoreHrsPmsUF8Om3snd1hZzpoaohxQ8BS_oTgL10EDzvB5n8TigGCUq8JDDb7-Xf5v8KKdPpWsiQRu1XOyDdJ8qdV5kLUCXaIm4IUEy9-PkAwgYyuv4nn4BkMxQlSSsDrZS3MEUT9J8Kv4FC9yJGCnw91fnkmL0P8AWahQ0NG3I0KfzScsiaHVVBjSao97O1iOhnnfmMLw_hVA5YDHxhVaq8eScFMcQc9J7hmWbE9DwLxTqAJ1zP6C_acoX3KgwXlAD_7_a48nfE9OySlxsD5NxbMW1H_psKk3JgQDUBbzC3yxsVUDGjZiOEYS7ytIWHqY-ntKPuBDifA-h74ufD7jDg9Px7_nDIJXcp9TX27uMBGdDRDcyzhJrvVnMEuUX4pOjXtJoVeXXpcB-i6zkGROowOxnE7pb_7Zv83UK49t9Z0CfdonI06n-ODVFK2K4CRJ63_Wn36tam4yIy0]--></g></svg>