<?xml version="1.0" encoding="us-ascii" standalone="no"?><svg xmlns="http://www.w3.org/2000/svg" xmlns:xlink="http://www.w3.org/1999/xlink" contentStyleType="text/css" height="757px" preserveAspectRatio="none" style="width:2385px;height:757px;background:#FFFFFF;" version="1.1" viewBox="0 0 2385 757" width="2385px" zoomAndPan="magnify"><defs/><g><line style="stroke:#181818;stroke-width:0.5;stroke-dasharray:5.0,5.0;" x1="22" x2="22" y1="82.6094" y2="674.9375"/><line style="stroke:#181818;stroke-width:0.5;stroke-dasharray:5.0,5.0;" x1="341.5" x2="341.5" y1="82.6094" y2="674.9375"/><line style="stroke:#181818;stroke-width:0.5;stroke-dasharray:5.0,5.0;" x1="653" x2="653" y1="82.6094" y2="674.9375"/><line style="stroke:#181818;stroke-width:0.5;stroke-dasharray:5.0,5.0;" x1="795" x2="795" y1="82.6094" y2="674.9375"/><line style="stroke:#181818;stroke-width:0.5;stroke-dasharray:5.0,5.0;" x1="1003" x2="1003" y1="82.6094" y2="674.9375"/><line style="stroke:#181818;stroke-width:0.5;stroke-dasharray:5.0,5.0;" x1="1292" x2="1292" y1="82.6094" y2="674.9375"/><line style="stroke:#181818;stroke-width:0.5;stroke-dasharray:5.0,5.0;" x1="1526.5" x2="1526.5" y1="82.6094" y2="674.9375"/><line style="stroke:#181818;stroke-width:0.5;stroke-dasharray:5.0,5.0;" x1="1747" x2="1747" y1="82.6094" y2="674.9375"/><line style="stroke:#181818;stroke-width:0.5;stroke-dasharray:5.0,5.0;" x1="2200" x2="2200" y1="82.6094" y2="674.9375"/><text fill="#000000" font-family="sans-serif" font-size="14" lengthAdjust="spacing" textLength="29" x="5" y="79.5332">User</text><ellipse cx="22.5" cy="13.5" fill="#E2E2F0" rx="8" ry="8" style="stroke:#181818;stroke-width:0.5;"/><path d="M22.5,21.5 L22.5,48.5 M9.5,29.5 L35.5,29.5 M22.5,48.5 L9.5,63.5 M22.5,48.5 L35.5,63.5 " fill="none" style="stroke:#181818;stroke-width:0.5;"/><text fill="#000000" font-family="sans-serif" font-size="14" lengthAdjust="spacing" textLength="29" x="5" y="688.4707">User</text><ellipse cx="22.5" cy="700.0469" fill="#E2E2F0" rx="8" ry="8" style="stroke:#181818;stroke-width:0.5;"/><path d="M22.5,708.0469 L22.5,735.0469 M9.5,716.0469 L35.5,716.0469 M22.5,735.0469 L9.5,750.0469 M22.5,735.0469 L35.5,750.0469 " fill="none" style="stroke:#181818;stroke-width:0.5;"/><text fill="#000000" font-family="sans-serif" font-size="14" lengthAdjust="spacing" textLength="50" x="313.5" y="79.5332">WebAPI</text><path d="M321,37 L321,61 M321,49 L338,49 " fill="none" style="stroke:#181818;stroke-width:0.5;"/><ellipse cx="350" cy="49" fill="#E2E2F0" rx="12" ry="12" style="stroke:#181818;stroke-width:0.5;"/><text fill="#000000" font-family="sans-serif" font-size="14" lengthAdjust="spacing" textLength="50" x="313.5" y="688.4707">WebAPI</text><path d="M321,695.5469 L321,719.5469 M321,707.5469 L338,707.5469 " fill="none" style="stroke:#181818;stroke-width:0.5;"/><ellipse cx="350" cy="707.5469" fill="#E2E2F0" rx="12" ry="12" style="stroke:#181818;stroke-width:0.5;"/><text fill="#000000" font-family="sans-serif" font-size="14" lengthAdjust="spacing" textLength="81" x="610" y="79.5332">SQLAlchemy</text><path d="M635.5,29 C635.5,19 653.5,19 653.5,19 C653.5,19 671.5,19 671.5,29 L671.5,55 C671.5,65 653.5,65 653.5,65 C653.5,65 635.5,65 635.5,55 L635.5,29 " fill="#E2E2F0" style="stroke:#181818;stroke-width:1.5;"/><path d="M635.5,29 C635.5,39 653.5,39 653.5,39 C653.5,39 671.5,39 671.5,29 " fill="none" style="stroke:#181818;stroke-width:1.5;"/><text fill="#000000" font-family="sans-serif" font-size="14" lengthAdjust="spacing" textLength="81" x="610" y="688.4707">SQLAlchemy</text><path d="M635.5,701.5469 C635.5,691.5469 653.5,691.5469 653.5,691.5469 C653.5,691.5469 671.5,691.5469 671.5,701.5469 L671.5,727.5469 C671.5,737.5469 653.5,737.5469 653.5,737.5469 C653.5,737.5469 635.5,737.5469 635.5,727.5469 L635.5,701.5469 " fill="#E2E2F0" style="stroke:#181818;stroke-width:1.5;"/><path d="M635.5,701.5469 C635.5,711.5469 653.5,711.5469 653.5,711.5469 C653.5,711.5469 671.5,711.5469 671.5,701.5469 " fill="none" style="stroke:#181818;stroke-width:1.5;"/><text fill="#000000" font-family="sans-serif" font-size="14" lengthAdjust="spacing" textLength="170" x="707" y="79.5332">DatabaseMetadataAdapter</text><ellipse cx="795" cy="49" fill="#E2E2F0" rx="12" ry="12" style="stroke:#181818;stroke-width:0.5;"/><line style="stroke:#181818;stroke-width:0.5;" x1="783" x2="807" y1="63" y2="63"/><text fill="#000000" font-family="sans-serif" font-size="14" lengthAdjust="spacing" textLength="170" x="707" y="688.4707">DatabaseMetadataAdapter</text><ellipse cx="795" cy="707.5469" fill="#E2E2F0" rx="12" ry="12" style="stroke:#181818;stroke-width:0.5;"/><line style="stroke:#181818;stroke-width:0.5;" x1="783" x2="807" y1="721.5469" y2="721.5469"/><text fill="#000000" font-family="sans-serif" font-size="14" lengthAdjust="spacing" textLength="72" x="964" y="79.5332">ScanResult</text><ellipse cx="1003" cy="49" fill="#E2E2F0" rx="12" ry="12" style="stroke:#181818;stroke-width:0.5;"/><line style="stroke:#181818;stroke-width:0.5;" x1="991" x2="1015" y1="63" y2="63"/><text fill="#000000" font-family="sans-serif" font-size="14" lengthAdjust="spacing" textLength="72" x="964" y="688.4707">ScanResult</text><ellipse cx="1003" cy="707.5469" fill="#E2E2F0" rx="12" ry="12" style="stroke:#181818;stroke-width:0.5;"/><line style="stroke:#181818;stroke-width:0.5;" x1="991" x2="1015" y1="721.5469" y2="721.5469"/><text fill="#000000" font-family="sans-serif" font-size="14" lengthAdjust="spacing" textLength="112" x="1233" y="79.5332">DatabaseSchema</text><ellipse cx="1292" cy="49" fill="#E2E2F0" rx="12" ry="12" style="stroke:#181818;stroke-width:0.5;"/><line style="stroke:#181818;stroke-width:0.5;" x1="1280" x2="1304" y1="63" y2="63"/><text fill="#000000" font-family="sans-serif" font-size="14" lengthAdjust="spacing" textLength="112" x="1233" y="688.4707">DatabaseSchema</text><ellipse cx="1292" cy="707.5469" fill="#E2E2F0" rx="12" ry="12" style="stroke:#181818;stroke-width:0.5;"/><line style="stroke:#181818;stroke-width:0.5;" x1="1280" x2="1304" y1="721.5469" y2="721.5469"/><text fill="#000000" font-family="sans-serif" font-size="14" lengthAdjust="spacing" textLength="97" x="1475.5" y="79.5332">DatabaseTable</text><ellipse cx="1527" cy="49" fill="#E2E2F0" rx="12" ry="12" style="stroke:#181818;stroke-width:0.5;"/><line style="stroke:#181818;stroke-width:0.5;" x1="1515" x2="1539" y1="63" y2="63"/><text fill="#000000" font-family="sans-serif" font-size="14" lengthAdjust="spacing" textLength="97" x="1475.5" y="688.4707">DatabaseTable</text><ellipse cx="1527" cy="707.5469" fill="#E2E2F0" rx="12" ry="12" style="stroke:#181818;stroke-width:0.5;"/><line style="stroke:#181818;stroke-width:0.5;" x1="1515" x2="1539" y1="721.5469" y2="721.5469"/><text fill="#000000" font-family="sans-serif" font-size="14" lengthAdjust="spacing" textLength="92" x="1698" y="79.5332">DatabaseField</text><ellipse cx="1747" cy="49" fill="#E2E2F0" rx="12" ry="12" style="stroke:#181818;stroke-width:0.5;"/><line style="stroke:#181818;stroke-width:0.5;" x1="1735" x2="1759" y1="63" y2="63"/><text fill="#000000" font-family="sans-serif" font-size="14" lengthAdjust="spacing" textLength="92" x="1698" y="688.4707">DatabaseField</text><ellipse cx="1747" cy="707.5469" fill="#E2E2F0" rx="12" ry="12" style="stroke:#181818;stroke-width:0.5;"/><line style="stroke:#181818;stroke-width:0.5;" x1="1735" x2="1759" y1="721.5469" y2="721.5469"/><text fill="#000000" font-family="sans-serif" font-size="14" lengthAdjust="spacing" textLength="46" x="2174" y="79.5332">Control</text><ellipse cx="2200" cy="49" fill="#E2E2F0" rx="12" ry="12" style="stroke:#181818;stroke-width:0.5;"/><line style="stroke:#181818;stroke-width:0.5;" x1="2188" x2="2212" y1="63" y2="63"/><text fill="#000000" font-family="sans-serif" font-size="14" lengthAdjust="spacing" textLength="46" x="2174" y="688.4707">Control</text><ellipse cx="2200" cy="707.5469" fill="#E2E2F0" rx="12" ry="12" style="stroke:#181818;stroke-width:0.5;"/><line style="stroke:#181818;stroke-width:0.5;" x1="2188" x2="2212" y1="721.5469" y2="721.5469"/><polygon fill="#181818" points="329.5,110.9609,339.5,114.9609,329.5,118.9609,333.5,114.9609" style="stroke:#181818;stroke-width:1.0;"/><line style="stroke:#181818;stroke-width:1.0;" x1="22.5" x2="335.5" y1="114.9609" y2="114.9609"/><text fill="#000000" font-family="sans-serif" font-size="13" lengthAdjust="spacing" textLength="194" x="29.5" y="110.1045">POST /api/v1/databases/{id}/scan</text><polygon fill="#181818" points="641.5,141.3125,651.5,145.3125,641.5,149.3125,645.5,145.3125" style="stroke:#181818;stroke-width:1.0;"/><line style="stroke:#181818;stroke-width:1.0;" x1="341.5" x2="647.5" y1="145.3125" y2="145.3125"/><text fill="#000000" font-family="sans-serif" font-size="13" lengthAdjust="spacing" textLength="192" x="348.5" y="140.4561">Get database with the received id</text><polygon fill="#181818" points="352.5,171.6641,342.5,175.6641,352.5,179.6641,348.5,175.6641" style="stroke:#181818;stroke-width:1.0;"/><line style="stroke:#181818;stroke-width:1.0;" x1="346.5" x2="652.5" y1="175.6641" y2="175.6641"/><text fill="#000000" font-family="sans-serif" font-size="13" lengthAdjust="spacing" textLength="288" x="358.5" y="170.8076">Returns an instance of DatabaseMetadataAdapter</text><polygon fill="#181818" points="641.5,202.0156,651.5,206.0156,641.5,210.0156,645.5,206.0156" style="stroke:#181818;stroke-width:1.0;"/><line style="stroke:#181818;stroke-width:1.0;" x1="341.5" x2="647.5" y1="206.0156" y2="206.0156"/><text fill="#000000" font-family="sans-serif" font-size="13" lengthAdjust="spacing" textLength="165" x="348.5" y="201.1592">Get all the available Controls</text><polygon fill="#181818" points="352.5,232.3672,342.5,236.3672,352.5,240.3672,348.5,236.3672" style="stroke:#181818;stroke-width:1.0;"/><line style="stroke:#181818;stroke-width:1.0;" x1="346.5" x2="652.5" y1="236.3672" y2="236.3672"/><text fill="#000000" font-family="sans-serif" font-size="13" lengthAdjust="spacing" textLength="189" x="358.5" y="231.5107">Return a list of Control instances</text><polygon fill="#181818" points="783,262.7188,793,266.7188,783,270.7188,787,266.7188" style="stroke:#181818;stroke-width:1.0;"/><line style="stroke:#181818;stroke-width:1.0;" x1="341.5" x2="789" y1="266.7188" y2="266.7188"/><text fill="#000000" font-family="sans-serif" font-size="13" lengthAdjust="spacing" textLength="229" x="348.5" y="261.8623">database.scanStructure(sampleSize=n)</text><line style="stroke:#181818;stroke-width:1.0;" x1="795" x2="837" y1="297.0703" y2="297.0703"/><line style="stroke:#181818;stroke-width:1.0;" x1="837" x2="837" y1="297.0703" y2="310.0703"/><line style="stroke:#181818;stroke-width:1.0;" x1="796" x2="837" y1="310.0703" y2="310.0703"/><polygon fill="#181818" points="806,306.0703,796,310.0703,806,314.0703,802,310.0703" style="stroke:#181818;stroke-width:1.0;"/><text fill="#000000" font-family="sans-serif" font-size="13" lengthAdjust="spacing" textLength="194" x="802" y="292.2139">self.fetchSamples(sampleSize=n)</text><polygon fill="#181818" points="352.5,336.4219,342.5,340.4219,352.5,344.4219,348.5,340.4219" style="stroke:#181818;stroke-width:1.0;"/><line style="stroke:#181818;stroke-width:1.0;" x1="346.5" x2="794" y1="340.4219" y2="340.4219"/><text fill="#000000" font-family="sans-serif" font-size="13" lengthAdjust="spacing" textLength="201" x="358.5" y="335.5654">Returns an instance of ScanResult</text><polygon fill="#181818" points="783,366.7734,793,370.7734,783,374.7734,787,370.7734" style="stroke:#181818;stroke-width:1.0;"/><line style="stroke:#181818;stroke-width:1.0;" x1="341.5" x2="789" y1="370.7734" y2="370.7734"/><text fill="#000000" font-family="sans-serif" font-size="13" lengthAdjust="spacing" textLength="249" x="348.5" y="365.917">database.runControlsOnLastScan(controls)</text><polygon fill="#181818" points="991,397.125,1001,401.125,991,405.125,995,401.125" style="stroke:#181818;stroke-width:1.0;"/><line style="stroke:#181818;stroke-width:1.0;" x1="795" x2="997" y1="401.125" y2="401.125"/><text fill="#000000" font-family="sans-serif" font-size="13" lengthAdjust="spacing" textLength="141" x="802" y="396.2686">scanResult.run(controls)</text><polygon fill="#181818" points="1280,427.4766,1290,431.4766,1280,435.4766,1284,431.4766" style="stroke:#181818;stroke-width:1.0;"/><line style="stroke:#181818;stroke-width:1.0;" x1="1003" x2="1286" y1="431.4766" y2="431.4766"/><text fill="#000000" font-family="sans-serif" font-size="13" lengthAdjust="spacing" textLength="265" x="1010" y="426.6201">for schema in schemas: schema.run(controls)</text><polygon fill="#181818" points="1515,457.8281,1525,461.8281,1515,465.8281,1519,461.8281" style="stroke:#181818;stroke-width:1.0;"/><line style="stroke:#181818;stroke-width:1.0;" x1="1292" x2="1521" y1="461.8281" y2="461.8281"/><text fill="#000000" font-family="sans-serif" font-size="13" lengthAdjust="spacing" textLength="211" x="1299" y="456.9717">for table in tables: table.run(controls)</text><polygon fill="#181818" points="1735,488.1797,1745,492.1797,1735,496.1797,1739,492.1797" style="stroke:#181818;stroke-width:1.0;"/><line style="stroke:#181818;stroke-width:1.0;" x1="1527" x2="1741" y1="492.1797" y2="492.1797"/><text fill="#000000" font-family="sans-serif" font-size="13" lengthAdjust="spacing" textLength="196" x="1534" y="487.3232">for field in fields: field.run(controls)</text><polygon fill="#181818" points="2188,518.5313,2198,522.5313,2188,526.5313,2192,522.5313" style="stroke:#181818;stroke-width:1.0;"/><line style="stroke:#181818;stroke-width:1.0;" x1="1747" x2="2194" y1="522.5313" y2="522.5313"/><text fill="#000000" font-family="sans-serif" font-size="13" lengthAdjust="spacing" textLength="263" x="1754" y="517.6748">for control in controls: control.executeOn(self)</text><line style="stroke:#181818;stroke-width:1.0;" x1="2200" x2="2242" y1="552.8828" y2="552.8828"/><line style="stroke:#181818;stroke-width:1.0;" x1="2242" x2="2242" y1="552.8828" y2="565.8828"/><line style="stroke:#181818;stroke-width:1.0;" x1="2201" x2="2242" y1="565.8828" y2="565.8828"/><polygon fill="#181818" points="2211,561.8828,2201,565.8828,2211,569.8828,2207,565.8828" style="stroke:#181818;stroke-width:1.0;"/><text fill="#000000" font-family="sans-serif" font-size="13" lengthAdjust="spacing" textLength="171" x="2207" y="548.0264">self.__conditionMatches(field)</text><polygon fill="#181818" points="1758,592.2344,1748,596.2344,1758,600.2344,1754,596.2344" style="stroke:#181818;stroke-width:1.0;"/><line style="stroke:#181818;stroke-width:1.0;stroke-dasharray:2.0,2.0;" x1="1752" x2="2199" y1="596.2344" y2="596.2344"/><text fill="#000000" font-family="sans-serif" font-size="13" lengthAdjust="spacing" textLength="429" x="1764" y="591.3779">for tag in self.affectedTags: field.updateTag(tag.tag, tag.affected_score_by)</text><polygon fill="#181818" points="641.5,622.5859,651.5,626.5859,641.5,630.5859,645.5,626.5859" style="stroke:#181818;stroke-width:1.0;"/><line style="stroke:#181818;stroke-width:1.0;" x1="341.5" x2="647.5" y1="626.5859" y2="626.5859"/><text fill="#000000" font-family="sans-serif" font-size="13" lengthAdjust="spacing" textLength="125" x="348.5" y="621.7295">Save the scan results</text><polygon fill="#181818" points="33.5,652.9375,23.5,656.9375,33.5,660.9375,29.5,656.9375" style="stroke:#181818;stroke-width:1.0;"/><line style="stroke:#181818;stroke-width:1.0;" x1="27.5" x2="340.5" y1="656.9375" y2="656.9375"/><text fill="#000000" font-family="sans-serif" font-size="13" lengthAdjust="spacing" textLength="295" x="39.5" y="652.0811">Return to the basic ScanResult id for furure quering</text><!--SRC=[bPHDZzCm48Rl-HLpR2Len3KII1K8XBIhBfiYZjN4cRIMl4wn9uM2-E-CdOzwArBW46Nap3ppaNUCYbi7dpsvh6exMwCxmnUgrWyVinePA_G4vQUxjL47UZfdP5dp6TuDd-w9CRYjQpoo88RFfKBxIBupV1rG1WnUdswnCdHz-5wJgSV3jwrbrvei2vN2opT3ZGKyRCejv7ZK-UbLFbRiyv-w_fLxAIFh7KF8fOq2FX33rDytpGVW0u4ZHVf4DUWwktYdwHw9EsSze0LjFQDL16qpEu_vv6XCJ8adr2QqFxReRsO61ACzXvo3_rI7JxBDr5DCFQ_2R4fsdH8gBJm-7GsL-WUzjiji9lecs9DfLWsnEfIHvV-T-PVP9cBwdmPTPyU9RkmTUWwSXHgERXPqoIXzJNOW9l4NfxIUNjy5DB9KFjhIos3vOZ2kICzZKrhSYnx6KIF2YeQWudk65EDIKDob7jG4Cu2Y8Q3udW75k00QHjaZrAIyqHJCOAteEwcEQMCNGHBBR9Hf2ebYsUqafDQiMtkFeXkHJ2mb2Vbp1upxEDG0mQOXnLHlSJ-rqXtbVyeCzWlnNCdp8eHChZklMaUxwhoSMSyIJnHtC_nxkHF2FqwNArn1qpvo6rsbHAqIuSWDqa-xSx9VyBKZf-qUVWC0]--></g></svg>